<svg width="20" height="19" fill="none" xmlns="http://www.w3.org/2000/svg"><path d="M10 0C4 0 4 6 4 6v1l-.063-.001c-.34 0-1.937.07-1.937 1.396C2 9.94 3.697 10 3.965 10H4c0 1-1.652 2.171-2.736 2.442C.254 12.834.014 13.503 0 14.01a1.67 1.67 0 00.106.643c.377.885 1.497 1.342 2.594 1.342C2.738 17.434 3.776 18 4.471 18c.794 0 1.634-.388 1.634-.388C6.146 17.646 7.425 19 10 19s3.854-1.354 3.896-1.388c0 0 .84.388 1.634.388.695 0 1.732-.566 1.77-2.005 1.097 0 2.217-.457 2.594-1.342.04-.095.114-.34.106-.643-.013-.507-.254-1.176-1.264-1.568C17.652 12.171 16 11 16 10h.035C16.303 10 18 9.94 18 8.395c0-1.326-1.597-1.396-1.937-1.396L16 7V6s0-6-6-6z" fill="#C31218"/></svg>