<svg width="18" height="20" fill="none" xmlns="http://www.w3.org/2000/svg"><path fill-rule="evenodd" clip-rule="evenodd" d="M8.996.45a5.242 5.242 0 015.232 5.232 5.242 5.242 0 01-5.232 5.232 5.242 5.242 0 01-5.232-5.232A5.242 5.242 0 018.996.45zm0 10.364a8.64 8.64 0 018.637 8.736l-1.778-.05a6.847 6.847 0 00-6.859-6.86c-3.798 0-6.859 3.062-6.909 6.91L.31 19.5c0-4.784 3.902-8.686 8.686-8.686zm0-8.537a3.394 3.394 0 00-3.404 3.405 3.394 3.394 0 003.404 3.404 3.394 3.394 0 003.405-3.404 3.394 3.394 0 00-3.405-3.405z" fill="#fff"/></svg>