<svg width="18" height="21" fill="none" xmlns="http://www.w3.org/2000/svg"><path fill-rule="evenodd" clip-rule="evenodd" d="M9 .95a3.718 3.718 0 013.704 3.704l-.05.68 3.658.047.046.686.73 13.154-.004.829-16.218-.053.046-.776.73-13.155.096-.731 3.558.05v-.731A3.718 3.718 0 019 .95zm0 1.562c-1.183 0-2.142.96-2.142 2.142l-.05.68 4.334.05v-.73c0-1.183-.96-2.142-2.142-2.142zM3.155 6.896L2.47 18.488l13.012.053-.59-11.645-2.187-.05-.05 2.242-1.512-.05.05-2.142-4.334-.05-.05 2.242-1.512-.05.05-2.142h-2.19z" fill="#fff"/></svg>