<svg xmlns="http://www.w3.org/2000/svg" width="24" height="24" viewBox="0 0 512 512"><path d="M438.98 37.67c-9.2-15.35-26-24.88-43.88-24.88H116.88C99 12.8 82.2 22.33 73 37.67L3.65 153.23c-2.4 4-3.65 8.52-3.65 13.17 0 25.75 9.88 49 25.6 67.03V448c0 28.25 22.95 51.2 51.2 51.2h358.4c28.22 0 51.2-22.95 51.2-51.2V233.43c15.7-18.03 25.6-41.28 25.6-67.03 0-4.65-1.27-9.17-3.67-13.17L438.98 37.67zm21.4 135.15c-3.17 25.2-24.73 44.78-50.77 44.78-28.25 0-51.2-22.95-51.2-51.2l-1-4.9.5-.1L338.42 64h56.68l65.28 108.82zM225.75 64h60.45L307 168.07c-.88 27.45-23.38 49.53-51 49.53-27.65 0-50.12-22.08-51.02-49.53L225.75 64zm-108.87 0h56.68l-19.45 97.4.5.1-1 4.9c0 28.25-22.98 51.2-51.2 51.2-26.08 0-47.62-19.58-50.8-44.78L116.88 64zm87.92 384v-76.8h102.4V448H204.8zm153.6 0v-76.8c0-28.23-22.98-51.2-51.2-51.2H204.8c-28.25 0-51.2 22.98-51.2 51.2V448H76.8V265.17c8.2 2.12 16.67 3.62 25.6 3.62 30.53 0 58.03-13.42 76.8-34.72 18.75 21.3 46.25 34.72 76.8 34.72 30.52 0 58.02-13.42 76.8-34.72 18.75 21.3 46.25 34.72 76.8 34.72 8.9 0 17.38-1.5 25.6-3.62V448h-76.8z" fill="#fff" fill-rule="nonzero"/></svg>