<svg width="24" height="27" version="1.1" xmlns="http://www.w3.org/2000/svg"><defs><filter x="-66.7%" y="-57.1%" width="233.3%" height="214.3%" filterUnits="objectBoundingBox" id="filter-1"><feOffset dx="0" dy="2" in="SourceAlpha" result="shadowOffsetOuter1"/><feGaussianBlur stdDeviation="2" in="shadowOffsetOuter1" result="shadowBlurOuter1"/><feColorMatrix values="0 0 0 0 0.995301178 0 0 0 0 0.980963379 0 0 0 0 0.980963379 0 0 0 0.5 0" type="matrix" in="shadowBlurOuter1" result="shadowMatrixOuter1"/><feMerge><feMergeNode in="shadowMatrixOuter1"/><feMergeNode in="SourceGraphic"/></feMerge></filter></defs><g id="Page-1" stroke="none" stroke-width="1" fill="none" fill-rule="evenodd"><g id="bag,-basket,-buy,-shopping,-ecommerce-svg-icon" filter="url(#filter-1)" transform="translate(3 1)" fill="#FFF" fill-rule="nonzero"><path d="M17.09 18.273l-.553-12.887c-.01-.95-.766-1.723-1.694-1.723h-2.808C11.807 2.145 10.523.95 8.978.95S6.148 2.145 5.92 3.663H3.116c-.928 0-1.683.772-1.693 1.724L.87 18.272l-.001.033c0 .962.76 1.745 1.694 1.745h12.832c.934 0 1.694-.783 1.694-1.745v-.032zM8.977 2.436c.749 0 1.382.519 1.586 1.227H7.392c.203-.708.837-1.227 1.586-1.227zm6.418 16.13H2.564a.254.254 0 0 1-.255-.249L2.861 5.44v-.034c0-.143.112-.257.255-.257h2.762v2.716c0 .41.322.743.719.743a.73.73 0 0 0 .719-.743V5.148h3.31v2.716c0 .41.32.743.718.743a.73.73 0 0 0 .719-.743V5.148h2.78c.143 0 .255.114.255.256a.81.81 0 0 0 0 .034l.553 12.879a.255.255 0 0 1-.255.248z" id="Shape"/></g></g></svg>