<svg version="1.1" id="svg1" width="1579.752" height="1009.183" xmlns="http://www.w3.org/2000/svg"><g id="g1" transform="translate(-33.408 -94.481)"><g id="group-R5" fill="#fff"><path d="M213.166-208.777q-15.674-14.42-36.364-22.57-20.69-8.151-42.006-8.151-24.765 0-47.335 9.404-22.257 9.405-39.499 26.333-17.241 16.928-26.959 39.185-9.718 21.943-9.718 46.708 0 24.451 9.718 46.395Q31.034-49.53 48.276-32.602 65.517-15.674 87.774-6.27q22.57 9.405 46.708 9.405 21.63 0 41.693-7.524 20.063-7.837 36.99-21.943v-20.69q-6.269 7.837-15.673 14.42-9.405 6.583-20.376 11.599-10.659 4.702-21.944 7.523-10.972 2.508-21.316 2.508-20.377 0-40.44-8.777-20.062-9.091-35.422-23.825-15.047-14.733-23.511-33.542-8.15-19.122-8.15-39.498 0-21.317 8.463-41.066 8.464-19.75 23.198-35.11 15.047-15.36 34.482-23.824 19.75-8.777 41.38-8.777 21.943 0 43.887 10.344 21.943 10.345 35.423 26.96zm152.35-30.721q-24.45 0-47.021 9.404-22.257 9.405-39.499 26.333-16.927 16.928-26.645 39.185-9.405 21.943-9.405 46.394 0 24.452 9.718 46.709 9.718 21.943 26.646 38.871 17.24 16.928 39.498 26.332 22.257 9.405 46.709 9.405 24.451 0 46.708-9.405 22.57-9.404 39.498-26.332 17.242-16.928 26.646-38.871 9.718-22.257 9.718-46.709 0-24.45-9.718-46.394-9.404-22.257-26.646-39.185-16.928-16.928-39.498-26.333-22.257-9.404-46.708-9.404zm0 14.107q21.63 0 41.066 8.464 19.75 8.15 34.797 23.197 15.047 15.047 23.197 34.796 8.464 19.436 8.464 40.752 0 21.317-8.464 41.066-8.464 19.436-23.51 34.483-14.734 14.733-34.484 23.197-19.435 8.464-41.065 8.464t-41.38-8.464q-19.435-8.464-34.482-23.197-14.734-15.047-23.198-34.483-8.464-19.436-8.464-41.066 0-21.63 8.464-41.065 8.464-19.436 23.198-34.483 15.047-15.047 34.482-23.197 19.75-8.464 41.38-8.464zm267.712-14.107q-24.452 0-47.022 9.404-22.257 9.405-39.498 26.333-16.928 16.928-26.646 39.185-9.405 21.943-9.405 46.394 0 24.452 9.718 46.709 9.718 21.943 26.646 38.871 17.241 16.928 39.498 26.332 22.257 9.405 46.709 9.405 24.451 0 46.708-9.405 22.57-9.404 39.498-26.332 17.242-16.928 26.646-38.871 9.718-22.257 9.718-46.709 0-24.45-9.718-46.394-9.404-22.257-26.646-39.185-16.927-16.928-39.498-26.333-22.257-9.404-46.708-9.404zm0 14.107q21.63 0 41.065 8.464 19.75 8.15 34.797 23.197 15.047 15.047 23.197 34.796 8.464 19.436 8.464 40.752 0 21.317-8.464 41.066-8.464 19.436-23.51 34.483-14.734 14.733-34.484 23.197-19.435 8.464-41.065 8.464t-41.38-8.464q-19.435-8.464-34.482-23.197-14.734-15.047-23.198-34.483-8.464-19.436-8.464-41.066 0-21.63 8.464-41.065 8.464-19.436 23.198-34.483 15.047-15.047 34.483-23.197 19.749-8.464 41.379-8.464zm174.294 99.372v-110.344h-15.047V0h15.047v-106.583l6.27-6.27L927.27 0h19.75L824.135-122.57 939.81-236.363h-20.062zm178.37-110.344h-15.047V0h15.047zm163.635 14.106v-14.106h-112.852V0h112.852v-14.107h-97.805v-108.15h95.298v-14.106h-95.298v-85.894z" aria-label="COOKIE" transform="matrix(1.33333 0 0 1.4262 18.361 1099.193)"/><path d="M11.34-22.62h-9.6v1.26h4.17v11.37h1.26v-11.37h4.17zm2.49 0v12.63h1.26v-11.37h.12L20.1-9.99h.06l4.95-11.37h.12v11.37h1.26v-12.63h-2.16l-4.17 9.81h-.06l-4.11-9.81z" transform="matrix(1.33333 0 0 1.5238 1577.84 131.196)" aria-label="™"/><path d="M31.62 0h134.64v-133.62h85.68V0h134.64v-384.54H251.94V-255h-85.68v-129.54H31.62z" transform="matrix(1.33333 0 0 1.5238 0 683.053)" aria-label="H"/><path d="M223.458-378.691q-42.022 0-80.09 13.842-37.572 13.348-65.751 39.056-28.18 25.707-44.494 61.797-15.82 35.595-15.82 78.605 0 43.505 15.82 79.595 15.82 35.595 44 60.808 28.673 24.719 66.246 38.067Q180.94 5.932 223.458 5.932q42.516 0 80.088-12.853 37.573-13.348 65.752-38.067 28.674-25.213 44.494-60.808 15.82-36.09 15.82-79.595 0-43.01-15.82-78.605-15.82-36.09-44.494-61.797-28.674-25.708-66.246-39.056-37.573-13.842-79.595-13.842zm0 122.605q31.145 0 50.426 21.258 19.28 20.764 19.28 51.415 0 31.64-19.775 51.91-19.28 19.774-49.931 19.774-30.652 0-50.427-19.775-19.28-20.27-19.28-51.91 0-30.65 19.28-51.414 19.28-21.258 50.426-21.258z" transform="matrix(1.33333 0 0 1.5238 550.217 671.535)" aria-label="O"/><path d="M5.1-259.59l77.01-3.57V0h139.74v-263.16l77.01 3.57v-124.95H5.1z" transform="matrix(1.33333 0 0 1.5238 1161.224 681.553)" aria-label="T"/></g></g></svg>