<svg width="326" height="56" fill="none" xmlns="http://www.w3.org/2000/svg"><path d="M30.253 0v30.947H19.586v-11.79H11.3v11.79H.633V0H11.3v10.316h8.286V0h10.667zM95 7.368H84.61v23.58h-8.907V7.367h-10.39L65.425 0H95v7.368zM15.062 51.25c-.499 1.504-1.371 2.675-2.617 3.516C11.215 55.589 9.738 56 8.01 56c-1.602 0-3.008-.367-4.219-1.1-1.21-.751-2.145-1.816-2.804-3.193C.33 50.33 0 48.72 0 46.877c0-1.842.33-3.452.988-4.83.659-1.376 1.593-2.432 2.804-3.165 1.21-.751 2.608-1.127 4.193-1.127 3.525 0 5.804 1.458 6.836 4.373l-1.308.617c-.41-1.252-1.069-2.19-1.976-2.817-.89-.626-2.048-.939-3.472-.939-1.318 0-2.484.322-3.498.966-.997.626-1.772 1.538-2.324 2.737-.552 1.18-.828 2.576-.828 4.185 0 1.61.267 3.014.802 4.213.551 1.18 1.317 2.093 2.296 2.737.997.626 2.163.939 3.498.939 1.425 0 2.635-.349 3.632-1.047.997-.697 1.692-1.69 2.083-2.978l1.336.51zm47.903-5.07l-3.525 3.595V56h-1.336V36.842h1.336v11.109l9.667-11.109h1.762l-6.97 8.345L71.056 56h-1.629l-6.462-9.82zM75.739 56h-1.335V36.842h1.335V56zm17.777-1.474V56H81.64V36.842h11.875v1.474h-10.39v7.368h8.906v1.474h-8.906v7.368h10.39z" fill="#fff"/><path fill-rule="evenodd" clip-rule="evenodd" d="M48.242 30.947c8.608 0 15.586-6.927 15.586-15.473C63.828 6.928 56.85 0 48.242 0S32.656 6.928 32.656 15.474s6.978 15.473 15.586 15.473zm0-10.315c2.87 0 5.196-2.31 5.196-5.158 0-2.849-2.327-5.158-5.196-5.158-2.87 0-5.195 2.31-5.195 5.158 0 2.848 2.326 5.158 5.195 5.158zM26.719 56c4.918 0 8.906-3.959 8.906-8.842 0-4.883-3.988-8.842-8.906-8.842-4.919 0-8.907 3.959-8.907 8.842C17.813 52.04 21.8 56 26.72 56zm0-1.474c4.099 0 7.422-3.299 7.422-7.368 0-4.07-3.323-7.369-7.422-7.369-4.1 0-7.422 3.3-7.422 7.369 0 4.07 3.323 7.368 7.422 7.368zM46.016 56c4.918 0 8.906-3.959 8.906-8.842 0-4.883-3.988-8.842-8.906-8.842-4.92 0-8.907 3.959-8.907 8.842 0 4.883 3.988 8.842 8.907 8.842zm0-1.474c4.099 0 7.422-3.299 7.422-7.368 0-4.07-3.323-7.369-7.422-7.369-4.1 0-7.422 3.3-7.422 7.369 0 4.07 3.323 7.368 7.422 7.368z" fill="#fff"/><path d="M125.687 11.844v9.996h3.458c1.521-.037 2.664-.462 3.43-1.274.774-.821 1.162-2.063 1.162-3.724s-.388-2.898-1.162-3.71c-.766-.821-1.909-1.25-3.43-1.288h-3.458zm.952 9.184v-8.372h2.03c.718 0 1.334.08 1.848.238.522.15.952.392 1.288.728.336.336.583.77.742 1.302.158.532.238 1.171.238 1.918 0 .747-.08 1.386-.238 1.918-.159.532-.406.966-.742 1.302-.336.336-.766.583-1.288.742-.514.15-1.13.224-1.848.224h-2.03zm9.632-9.184v9.996h6.972v-.812h-6.02V17.08h5.572v-.812h-5.572v-3.612h5.95v-.812h-6.902zm9.299 0v9.996h6.552v-.812h-5.6v-9.184h-.952zm8.589 0v9.996h.952v-9.996h-.952zm2.942 0l3.696 9.996h1.106l3.71-9.996h-1.008l-3.22 8.946h-.028l-3.248-8.946h-1.008zm10.39 0v9.996h6.972v-.812h-6.02V17.08h5.572v-.812h-5.572v-3.612h5.95v-.812h-6.902zm10.251 4.746v-3.934h3.556c.728 0 1.27.177 1.624.532.355.355.532.84.532 1.456 0 .308-.06.583-.182.826a1.823 1.823 0 0 1-.462.602 2.15 2.15 0 0 1-.686.392 2.678 2.678 0 0 1-.826.126h-3.556zm-.952-4.746v9.996h.952v-4.438h3.612c.448-.019.798.056 1.05.224.262.168.458.392.588.672.14.27.229.583.266.938.047.345.08.695.098 1.05a39.476 39.476 0 0 1 .056.798c.019.14.042.28.07.42.038.13.084.243.14.336h1.05a1.433 1.433 0 0 1-.252-.504 5.467 5.467 0 0 1-.126-.7c-.028-.252-.046-.5-.056-.742a28.66 28.66 0 0 0-.028-.616 4.277 4.277 0 0 0-.126-.826 1.822 1.822 0 0 0-.294-.686 1.488 1.488 0 0 0-.518-.476 2.129 2.129 0 0 0-.812-.266v-.028c.644-.13 1.13-.43 1.456-.896.327-.467.49-1.017.49-1.652 0-.448-.084-.835-.252-1.162a2.09 2.09 0 0 0-.658-.812 2.667 2.667 0 0 0-.966-.476 4.263 4.263 0 0 0-1.162-.154h-4.578zm10.408 0v9.996h.952v-9.996h-.952zm4.02 0v9.996h.952v-8.456h.028l5.824 8.456h1.064v-9.996h-.952V20.3h-.028l-5.824-8.456h-1.064zm19.411 9.996v-5.082h-4.242v.812h3.402a4.395 4.395 0 0 1-.21 1.47 3.186 3.186 0 0 1-.672 1.162 3.14 3.14 0 0 1-1.106.77c-.429.177-.919.266-1.47.266-.663 0-1.232-.126-1.708-.378a3.484 3.484 0 0 1-1.176-.994 4.583 4.583 0 0 1-.672-1.414 6.301 6.301 0 0 1 0-3.22 4.41 4.41 0 0 1 .672-1.4c.308-.42.7-.756 1.176-1.008s1.045-.378 1.708-.378c.476 0 .905.08 1.288.238.383.15.709.345.98.588.28.243.499.513.658.812.168.29.266.579.294.868h.952a4.005 4.005 0 0 0-.518-1.442 3.799 3.799 0 0 0-.924-1.036 3.822 3.822 0 0 0-1.246-.63 5.138 5.138 0 0 0-1.484-.21c-.784 0-1.475.145-2.072.434a4.158 4.158 0 0 0-1.47 1.148 4.85 4.85 0 0 0-.882 1.652 6.562 6.562 0 0 0-.294 1.974c0 .69.098 1.349.294 1.974a4.85 4.85 0 0 0 .882 1.652 4.38 4.38 0 0 0 1.47 1.148c.597.28 1.288.42 2.072.42.364 0 .714-.037 1.05-.112.345-.075.667-.191.966-.35a3.438 3.438 0 0 0 1.442-1.554h.028l.126 1.82h.686zm8.181-3.29h-.952c-.028.616.052 1.143.238 1.582.196.439.472.798.826 1.078.355.28.784.49 1.288.63.504.13 1.05.196 1.638.196.588 0 1.092-.056 1.512-.168.42-.103.77-.238 1.05-.406.29-.177.514-.373.672-.588a2.68 2.68 0 0 0 .378-.63c.094-.215.15-.415.168-.602.028-.187.042-.336.042-.448 0-.41-.07-.76-.21-1.05a1.947 1.947 0 0 0-.56-.728 2.91 2.91 0 0 0-.826-.504 6.223 6.223 0 0 0-.994-.35l-2.436-.602a3.932 3.932 0 0 1-.588-.182 1.772 1.772 0 0 1-.476-.294 1.392 1.392 0 0 1-.336-.434 1.589 1.589 0 0 1-.112-.616c0-.373.07-.686.21-.938a1.7 1.7 0 0 1 .546-.602c.234-.159.5-.27.798-.336.308-.075.626-.112.952-.112.355 0 .691.051 1.008.154.327.093.612.238.854.434.252.187.453.425.602.714.159.28.248.611.266.994h.952c0-.513-.102-.961-.308-1.344a2.823 2.823 0 0 0-.798-.98 3.482 3.482 0 0 0-1.176-.588 5.026 5.026 0 0 0-1.414-.196c-.7 0-1.274.103-1.722.308-.448.196-.802.439-1.064.728-.252.29-.424.597-.518.924-.093.327-.14.611-.14.854 0 .392.061.723.182.994.131.27.299.5.504.686.206.187.444.336.714.448a7.1 7.1 0 0 0 .854.28l2.226.546c.234.056.472.13.714.224.243.084.462.196.658.336.206.14.369.313.49.518.131.205.196.448.196.728 0 .364-.088.677-.266.938a2.276 2.276 0 0 1-.672.63 2.986 2.986 0 0 1-.854.35 3.636 3.636 0 0 1-.854.112c-.457 0-.886-.042-1.288-.126a3.059 3.059 0 0 1-1.05-.448 2.138 2.138 0 0 1-.686-.826c-.168-.345-.247-.775-.238-1.288zm9.791-1.708c0-.55.07-1.087.21-1.61a4.41 4.41 0 0 1 .672-1.4c.308-.42.7-.756 1.176-1.008s1.045-.378 1.708-.378 1.227.126 1.694.378c.476.252.863.588 1.162 1.008.308.41.532.877.672 1.4a5.85 5.85 0 0 1 .224 1.61c0 .541-.075 1.078-.224 1.61-.14.523-.364.994-.672 1.414a3.35 3.35 0 0 1-1.162.994c-.467.252-1.031.378-1.694.378s-1.232-.126-1.708-.378a3.484 3.484 0 0 1-1.176-.994 4.583 4.583 0 0 1-.672-1.414 6.301 6.301 0 0 1-.21-1.61zm-.952 0c0 .69.098 1.349.294 1.974a4.85 4.85 0 0 0 .882 1.652 4.38 4.38 0 0 0 1.47 1.148c.597.28 1.288.42 2.072.42s1.47-.14 2.058-.42a4.38 4.38 0 0 0 1.47-1.148 4.85 4.85 0 0 0 .882-1.652 6.561 6.561 0 0 0 .294-1.974c0-.69-.098-1.349-.294-1.974a4.85 4.85 0 0 0-.882-1.652 4.158 4.158 0 0 0-1.47-1.148c-.588-.29-1.274-.434-2.058-.434-.784 0-1.475.145-2.072.434a4.158 4.158 0 0 0-1.47 1.148 4.85 4.85 0 0 0-.882 1.652 6.562 6.562 0 0 0-.294 1.974zm13.281-4.998l3.318 8.764 3.444-8.764h1.4v9.996h-.952v-8.638h-.028l-3.416 8.638h-.896l-3.29-8.638h-.028v8.638h-.952v-9.996h1.4zm11.126 0v9.996h6.972v-.812h-6.02V17.08h5.572v-.812h-5.572v-3.612h5.95v-.812h-6.902zm8.235 0v.812h3.472v9.184h.952v-9.184h3.486v-.812h-7.91zm9.843 0v9.996h.952v-4.844h5.936v4.844h.952v-9.996h-.952v4.34h-5.936v-4.34h-.952zm10.927 0v9.996h.952v-9.996h-.952zm4.02 0v9.996h.952v-8.456h.028l5.824 8.456h1.064v-9.996h-.952V20.3h-.028l-5.824-8.456h-1.064zm19.411 9.996v-5.082h-4.242v.812h3.402c.01.532-.06 1.022-.21 1.47a3.186 3.186 0 0 1-.672 1.162 3.131 3.131 0 0 1-1.106.77c-.429.177-.919.266-1.47.266-.662 0-1.232-.126-1.708-.378a3.484 3.484 0 0 1-1.176-.994 4.629 4.629 0 0 1-.672-1.414 6.301 6.301 0 0 1 0-3.22c.15-.523.374-.99.672-1.4.308-.42.7-.756 1.176-1.008s1.046-.378 1.708-.378c.476 0 .906.08 1.288.238.383.15.71.345.98.588.28.243.5.513.658.812.168.29.266.579.294.868h.952a4.005 4.005 0 0 0-.518-1.442 3.799 3.799 0 0 0-.924-1.036 3.822 3.822 0 0 0-1.246-.63 5.133 5.133 0 0 0-1.484-.21c-.784 0-1.474.145-2.072.434a4.158 4.158 0 0 0-1.47 1.148 4.85 4.85 0 0 0-.882 1.652 6.562 6.562 0 0 0-.294 1.974c0 .69.098 1.349.294 1.974a4.85 4.85 0 0 0 .882 1.652 4.38 4.38 0 0 0 1.47 1.148c.598.28 1.288.42 2.072.42.364 0 .714-.037 1.05-.112.346-.075.668-.191.966-.35a3.438 3.438 0 0 0 1.442-1.554h.028l.126 1.82h.686zM121.069 36.55h-.952c-.028.616.052 1.143.238 1.582.196.439.472.798.826 1.078.355.28.784.49 1.288.63.504.13 1.05.196 1.638.196.588 0 1.092-.056 1.512-.168.42-.103.77-.238 1.05-.406.29-.177.514-.373.672-.588a2.68 2.68 0 0 0 .378-.63c.094-.215.15-.415.168-.602.028-.187.042-.336.042-.448 0-.41-.07-.76-.21-1.05a1.947 1.947 0 0 0-.56-.728 2.91 2.91 0 0 0-.826-.504 6.223 6.223 0 0 0-.994-.35l-2.436-.602a3.932 3.932 0 0 1-.588-.182 1.772 1.772 0 0 1-.476-.294 1.392 1.392 0 0 1-.336-.434 1.589 1.589 0 0 1-.112-.616c0-.373.07-.686.21-.938a1.7 1.7 0 0 1 .546-.602c.234-.159.5-.27.798-.336.308-.075.626-.112.952-.112.355 0 .691.051 1.008.154.327.093.612.238.854.434.252.187.453.425.602.714.159.28.248.611.266.994h.952c0-.513-.102-.961-.308-1.344a2.823 2.823 0 0 0-.798-.98 3.482 3.482 0 0 0-1.176-.588 5.026 5.026 0 0 0-1.414-.196c-.7 0-1.274.103-1.722.308-.448.196-.802.439-1.064.728-.252.29-.424.597-.518.924-.093.327-.14.611-.14.854 0 .392.061.723.182.994.131.27.299.5.504.686.206.187.444.336.714.448a7.1 7.1 0 0 0 .854.28l2.226.546c.234.056.472.13.714.224.243.084.462.196.658.336.206.14.369.313.49.518.131.205.196.448.196.728 0 .364-.088.677-.266.938a2.276 2.276 0 0 1-.672.63 2.986 2.986 0 0 1-.854.35 3.636 3.636 0 0 1-.854.112c-.457 0-.886-.042-1.288-.126a3.059 3.059 0 0 1-1.05-.448 2.138 2.138 0 0 1-.686-.826c-.168-.345-.247-.775-.238-1.288zm8.363-6.706l2.772 9.996h1.036l2.52-8.946h.028l2.534 8.946h1.008l2.758-9.996h-.952l-2.282 8.75h-.028l-2.45-8.75h-1.19l-2.436 8.75h-.028l-2.268-8.75h-1.022zm14.709 0v9.996h6.972v-.812h-6.02V35.08h5.572v-.812h-5.572v-3.612h5.95v-.812h-6.902zm9.299 0v9.996h6.972v-.812h-6.02V35.08h5.572v-.812h-5.572v-3.612h5.95v-.812h-6.902zm8.234 0v.812h3.472v9.184h.952v-9.184h3.486v-.812h-7.91zm14.74 0v9.996h.952v-4.76h4.788v-.812h-4.788v-3.612h5.39v-.812h-6.342zm8.94 4.998c0-.55.07-1.087.21-1.61a4.41 4.41 0 0 1 .672-1.4c.308-.42.7-.756 1.176-1.008s1.045-.378 1.708-.378c.662 0 1.227.126 1.694.378.476.252.863.588 1.162 1.008.308.41.532.877.672 1.4a5.85 5.85 0 0 1 .224 1.61c0 .541-.075 1.078-.224 1.61-.14.523-.364.994-.672 1.414a3.35 3.35 0 0 1-1.162.994c-.467.252-1.032.378-1.694.378-.663 0-1.232-.126-1.708-.378a3.484 3.484 0 0 1-1.176-.994 4.583 4.583 0 0 1-.672-1.414 6.301 6.301 0 0 1-.21-1.61zm-.952 0c0 .69.098 1.349.294 1.974a4.85 4.85 0 0 0 .882 1.652 4.38 4.38 0 0 0 1.47 1.148c.597.28 1.288.42 2.072.42s1.47-.14 2.058-.42a4.38 4.38 0 0 0 1.47-1.148 4.85 4.85 0 0 0 .882-1.652 6.561 6.561 0 0 0 .294-1.974c0-.69-.098-1.349-.294-1.974a4.85 4.85 0 0 0-.882-1.652 4.158 4.158 0 0 0-1.47-1.148c-.588-.29-1.274-.434-2.058-.434-.784 0-1.475.145-2.072.434a4.158 4.158 0 0 0-1.47 1.148 4.85 4.85 0 0 0-.882 1.652 6.562 6.562 0 0 0-.294 1.974zm12.861-.252v-3.934h3.556c.728 0 1.269.177 1.624.532.354.355.532.84.532 1.456 0 .308-.061.583-.182.826a1.823 1.823 0 0 1-.462.602 2.16 2.16 0 0 1-.686.392 2.687 2.687 0 0 1-.826.126h-3.556zm-.952-4.746v9.996h.952v-4.438h3.612c.448-.019.798.056 1.05.224.261.168.457.392.588.672.14.27.228.583.266.938.046.345.079.695.098 1.05.009.103.018.224.028.364l.028.434c.018.14.042.28.07.42.037.13.084.243.14.336h1.05a1.4 1.4 0 0 1-.252-.504 5.467 5.467 0 0 1-.126-.7c-.028-.252-.047-.5-.056-.742a52.63 52.63 0 0 0-.028-.616 4.437 4.437 0 0 0-.126-.826 1.822 1.822 0 0 0-.294-.686 1.506 1.506 0 0 0-.518-.476 2.14 2.14 0 0 0-.812-.266v-.028c.644-.13 1.129-.43 1.456-.896.326-.467.49-1.017.49-1.652 0-.448-.084-.835-.252-1.162a2.098 2.098 0 0 0-.658-.812 2.683 2.683 0 0 0-.966-.476 4.269 4.269 0 0 0-1.162-.154h-4.578zm18.02 5.88v4.116h.952v-4.116l3.948-5.88h-1.134l-3.276 5.068-3.29-5.068h-1.12l3.92 5.88zm7.193-.882c0-.55.07-1.087.21-1.61a4.41 4.41 0 0 1 .672-1.4c.308-.42.7-.756 1.176-1.008s1.045-.378 1.708-.378c.662 0 1.227.126 1.694.378.476.252.863.588 1.162 1.008.308.41.532.877.672 1.4a5.85 5.85 0 0 1 .224 1.61c0 .541-.075 1.078-.224 1.61-.14.523-.364.994-.672 1.414a3.35 3.35 0 0 1-1.162.994c-.467.252-1.032.378-1.694.378-.663 0-1.232-.126-1.708-.378a3.484 3.484 0 0 1-1.176-.994 4.583 4.583 0 0 1-.672-1.414 6.301 6.301 0 0 1-.21-1.61zm-.952 0c0 .69.098 1.349.294 1.974a4.85 4.85 0 0 0 .882 1.652 4.38 4.38 0 0 0 1.47 1.148c.597.28 1.288.42 2.072.42s1.47-.14 2.058-.42a4.38 4.38 0 0 0 1.47-1.148 4.85 4.85 0 0 0 .882-1.652 6.561 6.561 0 0 0 .294-1.974c0-.69-.098-1.349-.294-1.974a4.85 4.85 0 0 0-.882-1.652 4.158 4.158 0 0 0-1.47-1.148c-.588-.29-1.274-.434-2.058-.434-.784 0-1.475.145-2.072.434a4.158 4.158 0 0 0-1.47 1.148 4.85 4.85 0 0 0-.882 1.652 6.562 6.562 0 0 0-.294 1.974zm11.811-4.998v6.398c0 .513.07 1.003.21 1.47.149.457.378.859.686 1.204.317.345.718.62 1.204.826.494.196 1.087.294 1.778.294.7 0 1.292-.098 1.778-.294.494-.205.896-.48 1.204-.826.317-.345.546-.747.686-1.204.149-.467.224-.957.224-1.47v-6.398h-.952v6.188c0 .579-.066 1.073-.196 1.484a2.54 2.54 0 0 1-.574.994c-.252.252-.56.439-.924.56a4.24 4.24 0 0 1-1.246.168c-.458 0-.868-.056-1.232-.168a2.322 2.322 0 0 1-.924-.56 2.529 2.529 0 0 1-.574-.994c-.131-.41-.196-.905-.196-1.484v-6.188h-.952zm11.634 4.746v-3.934h3.556c.728 0 1.269.177 1.624.532.354.355.532.84.532 1.456 0 .308-.061.583-.182.826a1.823 1.823 0 0 1-.462.602 2.16 2.16 0 0 1-.686.392 2.687 2.687 0 0 1-.826.126h-3.556zm-.952-4.746v9.996h.952v-4.438h3.612c.448-.019.798.056 1.05.224.261.168.457.392.588.672.14.27.228.583.266.938.046.345.079.695.098 1.05.009.103.018.224.028.364l.028.434c.018.14.042.28.07.42.037.13.084.243.14.336h1.05a1.4 1.4 0 0 1-.252-.504 5.467 5.467 0 0 1-.126-.7c-.028-.252-.047-.5-.056-.742a52.63 52.63 0 0 0-.028-.616 4.437 4.437 0 0 0-.126-.826 1.822 1.822 0 0 0-.294-.686 1.506 1.506 0 0 0-.518-.476 2.14 2.14 0 0 0-.812-.266v-.028c.644-.13 1.129-.43 1.456-.896.326-.467.49-1.017.49-1.652 0-.448-.084-.835-.252-1.162a2.098 2.098 0 0 0-.658-.812 2.683 2.683 0 0 0-.966-.476 4.269 4.269 0 0 0-1.162-.154h-4.578zm16.606 0l3.318 8.764 3.444-8.764h1.4v9.996h-.952v-8.638h-.028l-3.416 8.638h-.896l-3.29-8.638h-.028v8.638h-.952v-9.996h1.4zm11.546 4.998c0-.55.07-1.087.21-1.61a4.41 4.41 0 0 1 .672-1.4c.308-.42.7-.756 1.176-1.008s1.045-.378 1.708-.378 1.227.126 1.694.378c.476.252.863.588 1.162 1.008.308.41.532.877.672 1.4a5.85 5.85 0 0 1 .224 1.61c0 .541-.075 1.078-.224 1.61-.14.523-.364.994-.672 1.414a3.35 3.35 0 0 1-1.162.994c-.467.252-1.031.378-1.694.378s-1.232-.126-1.708-.378a3.484 3.484 0 0 1-1.176-.994 4.583 4.583 0 0 1-.672-1.414 6.301 6.301 0 0 1-.21-1.61zm-.952 0c0 .69.098 1.349.294 1.974a4.85 4.85 0 0 0 .882 1.652 4.38 4.38 0 0 0 1.47 1.148c.597.28 1.288.42 2.072.42s1.47-.14 2.058-.42a4.38 4.38 0 0 0 1.47-1.148 4.85 4.85 0 0 0 .882-1.652 6.561 6.561 0 0 0 .294-1.974c0-.69-.098-1.349-.294-1.974a4.85 4.85 0 0 0-.882-1.652 4.158 4.158 0 0 0-1.47-1.148c-.588-.29-1.274-.434-2.058-.434-.784 0-1.475.145-2.072.434a4.158 4.158 0 0 0-1.47 1.148 4.85 4.85 0 0 0-.882 1.652 6.562 6.562 0 0 0-.294 1.974zm11.811-4.998v6.398c0 .513.07 1.003.21 1.47.149.457.378.859.686 1.204.317.345.719.62 1.204.826.495.196 1.087.294 1.778.294.7 0 1.293-.098 1.778-.294.495-.205.896-.48 1.204-.826.317-.345.546-.747.686-1.204.149-.467.224-.957.224-1.47v-6.398h-.952v6.188c0 .579-.065 1.073-.196 1.484a2.54 2.54 0 0 1-.574.994c-.252.252-.56.439-.924.56a4.236 4.236 0 0 1-1.246.168c-.457 0-.868-.056-1.232-.168a2.322 2.322 0 0 1-.924-.56 2.54 2.54 0 0 1-.574-.994c-.131-.41-.196-.905-.196-1.484v-6.188h-.952zm9.618 0v.812h3.472v9.184h.952v-9.184h3.486v-.812h-7.91zm9.843 0v9.996h.952v-4.844h5.936v4.844h.952v-9.996h-.952v4.34h-5.936v-4.34h-.952zM105 54.88h219.884V56H105zM105 0h219.884v1.12H105z" fill="#fff"/></svg>