<svg width="1166" height="220" version="1.1" xmlns="http://www.w3.org/2000/svg"><g id="Page-1" stroke="none" stroke-width="1" fill="#FFFCFC" fill-rule="nonzero"><path d="M50.865 118V78h25.649v40h40.305V2.885H76.514v38.78H50.865V2.884H10.56V118h40.305zm144.275 1.832c8.753 0 16.997-1.349 24.733-4.046 7.735-2.697 14.529-6.616 20.381-11.755 5.853-5.14 10.408-11.4 13.665-18.78 3.257-7.378 4.885-15.546 4.885-24.503 0-8.855-1.628-16.972-4.885-24.351-3.257-7.38-7.838-13.715-13.74-19.008-5.904-5.292-12.724-9.338-20.459-12.137-7.735-2.8-15.929-4.199-24.58-4.199-8.651 0-16.87 1.4-24.657 4.199-7.786 2.799-14.58 6.845-20.381 12.137-5.802 5.293-10.356 11.629-13.664 19.008-3.308 7.38-4.962 15.496-4.962 24.351 0 8.957 1.628 17.125 4.885 24.504 3.257 7.379 7.812 13.639 13.664 18.779 5.853 5.14 12.647 9.058 20.382 11.755 7.735 2.697 15.98 4.046 24.733 4.046zm0-36.336c-6.31 0-11.476-2.06-15.496-6.183-4.02-4.122-6.03-9.44-6.03-15.954 0-6.31 1.984-11.629 5.953-15.954 3.97-4.326 9.16-6.489 15.573-6.489 6.412 0 11.603 2.163 15.572 6.489 3.97 4.325 5.955 9.643 5.955 15.954 0 6.514-2.01 11.832-6.03 15.954-4.021 4.122-9.187 6.183-15.497 6.183zM330.56 118V39.221l23.053 1.07V2.884h-87.939V40.29l23.054-1.069V118h41.832z" id="HOT"/><path d="M43.051 216.53c4.243 0 8.317-.545 12.22-1.637 3.795-1.11 7.313-2.65 10.554-4.62l.107-7.492c-7.197 5.586-14.717 8.379-22.558 8.379-8.952 0-16.176-2.789-21.673-8.366-5.496-5.577-8.244-13.172-8.244-22.787 0-6.23 1.244-11.727 3.732-16.489 2.417-4.69 5.9-8.316 10.447-10.876 4.548-2.579 9.9-3.868 16.06-3.868 5.281 0 9.721.887 13.32 2.66 3.527 1.825 6.607 3.875 9.238 6.149l.215-7.036c-7.18-4.995-14.726-7.493-22.639-7.493-8.594 0-15.71 1.728-21.35 5.183-5.64 3.438-9.713 7.95-12.22 13.535-2.56 5.64-3.84 11.835-3.84 18.584 0 9.167 1.979 16.463 5.935 21.888 3.886 5.424 8.576 9.166 14.073 11.225 5.514 2.041 11.055 3.062 16.623 3.062zm67.864.242c6.893 0 13.195-1.503 18.906-4.511 5.73-2.936 10.277-7.198 13.643-12.783 3.384-5.568 5.076-11.978 5.076-19.229 0-5.067-.922-9.91-2.767-14.529-1.826-4.547-4.386-8.504-7.68-11.87-3.312-3.384-7.206-6.024-11.682-7.922-4.458-1.916-9.48-2.874-15.066-2.874-6.374 0-12.497 1.504-18.37 4.512-5.854 3.008-10.58 7.26-14.18 12.756-3.598 5.586-5.397 12.04-5.397 19.363 0 7.842 1.728 14.556 5.183 20.142 3.438 5.568 8.057 9.784 13.857 12.649 5.712 2.864 11.87 4.296 18.477 4.296zm0-5.505c-5.872 0-11.154-1.468-15.845-4.404-4.762-2.865-8.428-6.678-10.997-11.44-2.57-4.763-3.854-9.937-3.854-15.523 0-6.66 1.576-12.38 4.727-17.16 3.15-4.691 7.152-8.21 12.004-10.555 4.763-2.274 9.49-3.41 14.18-3.41 6.535 0 12.112 1.575 16.73 4.726 4.62 3.151 8.102 7.152 10.448 12.004 2.273 4.834 3.41 9.785 3.41 14.851 0 5.855-1.36 11.092-4.082 15.71-2.703 4.71-6.405 8.42-11.105 11.132-4.7 2.713-9.905 4.07-15.616 4.07zm82.715 5.505c6.893 0 13.195-1.503 18.906-4.511 5.73-2.936 10.277-7.198 13.643-12.783 3.383-5.568 5.075-11.978 5.075-19.229 0-5.067-.922-9.91-2.766-14.529-1.826-4.547-4.386-8.504-7.68-11.87-3.313-3.384-7.207-6.024-11.683-7.922-4.458-1.916-9.48-2.874-15.065-2.874-6.374 0-12.497 1.504-18.37 4.512-5.854 3.008-10.58 7.26-14.18 12.756-3.598 5.586-5.397 12.04-5.397 19.363 0 7.842 1.727 14.556 5.183 20.142 3.437 5.568 8.057 9.784 13.857 12.649 5.712 2.864 11.87 4.296 18.477 4.296zm0-5.505c-5.873 0-11.154-1.468-15.845-4.404-4.762-2.865-8.428-6.678-10.997-11.44-2.57-4.763-3.854-9.937-3.854-15.523 0-6.66 1.576-12.38 4.727-17.16 3.15-4.691 7.152-8.21 12.004-10.555 4.762-2.274 9.489-3.41 14.18-3.41 6.535 0 12.112 1.575 16.73 4.726 4.62 3.151 8.102 7.152 10.447 12.004 2.274 4.834 3.411 9.785 3.411 14.851 0 5.855-1.36 11.092-4.082 15.71-2.703 4.71-6.405 8.42-11.105 11.132-4.7 2.713-9.905 4.07-15.616 4.07zM248.845 215v-35.637L281.286 215h9.238l-34.965-36.63 33.327-33.758h-8.352l-31.69 32.978v-32.978h-6.498V215h6.499zm56.1 0v-70.388h-6.498V215h6.499zm44.205 0v-5.935h-28.386V178.69h28.386v-6.042h-28.386v-21.995h28.386v-6.042h-34.858V215h34.858z" id="COOKIE"/><path d="M455.5 174.376c3.212 0 5.825-.673 7.84-2.021 1.97-1.3 3.41-2.982 4.325-5.045a15.314 15.314 0 0 0 1.37-6.398c0-4.57-2.038-8.245-6.116-11.022a35.373 35.373 0 0 0-3.323-2.021 528.049 528.049 0 0 0-5.748-3.024c-3.41-1.922-5.115-4.441-5.115-7.558 0-2.403.72-4.248 2.162-5.538 1.43-1.3 3.152-1.95 5.168-1.95 3.27 0 5.695 1.37 7.277 4.113l3.252-1.952c-1.546-2.636-3.11-4.268-4.693-4.895-1.582-.627-3.404-.94-5.467-.94-3.644 0-6.55 1.007-8.719 3.023-2.203 2.062-3.304 4.728-3.304 7.998 0 2.156.574 3.978 1.722 5.467 1.16 1.535 2.696 3 4.606 4.394 1.254.867 3.299 2.116 6.135 3.744 2.777 1.63 4.453 2.707 5.027 3.235 1.922 1.594 2.883 3.996 2.883 7.207 0 3.164-.885 5.566-2.654 7.207-1.782 1.629-4.014 2.443-6.698 2.443-4.664 0-7.763-2.426-9.299-7.277l-3.673 1.951c1.687 3.691 3.632 6.088 5.836 7.19 2.156 1.113 4.558 1.67 7.207 1.67zm55.225.493l15.416-47.725h-4.324l-11.092 36.492-12.673-38.232-12.235 38.531-11.513-36.791h-4.465l15.978 47.725 12.235-38.953 12.673 38.953zm41.497-1.653v-3.884h-18.58V149.45h18.58v-3.955h-18.58v-14.397h18.58v-3.955h-22.817v46.072h22.817zm27.803 0v-3.884h-18.58V149.45h18.58v-3.955h-18.58v-14.397h18.58v-3.955h-22.817v46.072h22.817zm19.102 0V131.1h12.656v-3.955h-29.514v3.955h12.604v42.117h4.254zm40.84 0v-46.072h-4.254v46.072h4.254zm41.338 1.301v-47.373h-3.885v36.72l-32.625-38.671v48.023h3.973v-37.23l32.537 38.531zm42.51-1.3v-21.165l15.117-24.908h-4.746l-12.375 21.164-12.392-21.164h-5.045l15.275 24.908v21.164h4.166zm40.776 1.16c4.512 0 8.637-.985 12.375-2.954 3.75-1.922 6.726-4.71 8.93-8.367 2.214-3.644 3.322-7.84 3.322-12.586 0-3.316-.604-6.486-1.81-9.51-1.196-2.976-2.872-5.566-5.028-7.77-2.168-2.214-4.717-3.942-7.647-5.185-2.918-1.254-6.205-1.88-9.86-1.88-4.173 0-8.18.984-12.024 2.953-3.832 1.968-6.926 4.752-9.282 8.35-2.355 3.655-3.533 7.88-3.533 12.673 0 5.133 1.131 9.527 3.393 13.184 2.25 3.644 5.273 6.404 9.07 8.279 3.738 1.875 7.77 2.812 12.094 2.812zm0-3.604c-3.844 0-7.301-.961-10.371-2.883-3.117-1.875-5.517-4.371-7.199-7.488-1.681-3.117-2.522-6.504-2.522-10.16 0-4.36 1.031-8.104 3.094-11.233 2.062-3.07 4.681-5.373 7.857-6.908 3.117-1.488 6.211-2.232 9.281-2.232 4.278 0 7.928 1.03 10.952 3.093 3.023 2.063 5.302 4.682 6.838 7.858 1.488 3.164 2.232 6.404 2.232 9.72 0 3.833-.89 7.26-2.672 10.284a19.453 19.453 0 0 1-7.268 7.286c-3.077 1.775-6.484 2.663-10.222 2.663zm46.453 3.603c5.766 0 9.99-1.464 12.674-4.394 2.684-2.93 4.025-7.611 4.025-14.045v-28.793h-4.166v30.164c0 4.559-.937 7.916-2.812 10.072-1.922 2.215-5.162 3.323-9.72 3.323-4.126 0-7.243-1.202-9.352-3.604-2.168-2.402-3.252-5.666-3.252-9.79v-30.165h-4.166v28.793c0 5.86 1.388 10.395 4.166 13.605 2.789 3.223 6.99 4.834 12.603 4.834zm27.17-1.16v-21.884h2.444l16.207 21.884h5.097l-16.629-21.884c3.024-.2 5.784-1.184 8.28-2.954 2.449-1.78 3.674-4.664 3.674-8.648 0-8.39-4.946-12.586-14.836-12.586h-8.49v46.072h4.253zm3.235-25.347h-3.235V130.8h3.305c3.984 0 6.867.65 8.648 1.951 1.77 1.348 2.655 3.604 2.655 6.768 0 3.504-1.008 5.76-3.024 6.768-2.015 1.054-4.798 1.582-8.35 1.582zm67.998 27l16.489-36.791 3.375 35.138h4.324l-5.977-48.023-18.281 41.045-17.649-41.045-6.257 48.023h4.324l3.516-35.138 16.136 36.79zm50.918-.493c4.512 0 8.637-.984 12.375-2.953 3.75-1.922 6.727-4.71 8.93-8.367 2.215-3.644 3.322-7.84 3.322-12.586 0-3.316-.603-6.486-1.81-9.51-1.195-2.976-2.871-5.566-5.027-7.77-2.168-2.214-4.717-3.942-7.647-5.185-2.918-1.254-6.205-1.88-9.861-1.88-4.172 0-8.18.984-12.024 2.953-3.832 1.968-6.926 4.752-9.281 8.35-2.355 3.655-3.533 7.88-3.533 12.673 0 5.133 1.13 9.527 3.392 13.184 2.25 3.644 5.274 6.404 9.07 8.279 3.739 1.875 7.77 2.812 12.094 2.812zm0-3.603c-3.843 0-7.3-.961-10.37-2.883-3.118-1.875-5.517-4.371-7.199-7.488-1.682-3.117-2.522-6.504-2.522-10.16 0-4.36 1.03-8.104 3.093-11.233 2.063-3.07 4.682-5.373 7.858-6.908 3.117-1.488 6.21-2.232 9.281-2.232 4.277 0 7.928 1.03 10.951 3.093 3.024 2.063 5.303 4.682 6.838 7.858 1.488 3.164 2.233 6.404 2.233 9.72 0 3.833-.891 7.26-2.672 10.284a19.453 19.453 0 0 1-7.269 7.286c-3.076 1.775-6.483 2.663-10.222 2.663zm46.454 3.603c5.765 0 9.99-1.464 12.674-4.394 2.683-2.93 4.025-7.611 4.025-14.045v-28.793h-4.166v30.164c0 4.559-.938 7.916-2.813 10.072-1.921 2.215-5.162 3.323-9.72 3.323-4.125 0-7.242-1.202-9.352-3.604-2.168-2.402-3.252-5.666-3.252-9.79v-30.165h-4.166v28.793c0 5.86 1.389 10.395 4.166 13.605 2.79 3.223 6.99 4.834 12.604 4.834zm36.75-1.16V131.1h12.656v-3.955h-29.513v3.955h12.603v42.117h4.254zm20.385 0v-23.765h24.979v23.765h4.253v-46.072h-4.253v18.72h-24.979v-18.72h-4.254v46.072h4.254z" id="SWEETINYOURMOUTH"/><path d="M449.19 101V80.416h4.325c4.699 0 8.513-.914 11.443-2.742 2.93-1.781 4.395-5.192 4.395-10.23 0-4.419-1.465-7.612-4.395-9.58-2.976-1.958-6.984-2.936-12.023-2.936h-7.998V101h4.254zm4.465-24.328h-4.464v-18h4.095c7.688 0 11.532 3.023 11.532 9.07 0 3.211-.844 5.49-2.532 6.838-1.676 1.395-4.552 2.092-8.63 2.092zm41.789 25.488c5.765 0 9.99-1.465 12.674-4.394 2.683-2.93 4.025-7.612 4.025-14.045V54.928h-4.166v30.164c0 4.558-.937 7.916-2.812 10.072-1.922 2.215-5.163 3.322-9.721 3.322-4.125 0-7.242-1.2-9.352-3.603-2.168-2.403-3.252-5.666-3.252-9.791V54.928h-4.166V83.72c0 5.86 1.389 10.394 4.166 13.605 2.79 3.223 6.99 4.834 12.604 4.834zM537.18 101V58.883h12.656v-3.955h-29.514v3.955h12.604V101h4.254zm34.95 0V58.883h12.656v-3.955h-29.513v3.955h12.603V101h4.254zm24.79 0V54.928h-4.253V101h4.254zm46.324 1.3V54.929h-3.885v36.72l-32.625-38.671V101h3.973V63.77l32.537 38.53zm31.505-.14c7.782 0 13.612-2.045 17.49-6.135 3.891-4.078 5.837-9.86 5.837-17.35v-.35h-20.514v3.603h15.908c0 5.847-1.775 10.043-5.326 12.586-3.55 2.601-7.535 3.902-11.953 3.902-5.426 0-10.06-1.852-13.904-5.555-3.833-3.691-5.749-8.513-5.749-14.466 0-3.704.768-7.16 2.303-10.372 1.535-3.164 3.768-5.683 6.697-7.558 2.93-1.828 6.334-2.742 10.213-2.742 6.586 0 12.012 2.93 16.278 8.789l2.953-2.584c-1.301-2.262-2.936-4.16-4.904-5.696a20.246 20.246 0 0 0-6.54-3.304c-2.402-.727-4.921-1.09-7.558-1.09-5.813 0-10.518 1.342-14.115 4.025-3.645 2.696-6.188 5.936-7.63 9.721-1.488 3.797-2.232 7.447-2.232 10.951 0 4.219.985 8.156 2.953 11.813 1.97 3.691 4.706 6.568 8.21 8.63 3.445 2.122 7.306 3.182 11.583 3.182zm69.974 0c3.211 0 5.824-.674 7.84-2.021 1.969-1.301 3.41-2.983 4.324-5.045a15.314 15.314 0 0 0 1.371-6.399c0-4.57-2.039-8.244-6.117-11.021a35.373 35.373 0 0 0-3.322-2.022 528.07 528.07 0 0 0-5.748-3.023c-3.41-1.922-5.115-4.442-5.115-7.559 0-2.402.72-4.248 2.162-5.537 1.43-1.3 3.152-1.951 5.168-1.951 3.27 0 5.695 1.371 7.277 4.113l3.252-1.95c-1.547-2.638-3.111-4.27-4.693-4.896-1.582-.627-3.405-.94-5.467-.94-3.645 0-6.551 1.007-8.719 3.023-2.203 2.062-3.305 4.728-3.305 7.998 0 2.156.575 3.978 1.723 5.466 1.16 1.536 2.695 3 4.605 4.395 1.254.867 3.3 2.115 6.135 3.744 2.778 1.63 4.453 2.707 5.028 3.235 1.921 1.593 2.882 3.996 2.882 7.207 0 3.164-.884 5.566-2.654 7.207-1.781 1.629-4.014 2.443-6.697 2.443-4.664 0-7.764-2.426-9.299-7.277l-3.674 1.95c1.688 3.692 3.633 6.089 5.836 7.19 2.156 1.114 4.559 1.67 7.207 1.67zm44.953 0c4.511 0 8.636-.984 12.375-2.953 3.75-1.922 6.726-4.71 8.93-8.367 2.214-3.645 3.322-7.84 3.322-12.586 0-3.317-.604-6.486-1.81-9.51-1.196-2.976-2.872-5.566-5.028-7.77-2.168-2.214-4.717-3.943-7.647-5.185-2.918-1.254-6.205-1.88-9.861-1.88-4.172 0-8.18.984-12.024 2.952-3.832 1.97-6.925 4.752-9.28 8.35-2.356 3.656-3.534 7.88-3.534 12.674 0 5.133 1.13 9.527 3.393 13.183 2.25 3.645 5.273 6.405 9.07 8.28 3.738 1.875 7.77 2.812 12.094 2.812zm0-3.603c-3.844 0-7.301-.961-10.371-2.883-3.118-1.875-5.517-4.371-7.199-7.488-1.681-3.118-2.522-6.504-2.522-10.16 0-4.36 1.031-8.104 3.094-11.233 2.062-3.07 4.681-5.373 7.857-6.908 3.117-1.489 6.211-2.233 9.281-2.233 4.278 0 7.928 1.032 10.951 3.094 3.024 2.063 5.303 4.682 6.838 7.858 1.489 3.164 2.233 6.404 2.233 9.72 0 3.832-.89 7.26-2.672 10.283a19.453 19.453 0 0 1-7.269 7.287c-3.076 1.775-6.483 2.663-10.221 2.663zm57.345 4.095l16.488-36.79L866.884 101h4.324l-5.976-48.023L846.95 94.02l-17.648-41.044L823.044 101h4.324l3.516-35.139 16.137 36.791zM903.065 101v-3.885h-18.58v-19.88h18.58v-3.956h-18.58V58.883h18.58v-3.955H880.25V101h22.816zm24.087 0V58.883h12.657v-3.955h-29.514v3.955h12.603V101h4.254zm25.37 0V77.234h24.98V101h4.253V54.928h-4.254v18.72h-24.978v-18.72h-4.254V101h4.254zm44.602 0V54.928h-4.254V101h4.254zm46.323 1.3V54.929h-3.884v36.72l-32.625-38.671V101h3.972V63.77l32.537 38.53zm31.506-.14c7.78 0 13.611-2.045 17.49-6.135 3.89-4.078 5.836-9.86 5.836-17.35v-.35h-20.514v3.603h15.908c0 5.847-1.775 10.043-5.326 12.586-3.55 2.601-7.535 3.902-11.953 3.902-5.426 0-10.06-1.852-13.904-5.555-3.832-3.691-5.748-8.513-5.748-14.466 0-3.704.767-7.16 2.302-10.372 1.536-3.164 3.768-5.683 6.698-7.558 2.93-1.828 6.334-2.742 10.213-2.742 6.586 0 12.011 2.93 16.277 8.789l2.953-2.584c-1.3-2.262-2.935-4.16-4.904-5.696a20.246 20.246 0 0 0-6.54-3.304c-2.402-.727-4.921-1.09-7.558-1.09-5.812 0-10.517 1.342-14.115 4.025-3.645 2.696-6.188 5.936-7.629 9.721-1.488 3.797-2.232 7.447-2.232 10.951 0 4.219.984 8.156 2.953 11.813 1.968 3.691 4.705 6.568 8.209 8.63 3.445 2.122 7.306 3.182 11.584 3.182z" id="PUTTINGSOMETHING"/><path id="Line" d="M1160.317 5.683v7.634H383.683V5.683zm0 202v7.634H383.683v-7.634z"/></g></svg>