<svg width="355" height="70" fill="none" xmlns="http://www.w3.org/2000/svg"><path d="M37 10v28h-9.363V27.333h-7.274V38H11V10h9.363v9.333h7.274V10H37zm59 6.667h-9.45V38h-8.1V16.667H69L69.103 10H96v6.667zM24 55.835c-.463 1.318-1.274 2.345-2.433 3.083-1.142.721-2.515 1.082-4.12 1.082-1.49 0-2.797-.322-3.922-.965-1.126-.658-1.994-1.592-2.607-2.8C10.306 55.027 10 53.615 10 52c0-1.616.306-3.028.918-4.235.613-1.208 1.482-2.134 2.607-2.777C14.65 44.33 15.949 44 17.422 44c3.276 0 5.395 1.278 6.354 3.835l-1.216.541c-.38-1.098-.993-1.921-1.837-2.47-.827-.55-1.903-.824-3.226-.824-1.225 0-2.31.283-3.252.847-.927.55-1.647 1.35-2.16 2.4-.513 1.036-.77 2.26-.77 3.671 0 1.412.249 2.643.745 3.694.513 1.035 1.225 1.835 2.135 2.4.927.55 2.01.824 3.252.824 1.324 0 2.449-.306 3.376-.918.926-.612 1.572-1.482 1.936-2.612l1.241.447zm42.878-4.549l-3.538 3.19V60H62V43h1.34v9.857L73.043 43h1.77l-6.996 7.405L75 60h-1.635l-6.487-8.714zM79 60h-1V43h1v17zm16-1.308V60H83V43h12v1.308H84.5v6.538h9v1.308h-9v6.538H95z" fill="#C41218"/><path fill-rule="evenodd" clip-rule="evenodd" d="M54 38c7.732 0 14-6.268 14-14s-6.268-14-14-14-14 6.268-14 14 6.268 14 14 14zm0-9.333a4.667 4.667 0 1 0 0-9.334 4.667 4.667 0 0 0 0 9.334zM34 60c4.418 0 8-3.358 8-7.5 0-4.142-3.582-7.5-8-7.5s-8 3.358-8 7.5c0 4.142 3.582 7.5 8 7.5zm0-1.25c3.682 0 6.667-2.798 6.667-6.25S37.682 46.25 34 46.25s-6.667 2.798-6.667 6.25 2.985 6.25 6.667 6.25zM51.5 60a7.5 7.5 0 1 0 0-15 7.5 7.5 0 0 0 0 15zm0-1.25a6.25 6.25 0 1 0 0-12.5 6.25 6.25 0 0 0 0 12.5z" fill="#C41218"/><path fill="#C31218" d="M0 0h355v1H0zm0 69h355v1H0zm119.522-45.87v6.133h-1.291V14.207h5.203c1.588 0 2.84.4 3.756 1.2.923.799 1.385 1.898 1.385 3.298 0 1.413-.444 2.506-1.333 3.278-.881.765-2.161 1.148-3.839 1.148h-3.881zm0-1.075h3.912c1.252 0 2.207-.293 2.864-.879.658-.586.986-1.402.986-2.45 0-1.041-.328-1.869-.986-2.482-.65-.62-1.577-.938-2.78-.951h-3.996v6.762zm22.47-7.848v10.278c-.007 1.014-.235 1.896-.682 2.648a4.475 4.475 0 0 1-1.899 1.737c-.811.4-1.745.6-2.801.6-1.608 0-2.899-.431-3.871-1.293-.965-.869-1.465-2.068-1.5-3.599V14.207h1.28v10.185c0 1.269.367 2.255 1.102 2.958.734.696 1.73 1.044 2.989 1.044s2.252-.352 2.979-1.055c.735-.703 1.102-1.682 1.102-2.936V14.207h1.301zm13.962 1.086h-5.234v13.97h-1.291v-13.97h-5.224v-1.086h11.749v1.086zm13.008 0h-5.234v13.97h-1.291v-13.97h-5.224v-1.086h11.749v1.086zm4.05 13.97h-1.291V14.207h1.291v15.056zm15.525 0h-1.29l-8.78-12.885v12.885h-1.301V14.207h1.301l8.79 12.894V14.207h1.28v15.056zm14.907-1.789c-.448.627-1.151 1.116-2.109 1.468-.951.352-2.017.527-3.199.527-1.196 0-2.259-.282-3.189-.848-.93-.565-1.651-1.364-2.161-2.398-.511-1.035-.77-2.22-.777-3.558v-1.902c0-2.09.536-3.737 1.606-4.943 1.07-1.213 2.507-1.82 4.311-1.82 1.574 0 2.839.396 3.798 1.19.958.785 1.528 1.87 1.709 3.256h-1.29c-.189-1.103-.647-1.937-1.374-2.502-.72-.572-1.665-.858-2.832-.858-1.427 0-2.557.5-3.389 1.5-.832.999-1.248 2.409-1.248 4.228v1.779c0 1.144.196 2.158.587 3.04.399.876.965 1.555 1.7 2.037.741.483 1.591.724 2.549.724 1.112 0 2.066-.172 2.864-.517.517-.227.902-.493 1.154-.796v-3.888h-4.102v-1.076h5.392v5.357zm17.529-1.914c0-.833-.297-1.492-.891-1.974-.595-.49-1.682-.952-3.263-1.386-1.58-.441-2.734-.92-3.462-1.437-1.035-.731-1.552-1.69-1.552-2.875 0-1.151.479-2.085 1.437-2.802.965-.724 2.196-1.086 3.692-1.086 1.015 0 1.92.193 2.717.58.805.385 1.427.923 1.868 1.612.44.69.661 1.458.661 2.306h-1.301c0-1.027-.357-1.85-1.07-2.471-.714-.628-1.672-.941-2.875-.941-1.167 0-2.098.258-2.79.775-.692.51-1.039 1.18-1.039 2.006 0 .766.312 1.39.934 1.872.623.482 1.619.91 2.99 1.282 1.371.366 2.409.748 3.115 1.148.707.393 1.238.865 1.595 1.417.357.551.535 1.203.535 1.954 0 1.186-.483 2.137-1.448 2.854-.958.717-2.224 1.075-3.797 1.075-1.077 0-2.067-.19-2.969-.568-.895-.38-1.577-.91-2.046-1.593-.461-.682-.692-1.465-.692-2.347h1.29c0 1.062.403 1.9 1.207 2.513s1.874.92 3.21.92c1.189 0 2.143-.258 2.864-.775.72-.518 1.08-1.203 1.08-2.058zm15.379-3.008c0 1.385-.245 2.602-.734 3.65-.483 1.048-1.175 1.854-2.077 2.42-.903.565-1.945.847-3.127.847-1.783 0-3.224-.627-4.322-1.882-1.098-1.261-1.647-2.96-1.647-5.097v-1.551c0-1.372.245-2.586.735-3.64.496-1.062 1.196-1.875 2.098-2.44.902-.573 1.941-.859 3.115-.859 1.175 0 2.21.28 3.106.838.902.558 1.598 1.347 2.087 2.368.49 1.02.745 2.202.766 3.546v1.8zm-1.29-1.634c0-1.813-.416-3.233-1.249-4.26-.832-1.028-1.972-1.541-3.42-1.541-1.419 0-2.552.517-3.398 1.55-.84 1.028-1.259 2.465-1.259 4.313v1.572c0 1.785.419 3.202 1.259 4.25.839 1.04 1.979 1.561 3.419 1.561 1.462 0 2.602-.514 3.42-1.54.819-1.035 1.228-2.472 1.228-4.313v-1.592zm6.252-6.711l5.633 13.287 5.654-13.287h1.721v15.056h-1.29v-6.556l.104-6.722-5.685 13.278h-.997l-5.665-13.226.105 6.628v6.598h-1.29V14.207h1.71zm25.313 7.838h-7.144v6.142h8.214v1.076h-9.504V14.207h9.452v1.086h-8.162v5.677h7.144v1.075zm14.372-6.752h-5.235v13.97h-1.29v-13.97h-5.224v-1.086h11.749v1.086zm13.794 13.97h-1.3v-7.218h-8.728v7.218h-1.291V14.207h1.291v6.762h8.728v-6.762h1.3v15.056zm5.466 0h-1.29V14.207h1.29v15.056zm15.526 0h-1.291l-8.78-12.885v12.885h-1.301V14.207h1.301l8.791 12.894V14.207h1.28v15.056zm14.906-1.789c-.447.627-1.15 1.116-2.108 1.468-.951.352-2.018.527-3.2.527-1.196 0-2.259-.282-3.189-.848-.93-.565-1.65-1.364-2.161-2.398-.51-1.035-.769-2.22-.776-3.558v-1.902c0-2.09.535-3.737 1.605-4.943 1.07-1.213 2.507-1.82 4.311-1.82 1.574 0 2.84.396 3.798 1.19.958.785 1.528 1.87 1.71 3.256h-1.291c-.188-1.103-.646-1.937-1.374-2.502-.72-.572-1.664-.858-2.832-.858-1.427 0-2.556.5-3.389 1.5-.832.999-1.248 2.409-1.248 4.228v1.779c0 1.144.196 2.158.588 3.04.398.876.965 1.555 1.699 2.037.741.483 1.591.724 2.549.724 1.112 0 2.067-.172 2.864-.517.518-.227.902-.493 1.154-.796v-3.888h-4.102v-1.076h5.392v5.357zm-209.04 25.617c0-.834-.297-1.492-.892-1.975-.594-.49-1.682-.951-3.262-1.385-1.581-.442-2.735-.92-3.462-1.438-1.035-.73-1.552-1.689-1.552-2.874 0-1.152.479-2.086 1.437-2.803.965-.724 2.196-1.085 3.692-1.085 1.014 0 1.92.193 2.717.579.805.386 1.427.923 1.868 1.613.44.69.66 1.458.66 2.306h-1.3c0-1.027-.357-1.851-1.07-2.472-.714-.627-1.672-.94-2.875-.94-1.168 0-2.098.258-2.79.775-.692.51-1.039 1.179-1.039 2.006 0 .765.312 1.389.934 1.872.622.482 1.619.91 2.99 1.282 1.37.365 2.409.748 3.115 1.148.707.392 1.238.865 1.595 1.416.357.552.535 1.203.535 1.955 0 1.185-.483 2.137-1.448 2.854-.958.717-2.224 1.075-3.797 1.075-1.077 0-2.067-.19-2.969-.569-.895-.379-1.577-.91-2.046-1.592-.461-.683-.692-1.465-.692-2.347h1.29c0 1.061.402 1.899 1.207 2.512.804.614 1.874.92 3.21.92 1.189 0 2.143-.258 2.864-.775.72-.517 1.08-1.203 1.08-2.058zm6.913-.361l.472 2.336.577-2.233 3.315-11.096h1.165l3.273 11.096.566 2.254.504-2.358 2.758-10.992h1.322l-3.913 15.056h-1.237l-3.462-11.778-.388-1.489-.378 1.49-3.546 11.777h-1.238l-3.902-15.056h1.322l2.79 10.992zm24.873-3.155h-7.144v6.143h8.214v1.075h-9.505V41.737h9.452v1.086h-8.161V48.5h7.144v1.075zm12.231 0h-7.144v6.143h8.214v1.075h-9.504V41.737h9.452v1.086h-8.162V48.5h7.144v1.075zm14.372-6.752h-5.235v13.97h-1.29v-13.97h-5.224v-1.086h11.749v1.086zm8.854 13.97h-1.29V41.737h1.29v15.056zm15.526 0h-1.291l-8.78-12.884v12.884h-1.301V41.737h1.301l8.791 12.895V41.737h1.28v15.056zm13.584-6.845l4.669-8.21h1.489l-5.518 9.389v5.666h-1.29v-5.666l-5.507-9.39h1.531l4.626 8.21zm19.355.134c0 1.386-.245 2.603-.734 3.65-.483 1.048-1.175 1.855-2.077 2.42-.903.565-1.945.848-3.126.848-1.784 0-3.224-.627-4.322-1.882-1.098-1.262-1.647-2.96-1.647-5.098v-1.55c0-1.373.244-2.586.734-3.64.496-1.062 1.196-1.876 2.098-2.441.902-.572 1.941-.858 3.116-.858 1.174 0 2.21.279 3.105.837.902.559 1.598 1.348 2.087 2.368.49 1.02.745 2.203.766 3.547v1.8zm-1.29-1.634c0-1.813-.416-3.233-1.249-4.26-.832-1.027-1.972-1.54-3.419-1.54-1.42 0-2.553.516-3.399 1.55-.84 1.028-1.259 2.465-1.259 4.312v1.572c0 1.786.419 3.202 1.259 4.25.839 1.041 1.979 1.562 3.42 1.562 1.461 0 2.601-.514 3.419-1.541.819-1.034 1.228-2.472 1.228-4.312v-1.593zm15.064-6.711v10.279c-.007 1.013-.234 1.896-.682 2.647a4.474 4.474 0 0 1-1.899 1.737c-.811.4-1.745.6-2.801.6-1.608 0-2.899-.43-3.871-1.293-.965-.868-1.465-2.068-1.5-3.598V41.737h1.28v10.186c0 1.268.367 2.254 1.102 2.957.734.697 1.73 1.045 2.989 1.045s2.252-.352 2.98-1.055c.734-.703 1.101-1.682 1.101-2.937V41.737h1.301zm9.305 8.79H256v6.266h-1.3V41.737h4.961c1.63 0 2.903.39 3.819 1.169.916.779 1.374 1.868 1.374 3.267 0 .966-.287 1.817-.86 2.555-.574.737-1.343 1.247-2.308 1.53l3.819 6.4v.135h-1.375l-3.692-6.266zM256 49.44h3.955c1.084 0 1.955-.303 2.612-.91.658-.606.986-1.392.986-2.358 0-1.061-.342-1.885-1.028-2.47-.685-.587-1.647-.88-2.885-.88H256v6.618zm19.302-7.703l5.634 13.288 5.654-13.288h1.72v15.056h-1.29v-6.556l.105-6.721-5.686 13.277h-.996l-5.665-13.225.105 6.628v6.597h-1.29V41.737h1.709zm28.167 8.345c0 1.386-.245 2.603-.734 3.65-.483 1.048-1.175 1.855-2.077 2.42-.903.565-1.945.848-3.127.848-1.783 0-3.224-.627-4.322-1.882-1.098-1.262-1.647-2.96-1.647-5.098v-1.55c0-1.373.245-2.586.735-3.64.496-1.062 1.196-1.876 2.098-2.441.902-.572 1.941-.858 3.115-.858 1.175 0 2.21.279 3.106.837.902.559 1.598 1.348 2.087 2.368.49 1.02.745 2.203.766 3.547v1.8zm-1.29-1.634c0-1.813-.417-3.233-1.249-4.26-.832-1.027-1.972-1.54-3.42-1.54-1.419 0-2.552.516-3.398 1.55-.84 1.028-1.259 2.465-1.259 4.312v1.572c0 1.786.419 3.202 1.259 4.25.839 1.041 1.979 1.562 3.419 1.562 1.462 0 2.602-.514 3.42-1.541.818-1.034 1.228-2.472 1.228-4.312v-1.593zm15.064-6.711v10.279c-.007 1.013-.235 1.896-.682 2.647a4.474 4.474 0 0 1-1.899 1.737c-.811.4-1.745.6-2.801.6-1.608 0-2.899-.43-3.871-1.293-.965-.868-1.465-2.068-1.5-3.598V41.737h1.28v10.186c0 1.268.367 2.254 1.101 2.957.735.697 1.731 1.045 2.99 1.045 1.259 0 2.252-.352 2.979-1.055.735-.703 1.102-1.682 1.102-2.937V41.737h1.301zm13.962 1.086h-5.234v13.97h-1.291v-13.97h-5.224v-1.086h11.749v1.086zM345 56.793h-1.301v-7.218h-8.728v7.218h-1.29V41.737h1.29V48.5h8.728v-6.763H345v15.056z"/></svg>