<svg width="355" height="70" viewBox="0 0 355 70" fill="none" xmlns="http://www.w3.org/2000/svg">
<path d="M37 10V38H27.6368V27.3333H20.3632V38H11V10H20.3632V19.3333H27.6368V10H37Z" fill="#C41218"/>
<path d="M96 16.6667H86.55V38H78.45V16.6667H69L69.1034 10H96V16.6667Z" fill="#C41218"/>
<path d="M24 55.8353C23.5366 57.153 22.7257 58.1804 21.5674 58.9177C20.4255 59.6392 19.052 60 17.4468 60C15.9574 60 14.6501 59.6784 13.5248 59.0353C12.3995 58.3765 11.5307 57.4432 10.9184 56.2352C10.3061 55.0274 10 53.6157 10 52C10 50.3843 10.3061 48.9725 10.9184 47.7647C11.5307 46.5568 12.3995 45.6313 13.5248 44.9882C14.6501 44.3294 15.9492 44 17.422 44C20.6985 44 22.8168 45.2784 23.7765 47.8353L22.5603 48.3764C22.1796 47.2784 21.5674 46.4549 20.7234 45.9059C19.896 45.3568 18.8203 45.0823 17.4965 45.0823C16.2719 45.0823 15.1879 45.3647 14.2447 45.9294C13.318 46.4784 12.5981 47.2784 12.0851 48.3294C11.5721 49.3647 11.3156 50.5882 11.3156 52C11.3156 53.4117 11.5638 54.6431 12.0603 55.6941C12.5733 56.7294 13.2849 57.5294 14.195 58.0941C15.1217 58.6431 16.2057 58.9177 17.4468 58.9177C18.7707 58.9177 19.896 58.6118 20.8227 58C21.7494 57.3883 22.3948 56.5176 22.7588 55.3882L24 55.8353Z" fill="#C41218"/>
<path d="M66.8783 51.286L63.3403 54.4763V60H62V43H63.3403V52.8574L73.0434 43H74.8124L67.8165 50.405L75 60H73.365L66.8783 51.286Z" fill="#C41218"/>
<path d="M79 60H78V43H79V60Z" fill="#C41218"/>
<path d="M95 58.6923V60H83V43H95V44.3077H84.5V50.8461H93.5V52.1539H84.5V58.6923H95Z" fill="#C41218"/>
<path fill-rule="evenodd" clip-rule="evenodd" d="M54 38C61.732 38 68 31.732 68 24C68 16.268 61.732 10 54 10C46.268 10 40 16.268 40 24C40 31.732 46.268 38 54 38ZM54 28.6667C56.5774 28.6667 58.6667 26.5773 58.6667 24C58.6667 21.4227 56.5774 19.3333 54 19.3333C51.4227 19.3333 49.3334 21.4227 49.3334 24C49.3334 26.5773 51.4227 28.6667 54 28.6667Z" fill="#C41218"/>
<path fill-rule="evenodd" clip-rule="evenodd" d="M34 60C38.4182 60 42 56.6422 42 52.5C42 48.3578 38.4182 45 34 45C29.5818 45 26 48.3578 26 52.5C26 56.6422 29.5818 60 34 60ZM34 58.75C37.6819 58.75 40.6666 55.9518 40.6666 52.5C40.6666 49.0482 37.6819 46.25 34 46.25C30.3181 46.25 27.3334 49.0482 27.3334 52.5C27.3334 55.9518 30.3181 58.75 34 58.75Z" fill="#C41218"/>
<path fill-rule="evenodd" clip-rule="evenodd" d="M51.5 60C55.6421 60 59 56.6422 59 52.5C59 48.3578 55.6421 45 51.5 45C47.3578 45 44 48.3578 44 52.5C44 56.6422 47.3578 60 51.5 60ZM51.5 58.75C54.9517 58.75 57.75 55.9518 57.75 52.5C57.75 49.0482 54.9517 46.25 51.5 46.25C48.0482 46.25 45.25 49.0482 45.25 52.5C45.25 55.9518 48.0482 58.75 51.5 58.75Z" fill="#C41218"/>
<path d="M355 9H102V10H355V9Z" fill="#C31218"/>
<path d="M355 60H102V61H355V60Z" fill="#C31218"/>
<path d="M126.363 19.2366V30.4989H130.309C132.045 30.4569 133.35 29.9784 134.224 29.0635C135.107 28.1382 135.55 26.7396 135.55 24.8678C135.55 22.996 135.107 21.6026 134.224 20.6878C133.35 19.7624 132.045 19.2787 130.309 19.2366H126.363ZM127.449 29.584V20.1515H129.766C130.586 20.1515 131.289 20.2409 131.875 20.4196C132.471 20.5879 132.962 20.8613 133.345 21.2398C133.729 21.6184 134.011 22.1074 134.192 22.7068C134.372 23.3062 134.464 24.0266 134.464 24.8678C134.464 25.709 134.372 26.4293 134.192 27.0287C134.011 27.6281 133.729 28.1171 133.345 28.4957C132.962 28.8742 132.471 29.153 131.875 29.3317C131.289 29.5 130.586 29.584 129.766 29.584H127.449ZM138.442 19.2366V30.4989H146.399V29.584H139.529V25.1359H145.888V24.221H139.529V20.1515H146.319V19.2366H138.442ZM149.055 19.2366V30.4989H156.532V29.584H150.141V19.2366H149.055ZM158.857 19.2366V30.4989H159.943V19.2366H158.857ZM162.214 19.2366L166.432 30.4989H167.695L171.929 19.2366H170.778L167.103 29.3159H167.072L163.365 19.2366H162.214ZM174.072 19.2366V30.4989H182.029V29.584H175.158V25.1359H181.518V24.221H175.158V20.1515H181.949V19.2366H174.072ZM185.771 24.5838V20.1515H189.829C190.66 20.1515 191.279 20.3513 191.683 20.7509C192.088 21.1505 192.29 21.6973 192.29 22.3913C192.29 22.7383 192.221 23.0486 192.082 23.3219C191.954 23.5849 191.779 23.8109 191.555 24.0002C191.331 24.1895 191.071 24.3368 190.772 24.4419C190.474 24.5365 190.16 24.5838 189.829 24.5838H185.771ZM184.685 19.2366V30.4989H185.771V25.4987H189.893C190.404 25.4777 190.804 25.5618 191.092 25.7511C191.391 25.9404 191.614 26.1927 191.763 26.5082C191.922 26.8132 192.024 27.1655 192.066 27.565C192.12 27.9542 192.157 28.3485 192.178 28.748C192.189 28.8638 192.2 29.0004 192.21 29.1582C192.221 29.3159 192.232 29.4789 192.242 29.6471C192.264 29.8049 192.29 29.9626 192.322 30.1203C192.365 30.2676 192.418 30.3938 192.482 30.4989H193.68C193.563 30.3622 193.468 30.173 193.392 29.9311C193.328 29.6787 193.28 29.4158 193.248 29.1424C193.217 28.8585 193.196 28.5798 193.185 28.3064C193.174 28.0331 193.164 27.8016 193.153 27.6124C193.132 27.2759 193.084 26.9656 193.009 26.6817C192.945 26.3873 192.833 26.1296 192.673 25.9088C192.525 25.688 192.327 25.5093 192.082 25.3725C191.838 25.2254 191.529 25.1254 191.155 25.0728V25.0413C191.89 24.8941 192.445 24.5576 192.817 24.0318C193.19 23.506 193.376 22.8856 193.376 22.1705C193.376 21.6657 193.28 21.2294 193.089 20.8613C192.908 20.4827 192.657 20.1778 192.338 19.9464C192.03 19.7046 191.662 19.5258 191.235 19.4101C190.82 19.2945 190.378 19.2366 189.909 19.2366H184.685ZM196.563 19.2366V30.4989H197.649V19.2366H196.563ZM201.151 19.2366V30.4989H202.237V20.9717H202.269L208.916 30.4989H210.13V19.2366H209.043V28.7638H209.011L202.365 19.2366H201.151ZM223.303 30.4989V24.7731H218.462V25.688H222.345C222.355 26.2874 222.275 26.8394 222.105 27.3442C221.935 27.849 221.679 28.2854 221.338 28.6534C220.997 29.0215 220.577 29.3107 220.076 29.5209C219.586 29.7208 219.027 29.8206 218.398 29.8206C217.642 29.8206 216.992 29.6787 216.449 29.3948C215.906 29.1108 215.458 28.7376 215.107 28.2748C214.766 27.8016 214.51 27.2706 214.34 26.6817C214.18 26.0823 214.1 25.4777 214.1 24.8678C214.1 24.2474 214.18 23.6427 214.34 23.0538C214.51 22.465 214.766 21.9392 215.107 21.4764C215.458 21.0032 215.906 20.6247 216.449 20.3408C216.992 20.0568 217.642 19.9149 218.398 19.9149C218.942 19.9149 219.431 20.0043 219.868 20.183C220.305 20.3513 220.677 20.5722 220.987 20.8455C221.306 21.1189 221.556 21.4239 221.738 21.7604C221.929 22.0864 222.041 22.4124 222.073 22.7383H223.16C223.053 22.118 222.856 21.5764 222.568 21.1137C222.281 20.651 221.929 20.2619 221.514 19.9464C221.099 19.6309 220.625 19.3943 220.092 19.2366C219.559 19.0789 218.995 19 218.398 19C217.504 19 216.715 19.163 216.034 19.489C215.363 19.8045 214.803 20.2356 214.356 20.7824C213.909 21.3187 213.573 21.9392 213.349 22.6437C213.126 23.3483 213.014 24.0897 213.014 24.8678C213.014 25.646 213.126 26.3873 213.349 27.0918C213.573 27.7965 213.909 28.4168 214.356 28.9531C214.803 29.4894 215.363 29.9206 216.034 30.2465C216.715 30.562 217.504 30.7197 218.398 30.7197C218.814 30.7197 219.213 30.6777 219.597 30.5935C219.99 30.5095 220.358 30.378 220.699 30.1992C221.04 30.0099 221.348 29.7733 221.626 29.4894C221.913 29.195 222.153 28.848 222.345 28.4483H222.377L222.521 30.4989H223.303ZM232.64 26.7921H231.554C231.522 27.4862 231.613 28.0804 231.825 28.5745C232.049 29.0688 232.364 29.4736 232.768 29.7891C233.173 30.1046 233.663 30.3412 234.238 30.4989C234.813 30.6462 235.436 30.7197 236.107 30.7197C236.778 30.7197 237.353 30.6566 237.833 30.5305C238.312 30.4149 238.711 30.2623 239.031 30.073C239.362 29.8733 239.618 29.6524 239.798 29.4105C239.99 29.1687 240.133 28.9321 240.229 28.7007C240.337 28.4589 240.401 28.2328 240.421 28.0225C240.453 27.8122 240.469 27.6439 240.469 27.5177C240.469 27.0551 240.389 26.6608 240.229 26.3347C240.081 26.0087 239.868 25.7353 239.59 25.5145C239.324 25.2832 239.01 25.0939 238.648 24.9466C238.296 24.7889 237.918 24.6575 237.513 24.5523L234.733 23.874C234.499 23.8215 234.275 23.7531 234.062 23.669C233.86 23.5849 233.679 23.4745 233.519 23.3377C233.359 23.2011 233.231 23.038 233.135 22.8487C233.051 22.649 233.007 22.4177 233.007 22.1547C233.007 21.7341 233.087 21.3818 233.247 21.0979C233.407 20.814 233.615 20.5879 233.87 20.4196C234.137 20.2409 234.441 20.1147 234.781 20.0411C235.133 19.957 235.495 19.9149 235.867 19.9149C236.273 19.9149 236.656 19.9728 237.018 20.0884C237.391 20.1936 237.716 20.3565 237.992 20.5774C238.28 20.7877 238.509 21.0559 238.68 21.3818C238.861 21.6973 238.963 22.0707 238.983 22.5017H240.07C240.07 21.9234 239.953 21.4186 239.718 20.9875C239.494 20.5458 239.191 20.1778 238.807 19.8833C238.424 19.5889 237.977 19.3681 237.465 19.2208C236.954 19.0737 236.416 19 235.851 19C235.053 19 234.398 19.1157 233.886 19.347C233.375 19.5678 232.971 19.8413 232.672 20.1672C232.384 20.4933 232.188 20.8403 232.081 21.2083C231.975 21.5764 231.921 21.8971 231.921 22.1705C231.921 22.6121 231.991 22.9855 232.129 23.2904C232.278 23.5954 232.47 23.8531 232.704 24.0633C232.939 24.2737 233.211 24.4419 233.519 24.5681C233.838 24.6942 234.164 24.7995 234.493 24.8835L237.034 25.4987C237.301 25.5618 237.573 25.646 237.849 25.7511C238.126 25.8457 238.376 25.9719 238.6 26.1296C238.835 26.2874 239.021 26.482 239.159 26.7133C239.308 26.9447 239.383 27.218 239.383 27.5335C239.383 27.9436 239.282 28.2959 239.079 28.5903C238.877 28.8742 238.621 29.1108 238.312 29.3001C238.014 29.4789 237.689 29.6104 237.337 29.6945C236.986 29.7786 236.662 29.8206 236.363 29.8206C235.841 29.8206 235.352 29.7733 234.893 29.6787C234.435 29.5736 234.036 29.4054 233.695 29.1739C233.365 28.9426 233.103 28.6324 232.912 28.2433C232.72 27.8542 232.63 27.3706 232.64 26.7921ZM243.814 24.8678C243.814 24.2474 243.894 23.6427 244.054 23.0538C244.224 22.465 244.479 21.9392 244.821 21.4764C245.172 21.0032 245.619 20.6247 246.163 20.3408C246.706 20.0568 247.355 19.9149 248.112 19.9149C248.869 19.9149 249.512 20.0568 250.045 20.3408C250.589 20.6247 251.03 21.0032 251.371 21.4764C251.723 21.9392 251.979 22.465 252.138 23.0538C252.308 23.6427 252.394 24.2474 252.394 24.8678C252.394 25.4777 252.308 26.0823 252.138 26.6817C251.979 27.2706 251.723 27.8016 251.371 28.2748C251.03 28.7376 250.589 29.1108 250.045 29.3948C249.512 29.6787 248.869 29.8206 248.112 29.8206C247.355 29.8206 246.706 29.6787 246.163 29.3948C245.619 29.1108 245.172 28.7376 244.821 28.2748C244.479 27.8016 244.224 27.2706 244.054 26.6817C243.894 26.0823 243.814 25.4777 243.814 24.8678ZM242.728 24.8678C242.728 25.646 242.839 26.3873 243.063 27.0918C243.287 27.7965 243.622 28.4168 244.07 28.9531C244.517 29.4894 245.076 29.9206 245.747 30.2465C246.429 30.562 247.217 30.7197 248.112 30.7197C249.007 30.7197 249.79 30.562 250.461 30.2465C251.132 29.9206 251.691 29.4894 252.138 28.9531C252.586 28.4168 252.921 27.7965 253.145 27.0918C253.369 26.3873 253.48 25.646 253.48 24.8678C253.48 24.0897 253.369 23.3483 253.145 22.6437C252.921 21.9392 252.586 21.3187 252.138 20.7824C251.691 20.2356 251.132 19.8045 250.461 19.489C249.79 19.163 249.007 19 248.112 19C247.217 19 246.429 19.163 245.747 19.489C245.076 19.8045 244.517 20.2356 244.07 20.7824C243.622 21.3187 243.287 21.9392 243.063 22.6437C242.839 23.3483 242.728 24.0897 242.728 24.8678ZM257.885 19.2366L261.671 29.1108L265.602 19.2366H267.199V30.4989H266.113V20.7666H266.081L262.183 30.4989H261.16L257.405 20.7666H257.373V30.4989H256.287V19.2366H257.885ZM270.582 19.2366V30.4989H278.539V29.584H271.669V25.1359H278.028V24.221H271.669V20.1515H278.459V19.2366H270.582ZM279.98 19.2366V20.1515H283.943V30.4989H285.029V20.1515H289.008V19.2366H279.98ZM291.214 19.2366V30.4989H292.3V25.0413H299.075V30.4989H300.161V19.2366H299.075V24.1264H292.3V19.2366H291.214ZM303.684 19.2366V30.4989H304.771V19.2366H303.684ZM308.272 19.2366V30.4989H309.359V20.9717H309.39L316.037 30.4989H317.251V19.2366H316.165V28.7638H316.133L309.486 19.2366H308.272ZM330.425 30.4989V24.7731H325.584V25.688H329.466C329.478 26.2874 329.398 26.8394 329.227 27.3442C329.057 27.849 328.801 28.2854 328.46 28.6534C328.12 29.0215 327.698 29.3107 327.197 29.5209C326.708 29.7208 326.149 29.8206 325.52 29.8206C324.764 29.8206 324.114 29.6787 323.571 29.3948C323.027 29.1108 322.58 28.7376 322.228 28.2748C321.888 27.8016 321.633 27.2706 321.462 26.6817C321.302 26.0823 321.222 25.4777 321.222 24.8678C321.222 24.2474 321.302 23.6427 321.462 23.0538C321.633 22.465 321.888 21.9392 322.228 21.4764C322.58 21.0032 323.027 20.6247 323.571 20.3408C324.114 20.0568 324.764 19.9149 325.52 19.9149C326.063 19.9149 326.554 20.0043 326.99 20.183C327.427 20.3513 327.8 20.5722 328.108 20.8455C328.428 21.1189 328.679 21.4239 328.859 21.7604C329.051 22.0864 329.163 22.4124 329.195 22.7383H330.281C330.175 22.118 329.978 21.5764 329.69 21.1137C329.402 20.651 329.051 20.2619 328.635 19.9464C328.22 19.6309 327.746 19.3943 327.213 19.2366C326.682 19.0789 326.117 19 325.52 19C324.625 19 323.838 19.163 323.155 19.489C322.484 19.8045 321.925 20.2356 321.478 20.7824C321.03 21.3187 320.695 21.9392 320.471 22.6437C320.247 23.3483 320.135 24.0897 320.135 24.8678C320.135 25.646 320.247 26.3873 320.471 27.0918C320.695 27.7965 321.03 28.4168 321.478 28.9531C321.925 29.4894 322.484 29.9206 323.155 30.2465C323.838 30.562 324.625 30.7197 325.52 30.7197C325.935 30.7197 326.335 30.6777 326.718 30.5935C327.113 30.5095 327.481 30.378 327.821 30.1992C328.162 30.0099 328.471 29.7733 328.747 29.4894C329.035 29.195 329.275 28.848 329.466 28.4483H329.498L329.642 30.4989H330.425ZM121.093 47.0724H120.006C119.974 47.7664 120.066 48.3606 120.278 48.8548C120.502 49.3491 120.817 49.7539 121.221 50.0694C121.626 50.3848 122.115 50.6214 122.69 50.7792C123.266 50.9264 123.889 51 124.56 51C125.231 51 125.806 50.9369 126.285 50.8107C126.765 50.6951 127.164 50.5426 127.484 50.3533C127.815 50.1535 128.07 49.9327 128.251 49.6908C128.442 49.449 128.586 49.2124 128.682 48.981C128.789 48.7392 128.853 48.5131 128.874 48.3027C128.906 48.0925 128.922 47.9242 128.922 47.798C128.922 47.3354 128.842 46.941 128.682 46.615C128.534 46.289 128.32 46.0156 128.043 45.7947C127.777 45.5634 127.463 45.3741 127.1 45.2269C126.749 45.0691 126.371 44.9378 125.966 44.8325L123.186 44.1543C122.952 44.1018 122.728 44.0334 122.515 43.9492C122.313 43.8652 122.131 43.7548 121.971 43.618C121.812 43.4813 121.684 43.3183 121.588 43.129C121.504 42.9292 121.46 42.6979 121.46 42.435C121.46 42.0144 121.54 41.6621 121.7 41.3781C121.86 41.0942 122.067 40.8682 122.323 40.6999C122.59 40.5212 122.894 40.395 123.234 40.3213C123.585 40.2373 123.948 40.1951 124.32 40.1951C124.725 40.1951 125.109 40.253 125.471 40.3686C125.844 40.4739 126.169 40.6368 126.445 40.8576C126.733 41.068 126.962 41.3361 127.132 41.6621C127.314 41.9775 127.415 42.3509 127.436 42.782H128.522C128.522 42.2037 128.406 41.6989 128.171 41.2677C127.947 40.8261 127.643 40.4581 127.26 40.1636C126.877 39.8692 126.429 39.6483 125.918 39.5011C125.407 39.3539 124.869 39.2803 124.304 39.2803C123.505 39.2803 122.85 39.396 122.339 39.6273C121.828 39.8481 121.424 40.1216 121.125 40.4475C120.837 40.7736 120.641 41.1206 120.533 41.4886C120.427 41.8566 120.374 42.1774 120.374 42.4507C120.374 42.8924 120.443 43.2658 120.581 43.5707C120.731 43.8757 120.923 44.1333 121.157 44.3436C121.392 44.5539 121.663 44.7221 121.971 44.8483C122.291 44.9745 122.616 45.0797 122.946 45.1638L125.487 45.779C125.754 45.8421 126.025 45.9262 126.301 46.0313C126.579 46.126 126.829 46.2522 127.052 46.4099C127.287 46.5676 127.473 46.7622 127.612 46.9935C127.761 47.2249 127.835 47.4983 127.835 47.8137C127.835 48.2239 127.735 48.5762 127.532 48.8706C127.33 49.1545 127.074 49.3911 126.765 49.5804C126.467 49.7592 126.142 49.8907 125.79 49.9747C125.439 50.0589 125.114 50.1009 124.815 50.1009C124.294 50.1009 123.804 50.0536 123.346 49.9589C122.888 49.8538 122.488 49.6856 122.147 49.4542C121.817 49.2229 121.556 48.9127 121.364 48.5236C121.173 48.1345 121.082 47.6508 121.093 47.0724ZM130.637 39.5169L133.801 50.7792H134.983L137.859 40.6999H137.891L140.783 50.7792H141.933L145.081 39.5169H143.994L141.39 49.3753H141.358L138.562 39.5169H137.204L134.424 49.3753H134.392L131.803 39.5169H130.637ZM147.424 39.5169V50.7792H155.381V49.8643H148.51V45.4162H154.869V44.5013H148.51V40.4317H155.301V39.5169H147.424ZM158.036 39.5169V50.7792H165.993V49.8643H159.123V45.4162H165.482V44.5013H159.123V40.4317H165.913V39.5169H158.036ZM167.433 39.5169V40.4317H171.396V50.7792H172.482V40.4317H176.461V39.5169H167.433ZM184.255 39.5169V50.7792H185.342V45.4162H190.806V44.5013H185.342V40.4317H191.493V39.5169H184.255ZM194.458 45.148C194.458 44.5277 194.538 43.923 194.698 43.3341C194.868 42.7453 195.124 42.2194 195.465 41.7567C195.816 41.2835 196.264 40.9049 196.807 40.621C197.35 40.3371 198 40.1951 198.756 40.1951C199.512 40.1951 200.156 40.3371 200.689 40.621C201.233 40.9049 201.674 41.2835 202.016 41.7567C202.367 42.2194 202.623 42.7453 202.783 43.3341C202.953 43.923 203.038 44.5277 203.038 45.148C203.038 45.758 202.953 46.3626 202.783 46.962C202.623 47.5509 202.367 48.0819 202.016 48.5551C201.674 49.0178 201.233 49.3911 200.689 49.675C200.156 49.9589 199.512 50.1009 198.756 50.1009C198 50.1009 197.35 49.9589 196.807 49.675C196.264 49.3911 195.816 49.0178 195.465 48.5551C195.124 48.0819 194.868 47.5509 194.698 46.962C194.538 46.3626 194.458 45.758 194.458 45.148ZM193.372 45.148C193.372 45.9262 193.484 46.6676 193.707 47.3721C193.931 48.0767 194.266 48.6971 194.714 49.2334C195.161 49.7697 195.72 50.2008 196.392 50.5268C197.073 50.8423 197.861 51 198.756 51C199.651 51 200.434 50.8423 201.105 50.5268C201.776 50.2008 202.335 49.7697 202.783 49.2334C203.23 48.6971 203.565 48.0767 203.789 47.3721C204.013 46.6676 204.125 45.9262 204.125 45.148C204.125 44.3699 204.013 43.6286 203.789 42.924C203.565 42.2194 203.23 41.599 202.783 41.0627C202.335 40.5159 201.776 40.0847 201.105 39.7692C200.434 39.4433 199.651 39.2803 198.756 39.2803C197.861 39.2803 197.073 39.4433 196.392 39.7692C195.72 40.0847 195.161 40.5159 194.714 41.0627C194.266 41.599 193.931 42.2194 193.707 42.924C193.484 43.6286 193.372 44.3699 193.372 45.148ZM208.049 44.8641V40.4317H212.108C212.939 40.4317 213.556 40.6316 213.961 41.0311C214.365 41.4308 214.568 41.9775 214.568 42.6716C214.568 43.0186 214.499 43.3289 214.361 43.6022C214.233 43.8652 214.057 44.0912 213.833 44.2805C213.61 44.4698 213.348 44.617 213.05 44.7221C212.751 44.8168 212.438 44.8641 212.108 44.8641H208.049ZM206.963 39.5169V50.7792H208.049V45.779H212.172C212.683 45.758 213.082 45.8421 213.37 46.0313C213.668 46.2206 213.891 46.473 214.041 46.7885C214.201 47.0935 214.301 47.4458 214.345 47.8453C214.397 48.2344 214.435 48.6288 214.456 49.0283C214.467 49.144 214.477 49.2807 214.488 49.4384C214.499 49.5962 214.509 49.7592 214.52 49.9274C214.541 50.0851 214.568 50.2429 214.6 50.4006C214.642 50.5479 214.696 50.6741 214.76 50.7792H215.958C215.841 50.6425 215.745 50.4532 215.671 50.2113C215.607 49.9589 215.559 49.6961 215.527 49.4226C215.495 49.1387 215.473 48.8601 215.463 48.5867C215.452 48.3133 215.441 48.0819 215.431 47.8926C215.409 47.5562 215.361 47.2459 215.287 46.962C215.223 46.6676 215.111 46.4099 214.952 46.1891C214.802 45.9682 214.605 45.7896 214.361 45.6528C214.115 45.5056 213.806 45.4057 213.434 45.3531V45.3215C214.169 45.1744 214.722 44.8378 215.096 44.312C215.468 43.7863 215.655 43.1659 215.655 42.4507C215.655 41.946 215.559 41.5096 215.367 41.1415C215.186 40.763 214.936 40.4581 214.616 40.2267C214.307 39.9849 213.939 39.8061 213.514 39.6904C213.098 39.5748 212.656 39.5169 212.188 39.5169H206.963ZM227.528 46.1418V50.7792H228.615V46.1418L233.12 39.5169H231.826L228.088 45.2269L224.333 39.5169H223.055L227.528 46.1418ZM235.737 45.148C235.737 44.5277 235.817 43.923 235.977 43.3341C236.147 42.7453 236.403 42.2194 236.744 41.7567C237.095 41.2835 237.543 40.9049 238.086 40.621C238.629 40.3371 239.279 40.1951 240.035 40.1951C240.791 40.1951 241.436 40.3371 241.969 40.621C242.512 40.9049 242.954 41.2835 243.295 41.7567C243.646 42.2194 243.902 42.7453 244.062 43.3341C244.232 43.923 244.317 44.5277 244.317 45.148C244.317 45.758 244.232 46.3626 244.062 46.962C243.902 47.5509 243.646 48.0819 243.295 48.5551C242.954 49.0178 242.512 49.3911 241.969 49.675C241.436 49.9589 240.791 50.1009 240.035 50.1009C239.279 50.1009 238.629 49.9589 238.086 49.675C237.543 49.3911 237.095 49.0178 236.744 48.5551C236.403 48.0819 236.147 47.5509 235.977 46.962C235.817 46.3626 235.737 45.758 235.737 45.148ZM234.651 45.148C234.651 45.9262 234.763 46.6676 234.986 47.3721C235.21 48.0767 235.546 48.6971 235.993 49.2334C236.44 49.7697 237 50.2008 237.671 50.5268C238.352 50.8423 239.141 51 240.035 51C240.93 51 241.713 50.8423 242.384 50.5268C243.055 50.2008 243.614 49.7697 244.062 49.2334C244.509 48.6971 244.845 48.0767 245.068 47.3721C245.292 46.6676 245.404 45.9262 245.404 45.148C245.404 44.3699 245.292 43.6286 245.068 42.924C244.845 42.2194 244.509 41.599 244.062 41.0627C243.614 40.5159 243.055 40.0847 242.384 39.7692C241.713 39.4433 240.93 39.2803 240.035 39.2803C239.141 39.2803 238.352 39.4433 237.671 39.7692C237 40.0847 236.44 40.5159 235.993 41.0627C235.546 41.599 235.21 42.2194 234.986 42.924C234.763 43.6286 234.651 44.3699 234.651 45.148ZM248.13 39.5169V46.7254C248.13 47.3038 248.21 47.8559 248.37 48.3816C248.54 48.8969 248.801 49.3491 249.153 49.7381C249.515 50.1273 249.972 50.4374 250.527 50.6688C251.091 50.8896 251.767 51 252.556 51C253.355 51 254.031 50.8896 254.585 50.6688C255.149 50.4374 255.608 50.1273 255.959 49.7381C256.321 49.3491 256.582 48.8969 256.742 48.3816C256.912 47.8559 256.998 47.3038 256.998 46.7254V39.5169H255.911V46.4888C255.911 47.1408 255.836 47.6981 255.688 48.1608C255.538 48.613 255.32 48.9863 255.033 49.2807C254.745 49.5646 254.393 49.775 253.978 49.9116C253.563 50.0378 253.088 50.1009 252.556 50.1009C252.033 50.1009 251.565 50.0378 251.15 49.9116C250.735 49.775 250.383 49.5646 250.095 49.2807C249.808 48.9863 249.589 48.613 249.44 48.1608C249.291 47.6981 249.217 47.1408 249.217 46.4888V39.5169H248.13ZM261.408 44.8641V40.4317H265.466C266.297 40.4317 266.914 40.6316 267.319 41.0311C267.723 41.4308 267.926 41.9775 267.926 42.6716C267.926 43.0186 267.857 43.3289 267.719 43.6022C267.591 43.8652 267.415 44.0912 267.191 44.2805C266.968 44.4698 266.706 44.617 266.409 44.7221C266.11 44.8168 265.796 44.8641 265.466 44.8641H261.408ZM260.321 39.5169V50.7792H261.408V45.779H265.53C266.041 45.758 266.441 45.8421 266.728 46.0313C267.026 46.2206 267.25 46.473 267.399 46.7885C267.559 47.0935 267.659 47.4458 267.703 47.8453C267.755 48.2344 267.793 48.6288 267.815 49.0283C267.825 49.144 267.835 49.2807 267.847 49.4384C267.857 49.5962 267.867 49.7592 267.879 49.9274C267.899 50.0851 267.926 50.2429 267.958 50.4006C268.001 50.5479 268.054 50.6741 268.118 50.7792H269.317C269.199 50.6425 269.103 50.4532 269.029 50.2113C268.965 49.9589 268.917 49.6961 268.885 49.4226C268.853 49.1387 268.831 48.8601 268.821 48.5867C268.81 48.3133 268.8 48.0819 268.789 47.8926C268.768 47.5562 268.72 47.2459 268.645 46.962C268.582 46.6676 268.47 46.4099 268.31 46.1891C268.16 45.9682 267.963 45.7896 267.719 45.6528C267.473 45.5056 267.164 45.4057 266.792 45.3531V45.3215C267.527 45.1744 268.081 44.8378 268.454 44.312C268.826 43.7863 269.013 43.1659 269.013 42.4507C269.013 41.946 268.917 41.5096 268.725 41.1415C268.544 40.763 268.294 40.4581 267.974 40.2267C267.665 39.9849 267.298 39.8061 266.872 39.6904C266.457 39.5748 266.014 39.5169 265.546 39.5169H260.321ZM279.273 39.5169L283.059 49.3911L286.99 39.5169H288.588V50.7792H287.501V41.0469H287.469L283.571 50.7792H282.548L278.793 41.0469H278.762V50.7792H277.675V39.5169H279.273ZM292.45 45.148C292.45 44.5277 292.53 43.923 292.689 43.3341C292.859 42.7453 293.115 42.2194 293.456 41.7567C293.808 41.2835 294.255 40.9049 294.798 40.621C295.342 40.3371 295.991 40.1951 296.748 40.1951C297.504 40.1951 298.148 40.3371 298.681 40.621C299.224 40.9049 299.666 41.2835 300.007 41.7567C300.359 42.2194 300.614 42.7453 300.774 43.3341C300.944 43.923 301.03 44.5277 301.03 45.148C301.03 45.758 300.944 46.3626 300.774 46.962C300.614 47.5509 300.359 48.0819 300.007 48.5551C299.666 49.0178 299.224 49.3911 298.681 49.675C298.148 49.9589 297.504 50.1009 296.748 50.1009C295.991 50.1009 295.342 49.9589 294.798 49.675C294.255 49.3911 293.808 49.0178 293.456 48.5551C293.115 48.0819 292.859 47.5509 292.689 46.962C292.53 46.3626 292.45 45.758 292.45 45.148ZM291.363 45.148C291.363 45.9262 291.475 46.6676 291.699 47.3721C291.922 48.0767 292.258 48.6971 292.705 49.2334C293.153 49.7697 293.712 50.2008 294.383 50.5268C295.064 50.8423 295.853 51 296.748 51C297.642 51 298.425 50.8423 299.096 50.5268C299.767 50.2008 300.327 49.7697 300.774 49.2334C301.221 48.6971 301.557 48.0767 301.781 47.3721C302.004 46.6676 302.116 45.9262 302.116 45.148C302.116 44.3699 302.004 43.6286 301.781 42.924C301.557 42.2194 301.221 41.599 300.774 41.0627C300.327 40.5159 299.767 40.0847 299.096 39.7692C298.425 39.4433 297.642 39.2803 296.748 39.2803C295.853 39.2803 295.064 39.4433 294.383 39.7692C293.712 40.0847 293.153 40.5159 292.705 41.0627C292.258 41.599 291.922 42.2194 291.699 42.924C291.475 43.6286 291.363 44.3699 291.363 45.148ZM304.843 39.5169V46.7254C304.843 47.3038 304.922 47.8559 305.082 48.3816C305.252 48.8969 305.514 49.3491 305.865 49.7381C306.227 50.1273 306.686 50.4374 307.239 50.6688C307.804 50.8896 308.48 51 309.268 51C310.067 51 310.744 50.8896 311.298 50.6688C311.862 50.4374 312.32 50.1273 312.672 49.7381C313.033 49.3491 313.295 48.8969 313.455 48.3816C313.625 47.8559 313.71 47.3038 313.71 46.7254V39.5169H312.624V46.4888C312.624 47.1408 312.549 47.6981 312.4 48.1608C312.25 48.613 312.032 48.9863 311.745 49.2807C311.457 49.5646 311.106 49.775 310.69 49.9116C310.275 50.0378 309.801 50.1009 309.268 50.1009C308.747 50.1009 308.278 50.0378 307.862 49.9116C307.447 49.775 307.095 49.5646 306.808 49.2807C306.52 48.9863 306.302 48.613 306.153 48.1608C306.003 47.6981 305.929 47.1408 305.929 46.4888V39.5169H304.843ZM315.819 39.5169V40.4317H319.782V50.7792H320.868V40.4317H324.847V39.5169H315.819ZM327.053 39.5169V50.7792H328.139V45.3215H334.913V50.7792H336V39.5169H334.913V44.4067H328.139V39.5169H327.053Z" fill="#C41218"/>
</svg>
