<svg width="95" height="56" fill="none" xmlns="http://www.w3.org/2000/svg"><path d="M30.253 0v30.947H19.586v-11.79H11.3v11.79H.633V0H11.3v10.316h8.286V0h10.667zM95 7.368H84.61v23.58h-8.907V7.367h-10.39L65.425 0H95v7.368zM15.062 51.25c-.499 1.504-1.371 2.675-2.617 3.516C11.215 55.589 9.738 56 8.01 56c-1.602 0-3.008-.367-4.219-1.1-1.21-.751-2.145-1.816-2.804-3.193C.33 50.33 0 48.72 0 46.877c0-1.842.33-3.452.988-4.83.659-1.376 1.593-2.432 2.804-3.165 1.21-.751 2.608-1.127 4.193-1.127 3.525 0 5.804 1.458 6.836 4.373l-1.308.617c-.41-1.252-1.069-2.19-1.976-2.817-.89-.626-2.048-.939-3.472-.939-1.318 0-2.484.322-3.498.966-.997.626-1.772 1.538-2.324 2.737-.552 1.18-.828 2.576-.828 4.185 0 1.61.267 3.014.802 4.213.551 1.18 1.317 2.093 2.296 2.737.997.626 2.163.939 3.498.939 1.425 0 2.635-.349 3.632-1.047.997-.697 1.692-1.69 2.083-2.978l1.336.51zm47.903-5.07l-3.525 3.595V56h-1.336V36.842h1.336v11.109l9.667-11.109h1.762l-6.97 8.345L71.056 56h-1.629l-6.462-9.82zM75.739 56h-1.335V36.842h1.335V56zm17.777-1.474V56H81.64V36.842h11.875v1.474h-10.39v7.368h8.906v1.474h-8.906v7.368h10.39z" fill="#C41218"/><path fill-rule="evenodd" clip-rule="evenodd" d="M48.242 30.947c8.608 0 15.586-6.927 15.586-15.473C63.828 6.928 56.85 0 48.242 0S32.656 6.928 32.656 15.474s6.978 15.473 15.586 15.473zm0-10.315c2.87 0 5.196-2.31 5.196-5.158 0-2.849-2.327-5.158-5.196-5.158-2.87 0-5.195 2.31-5.195 5.158 0 2.848 2.326 5.158 5.195 5.158zM26.719 56c4.918 0 8.906-3.959 8.906-8.842 0-4.883-3.988-8.842-8.906-8.842-4.919 0-8.907 3.959-8.907 8.842C17.813 52.04 21.8 56 26.72 56zm0-1.474c4.099 0 7.422-3.299 7.422-7.368 0-4.07-3.323-7.369-7.422-7.369-4.1 0-7.422 3.3-7.422 7.369 0 4.07 3.323 7.368 7.422 7.368zM46.016 56c4.918 0 8.906-3.959 8.906-8.842 0-4.883-3.988-8.842-8.906-8.842-4.92 0-8.907 3.959-8.907 8.842 0 4.883 3.988 8.842 8.907 8.842zm0-1.474c4.099 0 7.422-3.299 7.422-7.368 0-4.07-3.323-7.369-7.422-7.369-4.1 0-7.422 3.3-7.422 7.369 0 4.07 3.323 7.368 7.422 7.368z" fill="#C41218"/></svg>