<svg version="1.0" xmlns="http://www.w3.org/2000/svg" width="2400" height="2400" viewBox="0 0 1800 1800" preserveAspectRatio="xMidYMid meet"><g fill="#fff" file-rule="evenodd" stroke="none"><path d="M155 1c0 .5-2 1-4.4 1-2.5 0-4.8.4-5.1 1-.3.5-2.4 1-4.6 1-2.8 0-3.9.4-3.9 1.5 0 1-1.1 1.5-3.5 1.5-1.9 0-3.5.4-3.5 1 0 .5-1.8 1-4 1-2.9 0-4 .4-4 1.5 0 .9-.9 1.5-2.5 1.5-1.4 0-2.5.4-2.5 1 0 .5-1.5 1-3.4 1-2.1 0-3.6.6-4 1.5-.3.8-1.5 1.5-2.6 1.5-1.2 0-1.8.4-1.5 1 .4.6-.7 1-2.4 1-2.1 0-3.1.5-3.1 1.5 0 .8-.7 1.5-1.5 1.5s-1.5.4-1.5 1c0 .5-.9 1-2 1-1.2 0-3.1 1-4.3 2.3-1.2 1.3-3.9 3.1-5.9 4.1-2.1.9-3.8 2.1-3.8 2.6 0 .6-.9 1-2 1s-2 .4-2 1c0 .5-.7 1-1.5 1s-1.5.7-1.5 1.5-.7 1.5-1.5 1.5-1.5.4-1.5 1c0 .5-.9 1-1.9 1-1.2 0-2.1.9-2.5 2.5-.4 1.6-1.3 2.5-2.6 2.5-1.1 0-2 .7-2 1.5s-.5 1.5-1.1 1.5c-1.4 0-3.9 2.5-3.9 3.9 0 .6-.5 1.1-1.1 1.1-1.4 0-3.9 2.5-3.9 3.9 0 .6-.5 1.1-1.1 1.1-1.3 0-3.9 2.5-3.9 3.8 0 .5-.9 1.2-2 1.5-1.1.3-2.4 1.6-2.9 2.9-.5 1.2-1.8 3-3 3.8-1.2.8-2.1 2-2.1 2.7 0 .7-.5 1.3-1.1 1.3-1.9 0-4.1 3-3.6 5 .4 1.5 0 2-1.4 2-1 0-1.9.7-1.9 1.5s-.4 1.5-1 1.5c-.5 0-1 .8-1 1.7 0 1-1.2 2.8-2.6 4-1.8 1.5-2.5 2.9-2.1 4.3.4 1.5 0 2-1.4 2s-1.9.7-1.9 2.5c0 1.4-.5 2.5-1.1 2.5-.6 0-.9.7-.5 1.5.4 1-.1 1.5-1.4 1.5-1.3 0-2 .7-2 2 0 1.1-.5 2-1.1 2-.5 0-1 .8-.9 1.7.3 2.5-1 6.3-2.1 6.3-.5 0-.9.7-.9 1.5s-.5 1.5-1.1 1.5c-.8 0-1 1.2-.6 3.5.5 2.8.2 3.5-1.4 4-1.2.4-1.9 1.5-1.9 3 0 1.3-.5 2.7-1.1 3.1-.7.4-.9 2.2-.6 4.5.3 2.7.1 3.9-.9 4.3C.2 142.9 0 253.1 0 900c0 670.4.2 757.1 1.5 757.6 1 .4 1.3 1.4.9 3-.4 1.5-.2 2.4.5 2.4.6 0 1.1 1.5 1.1 3.3 0 2 .7 3.8 1.8 4.6 1.3.9 1.7 2.2 1.4 4.2-.3 1.7 0 2.9.7 2.9.6 0 1.1.6 1.1 1.3 0 .7.8 1.8 1.8 2.5 1.3 1 1.7 2.3 1.4 4.8-.3 2.1 0 3.4.7 3.4.6 0 1.1.6 1.1 1.3 0 .7.9 1.9 1.9 2.6 1.1.8 1.7 2 1.4 2.8-.3.7 0 1.3.6 1.3s1.1 1.1 1.1 2.5c0 1.8.5 2.5 2 2.5 1.3 0 1.8.5 1.4 1.5-.4.8-.1 1.5.5 1.5s1.1.9 1.1 1.9c0 1 .7 2.1 1.5 2.5.8.3 1.5 1.5 1.5 2.6s.5 2 1 2c.6 0 1 .6 1 1.3 0 .7 1.1 2.1 2.5 3.1s2.5 2.7 2.5 3.7c0 1.1.9 1.9 2.3 2.1 1.4.2 2.3 1.1 2.5 2.5.2 1.3.8 2.3 1.3 2.3s1.4 1.2 1.9 2.6c.6 1.4 1.9 2.8 3 3.1 1.1.3 2 1.2 2 1.9 0 .8.9 1.4 1.9 1.4 1.1 0 2.3.9 2.6 2 .3 1.1 1.1 2 1.6 2s.9.7.9 1.5.5 1.5 1.1 1.5c1.4 0 3.9 2.5 3.9 3.9 0 .6.7 1.1 1.5 1.1s1.5.4 1.5 1c0 .5.9 1 2 1 1.3 0 1.8.5 1.4 1.5-.4 1 0 1.5 1.1 1.5 1 0 2.8 1.1 4.1 2.5 1.3 1.4 2.8 2.5 3.4 2.5.6 0 2.1 1.1 3.4 2.5 1.3 1.4 2.8 2.5 3.5 2.5.6 0 1.1.4 1.1 1 0 .5.9 1 2 1 1.3 0 1.8.5 1.4 1.5-.4 1 0 1.5 1.5 1.5 1.2 0 2.1.4 2.1 1 0 .5.7 1 1.5 1s1.5.7 1.5 1.5c0 .9.9 1.5 2.5 1.5 1.4 0 2.5.4 2.5.9s1.4 1.1 3.1 1.5c3 .6 6.2 2.9 5.3 3.8-.2.3 1.6.8 4.2 1.2 2.7.3 5.4 1.4 6.3 2.5.9 1 3.6 2.2 6.1 2.6 2.5.4 5.2 1.5 6 2.5 1 1.1 3.8 2 8.5 2.5 5.3.5 7.3 1.2 8.3 2.7 1.1 1.6 2.3 1.9 5.7 1.6 3.4-.2 4.1 0 3.3.9-.8 1 147.9 1.3 743.7 1.3 595.8 0 744.5-.3 743.7-1.3-.8-.9-.1-1.1 3.3-.9 3.4.3 4.6 0 5.7-1.6 1-1.5 3-2.2 8.3-2.7 5-.6 7.5-1.3 8.7-2.7 1-1.1 3.5-2.2 6-2.5 2.4-.4 5-1.4 5.8-2.4.9-.9 3.7-2 6.3-2.4 3.2-.5 4.8-1.3 5.2-2.6.4-1.1 2-2.1 4.1-2.5 1.9-.3 3.4-1 3.4-1.5s1.1-.9 2.5-.9c1.6 0 2.5-.6 2.5-1.5 0-.8.7-1.5 1.5-1.5s1.5-.5 1.5-1c0-.6.9-1 2-1s2-.7 2-1.5.7-1.5 1.5-1.5 1.5-.5 1.5-1c0-.6 1.1-1 2.4-1 1.7 0 2.6-.7 3-2.5.5-2 1.3-2.5 3.7-2.5 2 0 2.9-.4 2.7-1.2-.6-1.6 1.6-3.8 3.7-3.8 1.1 0 1.5-.5 1.1-1.5-.4-1 .1-1.5 1.4-1.5 1.1 0 2-.5 2-1 0-.6.7-1 1.5-1s1.5-.7 1.5-1.5.4-1.5.9-1.5 1.2-.9 1.6-1.9c.3-1.1 1.5-2.3 2.5-2.6 1-.3 2.2-1.5 2.5-2.6.4-1 1.5-1.9 2.6-1.9 1 0 1.9-.7 1.9-1.5 0-.9 1.1-2 2.5-2.5 1.5-.6 2.5-1.7 2.5-3 0-1.1.6-2 1.4-2 .8 0 1.6-1 1.8-2.3.2-1.4 1.1-2.3 2.6-2.5 1.6-.3 2.2-1 2.2-2.8 0-1.3.5-2.4 1.2-2.4.6 0 .8-.3.5-.6-.7-.7 3-4.4 4.5-4.4.4 0 .8-1.1.8-2.5 0-1.6.6-2.5 1.5-2.5.8 0 1.5-.9 1.5-2s.5-2 1.1-2c.6 0 .9-.6.6-1.3-.3-.8.3-2 1.4-2.8 1-.7 1.9-1.9 1.9-2.6 0-.7.5-1.3 1.1-1.3.6 0 .9-.7.5-1.5-.4-1 .1-1.5 1.4-1.5 1.6 0 2-.7 2-3.5 0-1.9.5-3.5 1.1-3.5.7 0 .9-1 .7-2.5-.4-1.9-.1-2.5 1.3-2.5 1.4 0 1.9-.7 1.9-2.5 0-1.4.5-2.5 1.1-2.5.7 0 .9-1 .7-2.5-.3-1.4-.1-2.5.3-2.5.5 0 .9-1 .9-2.3 0-1.2 1-2.8 2.1-3.5 1.8-1.1 2.1-2 1.6-5.3-.3-2.1-.1-3.9.4-3.9s.9-1.3.9-2.9c0-2 .6-3 2-3.4 1.5-.4 2-1.4 2-3.6 0-1.7.5-3.1 1-3.1.7 0 1-248.7 1-744.1 0-594.9-.3-744-1.2-743.6-1 .3-1.2-.7-.9-4 .3-3.8 0-4.5-1.8-5-1.7-.4-2.1-1.3-2.1-4.4 0-2.2-.4-3.9-.8-3.9-.5 0-.7-1.3-.4-2.9.3-2.2-.1-3.3-1.7-4.3-1.2-.7-2.1-2.3-2.1-3.5 0-1.3-.4-2.3-.9-2.3-.4 0-.6-1.1-.3-2.5.2-1.5 0-2.5-.7-2.5-.6 0-1.1-1.1-1.1-2.5 0-1.7-.5-2.5-1.8-2.5-1.5 0-1.7-.6-1.4-3.5.3-2.1 0-3.5-.7-3.5-.6 0-1.1-1.1-1.1-2.5 0-1.8-.5-2.5-2-2.5-1.3 0-1.8-.5-1.4-1.5.4-.8.1-1.5-.5-1.5s-1.1-1.1-1.1-2.5c0-1.8-.5-2.5-1.9-2.5s-1.8-.5-1.4-2c.5-2-1.7-5-3.6-5-.6 0-1.1-1.1-1.1-2.5s-.4-2.5-1-2.5c-.5 0-1-.7-1-1.5s-.7-1.5-1.5-1.5c-.9 0-1.5-.9-1.5-2.1 0-2.2-2.2-4.9-3.9-4.9-.6 0-1.1-.6-1.1-1.3 0-.7-.9-1.9-2-2.7-1.1-.8-2-1.8-2-2.2 0-1.4-3.4-4.8-4.7-4.8-.7 0-1.3-.5-1.3-1.1 0-1.4-2.5-3.9-3.9-3.9-.6 0-1.1-.5-1.1-1.1 0-1.4-2.5-3.9-3.9-3.9-.6 0-1.1-.5-1.1-1.1 0-1.4-2.5-3.9-3.9-3.9-.6 0-1.1-.7-1.1-1.5s-.9-1.5-2-1.5c-1.3 0-2.2-.9-2.6-2.5-.4-1.6-1.3-2.5-2.5-2.5-1 0-1.9-.5-1.9-1 0-.6-.7-1-1.5-1s-1.5-.7-1.5-1.5-.7-1.5-1.5-1.5-1.5-.5-1.5-1c0-.6-.9-1-2-1s-2-.5-2-1c0-.6-1.1-1.5-2.5-2s-2.8-1.7-3.1-2.5c-.4-.8-1.5-1.5-2.5-1.5-1.1 0-2.2-.7-2.5-1.5-.4-.8-1.7-1.5-3-1.5s-2.4-.5-2.4-1c0-.6-.7-1-1.5-1s-1.5-.7-1.5-1.5c0-.9-.9-1.5-2.5-1.5-1.4 0-2.5-.4-2.5-.9s-1.6-1.2-3.5-1.5c-1.9-.4-3.5-1.1-3.5-1.6 0-.6-1.1-1-2.5-1s-2.5-.5-2.5-1c0-.6-1.1-1-2.5-1-1.6 0-2.5-.6-2.5-1.5 0-1.1-1.1-1.5-4-1.5-2.2 0-4-.5-4-1 0-.6-1.1-1-2.5-1-1.6 0-2.5-.6-2.5-1.5 0-1.1-1.2-1.5-4.9-1.5-2.8 0-5.3-.5-5.6-1-.3-.6-2.6-1-5.1-1-2.4 0-4.4-.5-4.4-1 0-.7-248.2-1-742.5-1S155 .3 155 1zm815.8 337.5c127.4 13.3 225.3 97.1 247.6 212.1 4.2 21.8 5.1 32.4 5 58.4-.1 44-6.6 76.4-22.7 112.5-38.8 87-125.1 143.6-233.9 153.6-19 1.7-64.6.6-81.8-1.9-55.6-8.4-102.5-27.5-142.1-57.8-46.7-35.8-78.7-87.4-91.3-146.9-6.8-32.7-7.6-75.8-2-109.5 8.1-48.6 30.5-94.4 65.1-132.8 34.8-38.7 88.6-68.7 146.3-81.6 11-2.4 35.6-6.2 45-6.9 13.8-1 51.5-.6 64.8.8zm705.4 1.2c1.7 1.5 1.8 5.6 1.8 88.3 0 73.2-.2 86.9-1.4 87.9-1.1.9-11.8.7-45.3-.8-24.1-1.1-47.5-2.3-52-2.6l-8.3-.6v181.2c0 167.2-.1 181.4-1.7 183.1-1.5 1.7-5.9 1.8-98.1 1.8-88.4 0-96.7-.1-98.4-1.7-1.7-1.5-1.8-8.5-1.8-183V512l-7.7.5c-19 1.3-96.5 4.5-97.3 4-1.6-1-1.3-175.8.2-177.3.9-.9 47.7-1.2 204.7-1.2 187.9 0 203.6.1 205.3 1.7zm-1393.4.5c.9.9 1.2 22.3 1.2 90V519h114v-88.2c0-80.6.1-88.3 1.7-90 1.5-1.7 5.8-1.8 94.8-1.8 71.1 0 93.4.3 94.3 1.2 1.7 1.7 1.7 535.9 0 537.6-.9.9-23.2 1.2-94.2 1.2-85.1 0-93.1-.1-94.8-1.7-1.7-1.5-1.8-5.7-1.8-93V693H284v91.8c0 70.1-.3 92.1-1.2 93-.9.9-23.2 1.2-94.2 1.2-85.1 0-93.1-.1-94.8-1.7-1.7-1.6-1.8-11.2-1.8-268.1 0-246.6.1-266.7 1.7-268.4 1.5-1.7 5.8-1.8 94.8-1.8 71.1 0 93.4.3 94.3 1.2zm1437.2 2.3c0 1-1 1.5-3 1.5h-3v8c0 6.4-.3 8-1.5 8s-1.5-1.6-1.5-8v-8h-3c-2.9 0-3.8-.9-2.3-2.3.3-.4 3.7-.7 7.5-.7 5.4 0 6.8.3 6.8 1.5zm8.9 4.6l2.8 6.1 2.6-6.1c2-4.6 3.1-6.1 4.7-6.1 1.9 0 2 .6 2 9.5 0 7.8-.3 9.5-1.5 9.5s-1.5-1.4-1.5-6.3l-.1-6.2-2.9 6.2c-1.6 3.5-3.1 6.3-3.4 6.3-.3 0-1.9-2.8-3.5-6.3l-2.9-6.2-.1 6.2c-.1 4.9-.4 6.3-1.6 6.3-1.2 0-1.5-1.7-1.5-9.5 0-8.9.1-9.5 2.1-9.5 1.5 0 2.7 1.5 4.8 6.1zM298.3 957.9c22.3 4.9 48.1 16.2 65.7 28.9l9.5 6.9.3 14.3.3 14.3-8.8-8.4c-14.9-14.4-33.8-25.2-57-32.8-37.4-12.3-77.1-9.2-112.7 8.6-16.3 8.2-28.8 17.5-42.2 31.6-40.3 42.1-50.5 99.7-26.3 147.8 5.2 10.4 10.3 18.1 18.8 28.3 20.3 24.3 56 45 90.1 52.3 12 2.5 42 2.5 54 0 28.8-6.2 59.2-20.9 77.1-37.5l6.9-6.4v27.1l-5.3 4c-19.6 14.4-45 25.7-70.7 31.3-9.3 2-13.2 2.2-34 2.2-20.6 0-24.8-.3-33.9-2.2-37.1-8.1-67.3-24.4-92.3-49.8-9.8-10-13-13.9-19.8-23.9-19.1-28.4-27.6-59.7-24.9-92.2 1.7-20.9 5.6-35 14.9-53.8 24.3-48.7 72-82.7 129.5-92 13.6-2.2 47.8-1.4 60.8 1.4zm323.2 0c66.2 13.4 118.2 62.1 132.6 124.1 3 12.6 3.7 39.1 1.5 53.5-9 58-53.9 107.9-114.9 127.4-20.2 6.5-27.8 7.5-54.2 7.5-21.2 0-25.2-.2-34.5-2.2-54.3-11.8-98-44.5-121-90.7-9.3-18.8-13.4-33.6-15-54-6.1-80.6 56-152.8 143.5-167 13.9-2.2 47.7-1.4 62 1.4zm373 0c66.2 13.4 118.2 62.1 132.6 124.1 3 12.6 3.7 39.1 1.5 53.5-9 58-53.9 107.9-114.9 127.4-20.2 6.5-27.8 7.5-54.2 7.5-21.2 0-25.2-.2-34.5-2.2-54.3-11.8-98-44.5-121-90.7-9.3-18.8-13.4-33.6-15-54-6.1-80.6 56-152.8 143.5-167 13.9-2.2 47.7-1.4 62 1.4zm208.7 72.2l.3 71.1 77.3-71.1 77.2-71.2 14.2.3 14.2.3-80.3 73.9c-76.6 70.5-80.1 74-78.4 75.6 1 1 39.5 36.9 85.6 79.9l83.7 78.1h-28.5l-78.4-73c-43.1-40.2-78.7-73-79-73-.3 0-2.3 1.6-4.3 3.5l-3.8 3.5v139h-22V959h22l.2 71.1zM1451 1113v154h-22V959h22v154zm228-144.5v9.5h-136v111h132v19h-132v140h136v19h-158V959h158v9.5zM437.8 1315.3l.3 3.7 17.2-.2 17.2-.3.3-3.8.3-3.7H487v4.4c0 4.9 1.3 8.3 6.8 17.3 11.8 19.5 10.9 18.2 23.6 34.3 6.5 8.3 29.9 31.9 36.1 36.5 2.2 1.6 7.2 5.3 11.1 8.2 3.9 2.9 7.4 5.3 7.7 5.3.4 0 2.4 1.1 4.5 2.3 6.3 4 14.6 8.4 17.2 9.2 1.4.4 3.9 1.3 5.5 2 8.5 3.6 16.9 6.5 20.5 7.1 3.8.6 4 .5 4-2s.2-2.6 5.5-2.6h5.4l.3 29.5c.3 28.6.4 29.5 2.4 31.6l2.2 2.1 2.1-2.1c2-2 2.1-2.9 2.1-32.1 0-28.7-.1-30.1-2-32-1.1-1.1-3.1-2-4.4-2-3.7 0-8.9-4.1-11.3-9-2.3-4.3-2.3-5.2-2.3-38v-33.6l2.5-5.1c3.3-6.5 6.5-8.7 13.2-8.7 6.2-.1 9.7 2.1 13.3 8.5l2.5 4.4.3 31.7.3 31.8H644v-29.4c0-27.6-.1-29.5-1.9-31.7l-2-2.4-2.3 2.3c-2.3 2.2-2.3 2.4-2.6 31-.2 31.4 0 33 5.3 34.5 7.2 2.2 9.4 3.7 12.2 8.4l2.8 4.8v34.5c0 33.8 0 34.6-2.2 38.7-3.2 5.8-7.5 8.7-13.4 8.7-2.7 0-5.7-.7-7.2-1.7-2.5-1.6-16.2-1.7-198.2-1.7H239v-8h9c7.7 0 9.8-.4 15.2-2.9 11.1-5.1 16-7.3 27.3-12.3 6-2.6 12.5-5.8 14.5-7.1 1.9-1.3 5.2-3.1 7.3-4.1 2-.9 6.3-3.5 9.5-5.7 3.1-2.2 8.2-5.6 11.2-7.6s6.9-4.8 8.6-6.2c1.7-1.4 4.9-4 7.1-5.8 5.9-4.7 22.2-21.1 26.8-26.8 2.2-2.7 4.8-5.8 5.8-6.7.9-1 1.7-2.2 1.7-2.6 0-.5 1.4-2.4 3-4.2 7.8-8.7 23.4-38.3 30.1-57.2 4-11.1 8.9-30 8.9-34.2 0-3 1.2-3.5 7.5-3.3l5 .2.3 3.8zm839.4-.6l.3 3.8 17.2.3 17.2.2.3-3.7c.3-3.6.5-3.8 4.2-4.1 6.1-.5 8.6.4 8.6 3.3 0 3.5 4.5 21.6 7.4 30 5 14.1 5.8 16 10.6 25.9 7.5 15.3 16.4 30.5 21 35.6 1.6 1.8 3 3.7 3 4.2 0 .4.8 1.6 1.8 2.6.9.9 3.5 4 5.7 6.7 9.8 12.2 29.3 29.9 43.4 39.4 2.2 1.4 6.6 4.5 10 6.8 3.4 2.3 7.8 5 9.9 5.9 2 1 5.3 2.8 7.2 4.1 2 1.3 8.5 4.5 14.5 7.1 11.3 5 16.2 7.2 27.3 12.3 5.4 2.5 7.5 2.9 15.2 2.9h9v8h-195.8c-182.3 0-195.9.1-198.2 1.7-3.3 2.3-10.7 2.2-14.8-.2-1.9-1.2-4.3-4-5.7-6.9l-2.5-5v-59.5c0-38.4.4-60.9 1.1-63.4.5-2 2.5-5.3 4.4-7.2 8.9-8.8 22.6-3.5 25.5 9.7.5 2.8 1 17.5 1 34v29.1l4-.7c3.6-.6 12-3.5 20.5-7.1 1.7-.7 4.1-1.6 5.5-2 1.4-.4 5.9-2.7 10-5s9.3-5.3 11.5-6.5c2.2-1.2 5.8-3.7 8-5.4 2.2-1.8 6.2-4.7 8.8-6.5 6.5-4.4 31-28.8 38.3-38.1 12.7-16.2 11.8-14.9 23.6-34.3 5.5-9 6.8-12.4 6.8-17.3v-4.4h13.9l.3 3.7zM814 1340v7h-17l.2 33.7.3 33.8 6.8.3 6.7.3v12.9h-14v82h-11v-177h28v7zm-124.1 23.7c1.4 1.1 3.7 4 5.1 6.4l2.5 4.4v135h-10c-12.2 0-15.3-1.5-19-8.9l-2.5-5v-33.5c0-30.4.2-34 1.9-37.6 2.8-6.3 7.3-9.5 13.2-9.5h4.9v-17.9c0-15.6-.2-18.2-1.8-20.1-3.6-4.4-7.2.4-7.2 9.5v5.5h-11.2l.4-9.8c.3-8.7.6-10.3 2.9-13.9 1.5-2.2 4.2-4.7 6-5.7 4.2-2.1 11.1-1.6 14.8 1.1zm38.5-1.3c4.5 1.9 8.3 7.1 9.6 13.2.7 3.2.9 27.1.8 69.4l-.3 64.5-5.7.3-5.8.3v-65.3c0-72.1.2-69.8-6.1-69.8H718v135h-11v-149h9c5.5 0 10.4.6 12.4 1.4zM853 1368v7h-17v135h-11v-149h28v7zm33.9-4.3c1.4 1.1 3.7 4 5.1 6.4l2.5 4.4v135h-10c-12.2 0-15.3-1.5-19-8.9l-2.5-5v-33.5c0-30.4.2-34 1.9-37.6 2.8-6.3 7.3-9.5 13.2-9.5h4.9v-17.9c0-15.6-.2-18.2-1.8-20.1-3.6-4.4-7.2.4-7.2 9.5v5.5h-11.2l.4-9.8c.3-8.7.6-10.3 2.9-13.9 1.5-2.2 4.2-4.7 6-5.7 4.2-2.1 11.1-1.6 14.8 1.1zm39.5-1.3c4.5 1.9 8.3 7.1 9.6 13.2.7 3.2.9 27.1.8 69.4l-.3 64.5-5.7.3-5.8.3v-65.3c0-72.1.2-69.8-6.1-69.8H916v135h-11v-149h9c5.5 0 10.4.6 12.4 1.4zm42 0c6.8 2.8 10.5 10.9 10.6 22.8v5.8h-12v-5.9c0-9.2-4.8-13.2-7.9-6.5-.8 1.8-1.1 18.6-1.1 57.4v54.9l2.3 2.7 2.4 2.7 2.1-2.1c1.8-1.8 2.2-3.4 2.2-8.2v-6h12.3l-.5 8.3c-.9 13.8-6.3 21.1-15.7 21.1-6.4 0-10.6-2.8-13.7-9l-2.5-5 .3-61.5.3-61.5 2.6-4.1c4.4-6.6 11.3-8.8 18.3-5.9zm31.6 5.6v7h-11v-14h11v7zm34.9-4.3c1.4 1.1 3.7 4 5.1 6.4 2.4 4.3 2.5 4.9 2.8 29.1l.4 24.8H1031v-22.4c0-19.9-.2-22.6-1.8-24.6-2.1-2.5-4.5-1.9-6.1 1.6-1.6 3.6-1.5 43.1.2 46.4.7 1.3 2.6 2.9 4.2 3.3 7 2 9.9 4.2 12.5 9.2 2.5 4.9 2.5 5 2.5 31.5 0 25.8-.1 26.6-2.3 31.2-3.1 6.3-7.2 9.2-13.1 9.2-6.4 0-10.6-2.8-13.6-8.8-2.5-4.9-2.5-5.4-2.5-29.3V1447h11v21.9c0 21.6 0 22 2.3 24.7l2.4 2.7 2.1-2.1c2.1-2.1 2.2-3 2.2-25.2 0-21.7-.1-23.1-2-25-1.1-1.1-3.1-2-4.4-2-3.7 0-8.9-4.1-11.4-9-2.2-4.4-2.3-5-2-32.6l.3-28.1 2.6-4c1.5-2.2 4.2-4.7 6-5.7 4.2-2.1 11.1-1.6 14.8 1.1zm38.5-1.3c6.8 2.8 10.5 10.9 10.6 22.8v5.8h-12v-5.9c0-9.2-4.8-13.2-7.9-6.5-.8 1.8-1.1 18.6-1.1 57.4v54.9l2.3 2.7 2.4 2.7 2.1-2.1c1.8-1.8 2.2-3.4 2.2-8.2v-6h12.3l-.5 8.3c-.9 13.8-6.3 21.1-15.7 21.1-6.4 0-10.6-2.8-13.7-9l-2.5-5 .3-61.5.3-61.5 2.6-4.1c4.4-6.6 11.3-8.8 18.3-5.9zM1000 1447v63h-11v-126h11v63z"/><path d="M919.6 513.1c-13.9 2-30.2 8.3-39.6 15.3-6.5 4.9-18.1 17.1-22.6 23.8-19 28.5-22.5 68.6-8.9 101 9 21.4 28.6 40.3 49.9 48.3 12.4 4.6 19.9 5.9 36.6 5.9 18.5 0 28.3-2.1 42.4-8.8 25.5-12.1 42.5-33.9 49.2-63.1 1.5-6.3 1.9-11.7 1.8-26-.1-19.8-1.2-26.1-7.5-41-6.9-16.7-22.2-34.8-36.5-43.3-17.9-10.7-42.8-15.3-64.8-12.1zM574 974.1c-51.2 3.7-98.4 34.3-122 79-16.9 32.3-19.5 69.8-7.1 103.7 6.9 19 16.7 33.9 33.1 50.3 22.2 22.2 46.2 35.3 78 42.4 11.3 2.5 40.9 3.2 53.6 1.2 62.2-9.9 111.4-55.1 124-113.9 2.5-11.5 2.5-36.1.1-47.8-5.8-27.3-18.8-51.1-38.8-71-31.7-31.5-74.9-47.2-120.9-43.9zm373 0c-51.2 3.7-98.4 34.3-122 79-16.9 32.3-19.5 69.8-7.1 103.7 6.9 19 16.7 33.9 33.1 50.3 22.2 22.2 46.2 35.3 78 42.4 11.3 2.5 40.9 3.2 53.6 1.2 62.2-9.9 111.4-55.1 124-113.9 2.5-11.5 2.5-36.1.1-47.8-5.8-27.3-18.8-51.1-38.8-71-31.7-31.5-74.9-47.2-120.9-43.9zm-501.5 360.6c1.4 2.7 5.1 8.3 8.1 12.5 4.7 6.7 5.9 7.8 8.4 7.8 1.7 0 3-.1 3-.3 0-.1 1.6-4.9 3.5-10.6 1.9-5.7 3.5-11.2 3.5-12.2 0-1.8-1-1.9-14.6-1.9h-14.5l2.6 4.7zm41.5 25.6v27.8l4.9 4.5c2.8 2.5 6.5 5.8 8.3 7.4l3.3 2.9.3-21.9.2-21.9-3.7-5.7c-5-7.5-5.2-7.8-9.5-14.8l-3.8-6.1v27.8zm-45.7-14.3l.2 8.5 4.8.3c2.6.2 4.7-.1 4.7-.5 0-.5-1.6-3.3-3.6-6.3-1.9-2.9-4.2-6.5-5-7.9-1.3-2.4-1.4-1.9-1.1 5.9zm-17.7.8c-1 3.1-2.6 7.5-3.6 9.7-1.6 3.5-1.8 8.1-2.2 38.3l-.3 34.2 4.2-4.3 4.3-4.2-.2-39.7-.3-39.6-1.9 5.6zm84.4 38.5v20.5l3.3 2.8c1.8 1.6 5.5 4.3 8.2 5.9 2.8 1.7 5.9 3.6 7 4.3 1.1.6 3.2 1.9 4.8 2.7l2.7 1.6v-29.8l-7.1-7.4c-3.9-4.1-8.8-9.4-10.7-11.9-2-2.5-4.7-5.6-5.9-6.9l-2.3-2.4v20.6zm-66.3-18.6c-.4.3-.7 7.3-.7 15.5 0 11.5.3 14.9 1.3 14.6 1.5-.6 17.7-28.2 17.7-30.4 0-.7-17.7-.4-18.3.3zm27.3.7c0 .7.7 1.9 1.5 2.6 1.6 1.3 2 .3.9-2.4-.8-2-2.4-2.1-2.4-.2zm-9 11.7c-1.9 3.9-4.5 8.5-5.7 10.2-1.3 1.7-2.3 4.1-2.3 5.4 0 2.1.4 2.3 6 2.3h6v-12.5c0-6.9-.1-12.5-.2-12.5-.2.1-1.9 3.3-3.8 7.1zm-48.6-3.8c-.6 1.2-3 5.6-5.4 9.7l-4.3 7.5-.5 26.5-.5 26.5 4.9-4.5c2.7-2.4 5.6-5.1 6.4-5.9 2-1.9 2.2-10.1 1.3-38.8-.6-18.1-1-22.7-1.9-21zm57.2 6.4c-.3 2.1-.6 6.4-.6 9.6 0 5 .2 5.8 1.8 5.5 1.4-.3 1.8-1.6 2-7.3.3-7.4-.3-11.5-1.7-11.5-.5 0-1.1 1.7-1.5 3.7zm18.4 65.2v51.1h18.3l-.7-7.7c-.3-4.2-.6-24.1-.6-44.2v-36.7l-2.7-1.6c-1.6-.9-4.6-3.4-6.8-5.5-8.3-8-7.5-12.9-7.5 44.6zm51-35.5c0 9.5.4 13.6 1.3 14.3 1.4 1.1 12.2 5.5 18.2 7.5 2.2.7 4.3 1.7 4.7 2.3.4.5.8-3.4.8-8.7v-9.7l-5.7-4.3c-3.2-2.4-8.6-6.7-12.1-9.6-3.4-2.8-6.4-5.2-6.7-5.2-.3 0-.5 6-.5 13.4zm-147.8-2.2l-6.2 8.2v20.3c0 11.6.4 20.3.9 20.3s1.1-.3 1.3-.8c.2-.4 2.7-2.5 5.6-4.7l5.2-3.9v-23.8c0-13.1-.2-23.8-.3-23.8-.2 0-3.2 3.7-6.5 8.2zm51.5 1.5c-.4.3-.7 8.5-.7 18.2v17.6h7V1410h-2.8c-1.6 0-3.2.3-3.5.7zm10.3 17.5v17.6l6.6.4 6.6.3-.6-2.9c-.3-1.6-.6-9.7-.6-18.1v-15.3l-6 .2-6 .1v17.7zm16-.3c0 14.5.3 18 1.4 18.4 2.3.9 2.6-1.5 2.6-17.8 0-16.1-.3-18.5-2.6-18.5-1.1 0-1.4 3.3-1.4 17.9zm40.3 4.6c.4 10.9.7 30.1.7 42.7v22.8h25v-68.9l-5.2-3.1c-7.2-4.2-8.4-4.9-15.2-9.4l-5.9-3.9.6 19.8zm59.4-4.3c.3 4.6 1 8.6 1.5 8.9 1.3.8 12.7 2.8 21.6 3.7l7.2.8v-3.2c0-2.9-.5-3.4-5.2-5.4-9.7-4.1-12.3-5.4-18.4-9.2-3.4-2.1-6.4-3.8-6.7-3.8-.3 0-.3 3.7 0 8.2zm-188.5-5.6c-.1.6-3.4 4.3-7.2 8.1l-7 7.1.2 16.6.3 16.5 5.5-3.7c9.8-6.5 9.1-4.4 8.7-26.3-.1-10.7-.3-18.9-.5-18.3zm41.5 10.2l-3.7 3.7v61.5h9v-34.5c0-19-.3-34.5-.7-34.5-.5.1-2.5 1.8-4.6 3.8zm117.6 20.8c.4 12.5.7 27.6.7 33.6v10.8h25v-17.8c0-9.7-.3-22.7-.6-28.8l-.7-11.1-5.6-1.8c-3.1-.9-7.8-2.7-10.6-4-9.8-4.4-8.9-6.6-8.2 19.1zm63.7-14.2c0 2.6.1 2.6 8.3 2.5h8.2l-7.3-1.9c-4-1.1-7.7-2.2-8.2-2.5-.6-.4-1 .5-1 1.9zm-245.1 5.7c-2.4 2.2-5.4 4.7-6.6 5.6-2.2 1.5-2.3 2.1-2.3 15.5v13.9l7-3.7 7-3.8v-15.8c0-8.7-.1-15.8-.3-15.8-.2 0-2.3 1.8-4.8 4.1zm48.9 1.7l-4.8 4.7v46.5h12v-20.3c0-20.7-.8-35.7-1.9-35.7-.3 0-2.7 2.2-5.3 4.8zm162.2 23.1v28.1h30l-.2-25.8-.3-25.7-7-.6c-3.8-.4-9.2-1.2-12-1.8-2.7-.6-6.2-1.4-7.7-1.7l-2.8-.6v28.1zm44-23.2l-9.5.4.3 25.4.3 25.5h11c9.7 0 11-.2 10.5-1.6-.3-.9-.6-12.6-.6-26 0-19-.3-24.4-1.2-24.2-.7.1-5.6.4-10.8.5zm-272.9 12.7c-2.3 1.9-5 3.8-6.1 4.1-1.8.6-2 1.6-2 12.2 0 6.3.4 11.3.8 11.1.4-.2 3.3-1.4 6.5-2.7l5.7-2.5v-12.8c0-7-.2-12.8-.4-12.8s-2.3 1.5-4.5 3.4zm50.4.1l-5 3.6-.6 7.2c-.4 4-.7 11.8-.8 17.4l-.1 10.3h12v-21c0-11.6-.1-21-.3-21-.1 0-2.5 1.6-5.2 3.5zM441 1480v18h8.3l-.6-6.8c-.4-3.7-.7-11.8-.7-18V1462h-7v18zm11 0v18h13v-36h-13v18zm16-.1c0 17.5.1 18.1 2 18.1 2 0 2-.5 1.8-17.7-.3-16-.5-17.8-2-18.1-1.7-.3-1.8 1.1-1.8 17.7zm-147.2-8.6l-6.8 4v9.4c0 5.1.4 9.3.8 9.3.5 0 3.5-1.1 6.8-2.4l5.9-2.4.3-5.6c.2-3.1.2-8 0-11l-.3-5.4-6.7 4.1zm54.1-2c-1.9 1.3-4.9 3-6.7 3.8l-3.2 1.4v23.5h14v-15.5c0-8.5-.2-15.5-.4-15.5s-1.9 1-3.7 2.3zm-71.1 11.2l-5.8 3v14.5h4.8c7.1 0 7.3-.3 7-11.1l-.3-9.4-5.7 3zm51-.2l-5.8 3v14.7h12v-10.5c0-5.8-.1-10.5-.2-10.4-.2 0-2.9 1.5-6 3.2zm-68.3 8.3c-3.8 1.9-9.9 4.8-13.5 6.4l-6.5 2.9 14.3.1H295v-6.5c0-3.6-.3-6.5-.7-6.5-.5 0-3.9 1.6-7.8 3.6zm49.8.2c-4.8 2.3-5.3 2.9-5.3 5.9v3.3h6.4c6.3 0 6.4 0 6.8-3 .6-4.2-.2-9-1.6-8.8-.6 0-3.5 1.2-6.3 2.6zm-11.8 5.4c-1.1.7-3.6 1.8-5.5 2.5-3.5 1.2-3.5 1.2 2.8 1.3 6 0 6.2-.1 6.2-2.5 0-2.8-.6-3-3.5-1.3zm953.5-162.5c0 1 1.6 6.6 3.6 12.5 3.4 10.4 3.7 10.8 6.5 10.8 2.4 0 3.6-1.1 8.3-7.8 3-4.2 6.7-9.8 8.1-12.5l2.6-4.7h-14.5c-13.2 0-14.6.2-14.6 1.7zm-18 5.4c-3.1 5.3-5.4 9-10.3 16.3l-3.7 5.7.2 21.9.3 21.9 3.5-3c1.9-1.7 5.6-5 8.3-7.4l4.7-4.3-.2-27.7-.3-27.7-2.5 4.3zm48.2 1.4c-.1.6-2.2 4.2-4.7 8-2.5 3.9-4.5 7.3-4.5 7.7 0 1.4 9 .9 9.6-.5.3-.8.3-4.7.1-8.8-.1-4.1-.4-6.9-.5-6.4zm15.8 42v40.1l4.3 4.2 4.2 4.2-.3-34.3c-.3-26.4-.7-34.9-1.8-37.2-.7-1.7-2.5-6.2-3.8-10l-2.5-7-.1 40zm-86-11.4c-6 7.3-14 16.2-18.1 20.1l-3.9 3.6v30.3l2.8-1.6c9.1-5.1 18.9-11.5 21.1-13.8 2.1-2.3 2.1-3 1.9-22.6l-.3-20.3-3.5 4.3zm40.5-1c-.4 1.1-.4 2.3 0 2.7.7.7 2.5-1.7 2.5-3.6 0-2-1.8-1.4-2.5.9zm11.5-1.8c0 .8 7.7 15.1 12.1 22.6 6.6 11.2 7 10.9 6.7-7.1l-.3-15.3-9.2-.3c-5.1-.1-9.3-.1-9.3.1zm-4 18v12.7h6c5.6 0 6-.1 6-2.4 0-1.3-.8-3.4-1.9-4.7-1-1.3-2.7-4.2-3.8-6.4-1.2-2.2-3-5.8-4.2-8l-2.1-3.9v12.7zm50.6 17.5c-.4 15.8-.4 29.6 0 30.7.9 2.2.9 2.2 7.8 8.5l4.9 4.5-.5-26.5-.5-26.5-4.3-7.5c-2.3-4.1-4.8-8.5-5.5-9.7-1-1.9-1.3 2.9-1.9 26.5zm-228.2-26c-3.2 2.1-3.4 5.1-3.4 60.1v55l2.3 2.7 2.4 2.7 2.1-2.1 2.2-2.2v-56.3c0-49.3-.2-56.5-1.6-58.5-1.6-2.4-2.3-2.6-4-1.4zm170.1 4.5c-.3 1.2-.5 5.4-.3 9.2.2 5.7.6 7 2.1 7.3 1.5.3 1.7-.5 1.7-5.5 0-10.7-2-17-3.5-11zm-21.6 20.7c-3 2.8-6.6 5.8-8.1 6.7l-2.8 1.7v36.7c0 20.1-.3 40-.6 44.2l-.7 7.7h18.3v-51c0-28.1-.2-51-.4-51s-2.8 2.3-5.7 5zm-51.9 2c-3.6 3-9.1 7.4-12.2 9.8l-5.8 4.3v9.7c0 5.3.4 9.2.8 8.7.4-.6 2.5-1.6 4.7-2.3 7-2.4 17-6.5 18.3-7.7.9-.8 1.2-4.6 1-14.5l-.3-13.4-6.5 5.4zm148 21.6v24l5.3 3.9c2.8 2.2 5.4 4.3 5.5 4.7.2.5.8.8 1.3.8s.9-8.7.9-20.3v-20.4l-5.6-7.4c-3.1-4.1-6-7.8-6.5-8.4-.5-.5-.9 8.7-.9 23.1zm-74.4-13c-.8 2-.8 31.7 0 33.8.3.8 1.2 1.2 2 .9 2.1-.8 2.1-36.3 0-36.3-.8 0-1.7.7-2 1.6zm7.4 13.9c0 8.4-.3 16.5-.6 18.1l-.6 2.9 6.6-.3 6.6-.4v-35.3l-6-.1-6-.2v15.3zm16 2.7v18.3h7l-.2-18-.3-18-3.2-.3-3.3-.3v18.3zm-64.5-12.2c-2.2 1.5-5.4 3.6-7.1 4.6-1.8 1.1-5.7 3.4-8.8 5.2l-5.6 3.3v68.9h24.7l.6-42.2c.3-23.2.5-42.3.4-42.4-.1-.1-2 1-4.2 2.6zm-59.5 6.3c-5.2 3.6-11.7 7-19.2 10.1-6.4 2.7-6.8 3-6.8 6v3.2l7.3-.8c8.8-.9 20.2-2.9 21.5-3.7 1.1-.7 2.3-17.1 1.3-17.1-.3 0-2.2 1.1-4.1 2.3zm192 19v19.4l2.8 2.1c1.5 1.1 4.7 3.4 7.2 5.1l4.5 3 .3-16.7.3-16.6-4.3-4c-2.4-2.2-5.8-5.8-7.5-7.9l-3.3-3.9v19.5zm-46 22.2v34.5h9v-61.7l-4-3.6c-2.1-2.1-4.2-3.7-4.5-3.7-.3 0-.5 15.5-.5 34.5zm-114.5-31.5c-1.1.3-4.1 1.5-6.6 2.7-2.5 1.2-7.1 2.9-10.1 3.8l-5.5 1.8-.7 11.1c-.3 6.1-.6 19.1-.6 28.8v17.8h24.7l.7-33.1c.4-18.2.6-33.2.4-33.3-.1-.2-1.2 0-2.3.4zm-62.7 5.5c-.2.3-3.8 1.4-7.9 2.4l-7.4 2h8.3c8.1.1 8.2.1 8.2-2.4s-.2-2.9-1.2-2zm241.2 19.3v15.8l7 3.8 7 3.7v-13.9c0-13.4-.1-14-2.2-15.5-1.3-.9-4.3-3.4-6.7-5.6-2.5-2.3-4.6-4.1-4.8-4.1-.2 0-.3 7.1-.3 15.8zm-210.2-14.3c-.8.8-10.9 2.7-18.3 3.4l-7 .6-.3 25.7-.2 25.8h30v-28c0-26.5-.1-28-1.8-28-1 0-2.1.2-2.4.5zm159.8 7.2c-.3 4.2-.6 16.8-.6 28v20.3h12v-46.6l-4.9-4.7c-2.7-2.6-5.1-4.7-5.4-4.7-.2 0-.7 3.4-1.1 7.7zm-211.6 18.4c0 12.3-.3 24.1-.6 26.1l-.7 3.8h22.2l.3-25.5.3-25.5h-8.5c-4.7 0-9.5-.3-10.7-.6l-2.3-.6v22.3zm229 8.9v21h12v-7.8c0-4.2-.3-12.1-.7-17.4l-.6-9.7-4.1-2.8c-2.2-1.5-4.6-3.2-5.3-3.6-1-.6-1.3 3.5-1.3 20.3zm51-8.2v12.8l5.7 2.5c3.2 1.3 6.1 2.5 6.5 2.7.4.2.8-4.8.8-11.1v-11.5l-2.9-1.2c-1.6-.6-3.8-2.1-4.8-3.2s-2.6-2.4-3.5-2.9c-1.7-.9-1.8-.1-1.8 11.9zm-127.3-6.1c-.4.3-.7 8.4-.7 18 0 16.6.1 17.3 2 17.3s2-.7 2-18c0-14.3-.3-18-1.3-18-.8 0-1.7.3-2 .7zm6.3 17.3v18h13v-36h-13v18zm17-6.8c0 6.2-.3 14.3-.7 18l-.6 6.8h8.3v-36h-7v11.2zm69 9.2v15.6h14v-23.5l-3.7-1.8c-2.1-1-5.3-2.7-7-3.8l-3.3-2.1v15.6zm51.2-4.4l.3 11.2 5.9 2.4c3.3 1.3 6.3 2.4 6.8 2.4.4 0 .8-4.2.8-9.4v-9.4l-4.2-2.4c-2.4-1.3-5.6-3.2-7.1-4.2l-2.8-1.9.3 11.3zm-33.2 9.6v10.4h12v-14.7l-6-3.1-6-3.1v10.5zm51-.6c0 11 0 11 7.6 11h4.4v-14.5l-6-3.1-6-3.1v9.7zm15 4.5v6.5l14.3-.1c7.8 0 13.5-.3 12.7-.6-.8-.3-7-3.2-13.7-6.4-6.8-3.3-12.5-5.9-12.8-5.9-.3 0-.5 2.9-.5 6.5zm-49.2-2.5c-.3 1.6-.3 4.3 0 6 .4 3 .5 3 6.8 3h6.4v-3.3c0-3-.4-3.5-5.9-6-3.2-1.5-6.1-2.7-6.4-2.7-.3 0-.7 1.3-.9 3zm16.2 6.5c0 2.4.2 2.5 6.3 2.4 4.4 0 5.5-.3 3.7-.8-1.4-.5-4-1.5-5.7-2.4-4.1-2.2-4.3-2.2-4.3.8zm-743.1-64.8c-1.1 1.2-1.5 7.9-1.7 30.8-.3 28.4-.2 29.2 1.8 31.8 1.3 1.6 3.1 2.7 4.6 2.7h2.4v-31c0-31.9-.5-36-4-36-1 0-2.4.7-3.1 1.7zm197 0c-1.1 1.2-1.5 7.9-1.7 30.8-.3 28.4-.2 29.2 1.8 31.8 1.3 1.6 3.1 2.7 4.6 2.7h2.4v-31c0-31.9-.5-36-4-36-1 0-2.4.7-3.1 1.7z"/></g></svg>