<svg width="205" height="38" fill="none" xmlns="http://www.w3.org/2000/svg"><path d="M20.38 0v21h-7.185v-8H7.613v8H.427V0h7.186v7h5.582V0h7.186zM64 5h-7v16h-6V5h-7l.077-5H64v5zM10.147 34.777c-.336 1.02-.924 1.815-1.763 2.386-.828.558-1.823.837-2.987.837-1.08 0-2.027-.249-2.842-.746-.816-.51-1.446-1.232-1.89-2.167C.223 34.152 0 33.06 0 31.81s.222-2.343.666-3.277c.443-.935 1.073-1.651 1.889-2.149.815-.51 1.757-.765 2.824-.765 2.375 0 3.91.99 4.606 2.968l-.882.419c-.276-.85-.72-1.487-1.331-1.912-.6-.425-1.38-.637-2.339-.637-.887 0-1.673.218-2.357.655-.671.425-1.193 1.044-1.565 1.858-.372.8-.557 1.747-.557 2.84 0 1.092.18 2.045.54 2.858.371.801.887 1.42 1.546 1.857.672.425 1.458.638 2.357.638.96 0 1.775-.237 2.447-.71.672-.474 1.14-1.148 1.403-2.022l.9.346zm32.271-3.441l-2.374 2.44V38h-.9V25h.9v7.538L46.556 25h1.188l-4.696 5.663L47.87 38h-1.098l-4.354-6.664zM51.024 38h-.9V25h.9v13zM63 37v1h-8V25h8v1h-7v5h6v1h-6v5h7z" fill="#C41218"/><path fill-rule="evenodd" clip-rule="evenodd" d="M32.5 21C38.299 21 43 16.299 43 10.5S38.299 0 32.5 0 22 4.701 22 10.5 26.701 21 32.5 21zm0-7a3.5 3.5 0 1 0 0-7 3.5 3.5 0 0 0 0 7zM18 38a6 6 0 1 0 0-12 6 6 0 0 0 0 12zm0-1a5 5 0 1 0 0-10 5 5 0 0 0 0 10zm13 1a6 6 0 1 0 0-12 6 6 0 0 0 0 12zm0-1a5 5 0 1 0 0-10 5 5 0 0 0 0 10z" fill="#C41218"/><path fill="#C41218" d="M72 0h133v1H72zm0 37h133v1H72zM86.374 9.25V17h.73v-2.922h1.901c1.477 0 2.493-.977 2.493-2.417S90.493 9.25 89.01 9.25h-2.637zm.73.655h1.735c1.198 0 1.907.655 1.907 1.756s-.715 1.762-1.907 1.762h-1.735V9.905zm6.176-.655h-.73v5.043c0 1.67 1.134 2.83 2.997 2.83 1.864 0 3.003-1.16 3.003-2.83V9.25h-.736v5c0 1.3-.843 2.191-2.267 2.191-1.418 0-2.266-.891-2.266-2.191v-5zm9.486 7.75V9.916h2.562V9.25h-5.854v.666h2.556V17h.736zm6.295 0V9.916h2.562V9.25h-5.854v.666h2.556V17h.736zm4.222 0V9.25h-.731V17h.731zm2.175 0v-6.477h.038l4.56 6.477h.709V9.25h-.725v6.472h-.038l-4.544-6.472h-.725V17h.725zm13.148-3.148v-.746h-3.136v.645h2.406v.273c0 1.461-.988 2.417-2.487 2.417-1.66 0-2.728-1.315-2.728-3.362 0-2.02 1.047-3.27 2.728-3.27 1.182 0 2.09.665 2.406 1.772h.763c-.29-1.483-1.541-2.455-3.169-2.455-2.116 0-3.48 1.552-3.48 3.953 0 2.444 1.38 4.044 3.48 4.044 2.014 0 3.217-1.224 3.217-3.27zm3.067 1.043c.081 1.332 1.22 2.229 2.842 2.229 1.713 0 2.809-.892 2.809-2.251 0-1.08-.656-1.676-2.213-2.068l-.838-.215c-1.139-.29-1.622-.682-1.622-1.348 0-.854.795-1.45 1.869-1.45 1.101 0 1.875.58 1.944 1.456h.736c-.043-1.23-1.149-2.122-2.658-2.122-1.526 0-2.654.892-2.654 2.143 0 1.02.639 1.627 2.073 1.993l.962.247c1.149.29 1.649.72 1.649 1.445 0 .87-.833 1.503-1.993 1.503-1.214 0-2.089-.633-2.17-1.563h-.736zm9.931-5.769c-2.159 0-3.518 1.547-3.518 4.001 0 2.455 1.359 3.996 3.518 3.996 2.165 0 3.524-1.541 3.524-3.996 0-2.454-1.364-4.001-3.524-4.001zm0 .682c1.698 0 2.772 1.284 2.772 3.32 0 2.03-1.074 3.313-2.772 3.313-1.697 0-2.766-1.283-2.766-3.314 0-2.035 1.069-3.319 2.766-3.319zM153.738 17V9.25h-.849l-2.868 6.783h-.032l-2.874-6.783h-.843V17h.687v-6.36h.033l2.691 6.322h.639l2.696-6.321h.032V17h.688zm6.128-.666h-3.948v-2.976h3.749v-.655h-3.749V9.916h3.948V9.25h-4.678V17h4.678v-.666zm4.023.666V9.916h2.562V9.25h-5.854v.666h2.556V17h.736zm9.491 0V9.25h-.736v3.448h-4.533V9.25h-.731V17h.731v-3.636h4.533V17h.736zm2.186 0V9.25h-.731V17h.731zm2.175 0v-6.477h.038l4.56 6.477h.709V9.25h-.725v6.472h-.038l-4.544-6.472h-.725V17h.725zm13.149-3.148v-.746h-3.137v.645h2.406v.273c0 1.461-.988 2.417-2.487 2.417-1.659 0-2.728-1.315-2.728-3.362 0-2.02 1.047-3.27 2.728-3.27 1.182 0 2.09.665 2.407 1.772h.762c-.29-1.483-1.541-2.455-3.169-2.455-2.116 0-3.48 1.552-3.48 3.953 0 2.444 1.38 4.044 3.48 4.044 2.015 0 3.218-1.224 3.218-3.27zM80.519 26.895c.08 1.332 1.22 2.229 2.841 2.229 1.714 0 2.81-.892 2.81-2.251 0-1.08-.656-1.676-2.213-2.068l-.838-.215c-1.139-.29-1.622-.682-1.622-1.348 0-.854.794-1.45 1.869-1.45 1.1 0 1.874.58 1.944 1.456h.736c-.043-1.23-1.15-2.122-2.659-2.122-1.525 0-2.653.892-2.653 2.143 0 1.02.639 1.628 2.073 1.993l.962.247c1.149.29 1.648.72 1.648 1.445 0 .87-.832 1.503-1.992 1.503-1.214 0-2.09-.633-2.17-1.563h-.736zm10.957-4.389h.043L93.426 29h.677l2.137-7.75h-.768l-1.703 6.622h-.037l-1.87-6.622h-.73l-1.874 6.622h-.032l-1.708-6.622h-.763L88.887 29h.682l1.907-6.494zm10.404 5.828h-3.948v-2.976h3.749v-.655h-3.749v-2.787h3.948v-.666h-4.678V29h4.678v-.666zm5.93 0h-3.948v-2.976h3.749v-.655h-3.749v-2.787h3.948v-.666h-4.679V29h4.679v-.666zm4.023.666v-7.084h2.562v-.666h-5.855v.666h2.557V29h.736zm6.477 0v-7.75h-.73V29h.73zm2.175 0v-6.477h.038l4.56 6.477h.709v-7.75h-.725v6.472h-.038l-4.544-6.473h-.725V29h.725zm11.935 0v-3.352l2.777-4.398h-.838l-2.294 3.679h-.026l-2.294-3.68h-.838l2.777 4.4V29h.736zm6.402-7.874c-2.159 0-3.518 1.547-3.518 4.001 0 2.455 1.359 3.997 3.518 3.997 2.165 0 3.524-1.542 3.524-3.997 0-2.454-1.365-4.001-3.524-4.001zm0 .682c1.698 0 2.772 1.284 2.772 3.32 0 2.03-1.074 3.313-2.772 3.313-1.697 0-2.766-1.283-2.766-3.314 0-2.035 1.069-3.319 2.766-3.319zm5.398-.558h-.73v5.043c0 1.67 1.133 2.83 2.997 2.83 1.864 0 3.002-1.16 3.002-2.83V21.25h-.736v5c0 1.3-.843 2.191-2.266 2.191-1.418 0-2.267-.891-2.267-2.191v-5zm7.445.655h1.917c1.128 0 1.81.607 1.81 1.633 0 1.036-.655 1.638-1.783 1.638h-1.944v-3.271zm0 3.92h2.062L155.51 29h.86l-1.88-3.293c1.036-.268 1.659-1.095 1.659-2.19 0-1.381-.966-2.267-2.481-2.267h-2.734V29h.731v-3.174zM167.069 29v-7.75h-.849l-2.868 6.783h-.032l-2.874-6.784h-.843V29h.688v-6.36h.032l2.691 6.322h.639l2.696-6.321h.032V29h.688zm4.657-7.874c-2.16 0-3.518 1.547-3.518 4.001 0 2.455 1.358 3.997 3.518 3.997 2.164 0 3.523-1.542 3.523-3.997 0-2.454-1.364-4.001-3.523-4.001zm0 .682c1.697 0 2.771 1.284 2.771 3.32 0 2.03-1.074 3.313-2.771 3.313-1.698 0-2.767-1.283-2.767-3.314 0-2.035 1.069-3.319 2.767-3.319zm5.398-.558h-.731v5.043c0 1.67 1.133 2.83 2.997 2.83 1.864 0 3.003-1.16 3.003-2.83V21.25h-.736v5c0 1.3-.844 2.191-2.267 2.191-1.418 0-2.266-.891-2.266-2.191v-5zm9.485 7.75v-7.084h2.562v-.666h-5.855v.666h2.557V29h.736zm9.491 0v-7.75h-.736v3.448h-4.533V21.25h-.731V29h.731v-3.636h4.533V29h.736z"/></svg>