<?xml version="1.0" encoding="UTF-8"?>
<svg width="24px" height="27px" viewBox="0 0 24 27" version="1.1" xmlns="http://www.w3.org/2000/svg" xmlns:xlink="http://www.w3.org/1999/xlink">
    <!-- Generator: Sketch 64 (93537) - https://sketch.com -->
    <title>Shape</title>
    <desc>Created with Sketch.</desc>
    <defs>
        <filter x="-66.7%" y="-57.1%" width="233.3%" height="214.3%" filterUnits="objectBoundingBox" id="filter-1">
            <feOffset dx="0" dy="2" in="SourceAlpha" result="shadowOffsetOuter1"></feOffset>
            <feGaussianBlur stdDeviation="2" in="shadowOffsetOuter1" result="shadowBlurOuter1"></feGaussianBlur>
            <feColorMatrix values="0 0 0 0 0.995301178   0 0 0 0 0.980963379   0 0 0 0 0.980963379  0 0 0 0.5 0" type="matrix" in="shadowBlurOuter1" result="shadowMatrixOuter1"></feColorMatrix>
            <feMerge>
                <feMergeNode in="shadowMatrixOuter1"></feMergeNode>
                <feMergeNode in="SourceGraphic"></feMergeNode>
            </feMerge>
        </filter>
    </defs>
    <g id="Page-1" stroke="none" stroke-width="1" fill="none" fill-rule="evenodd">
        <g id="bag,-basket,-buy,-shopping,-ecommerce-svg-icon" filter="url(#filter-1)" transform="translate(3.000000, 1.000000)" fill="#FFFFFF" fill-rule="nonzero">
            <path d="M17.0892814,18.2725509 L16.5368972,5.38647536 C16.5271417,4.43516823 15.770937,3.6634831 14.8428458,3.6634831 L12.0349564,3.6634831 C11.8070955,2.14517061 10.5230914,0.95 8.97806196,0.95 C7.43261879,0.95 6.14825537,2.14517061 5.92032912,3.6634831 L3.11630495,3.6634831 C2.18847506,3.6634831 1.43250987,4.43519073 1.42277613,5.3865091 L0.870696822,18.2721236 C0.870239533,18.2830554 0.87,18.2941447 0.87,18.3051103 C0.87,19.2671918 1.62993925,20.05 2.56406232,20.05 L15.396003,20.05 C16.3300716,20.05 17.09,19.2674168 17.09,18.305324 C17.09,18.2943696 17.0897605,18.2835053 17.0892814,18.2725509 Z M8.97806196,2.43615801 C9.72655808,2.43615801 10.3601765,2.95492602 10.563518,3.66347185 L7.39180024,3.66347185 C7.5952506,2.95493727 8.22918477,2.43615801 8.97806196,2.43615801 Z M15.3959921,18.565439 L2.56406232,18.565439 C2.42457808,18.565439 2.31454547,18.456964 2.30896,18.317313 L2.8606909,5.43923391 C2.86115908,5.4283133 2.86138772,5.415492 2.86138772,5.4045489 C2.86138772,5.26177129 2.97334748,5.14805531 3.11629406,5.14805531 L5.8784109,5.14805531 L5.8784109,7.86368654 C5.8784109,8.27408078 6.19971134,8.60675992 6.59700898,8.60675992 C6.99430662,8.60675992 7.31560707,8.27408078 7.31560707,7.86368654 L7.31560707,5.14805531 L10.6255134,5.14805531 L10.6255134,7.86368654 C10.6255134,8.27408078 10.9468138,8.60675992 11.3441115,8.60675992 C11.7414091,8.60675992 12.0627096,8.27408078 12.0627096,7.86368654 L12.0627096,5.14805531 L14.8428458,5.14805531 C14.9860537,5.14805531 15.0982421,5.26159135 15.0982421,5.40436895 C15.0982421,5.4153233 15.0984707,5.42712115 15.0989389,5.43808674 L15.6510182,18.3169419 C15.6454328,18.4565479 15.5354219,18.565439 15.3959921,18.565439 Z" id="Shape"></path>
        </g>
    </g>
</svg>