<?xml version="1.0" encoding="UTF-8" standalone="no"?>
<!-- Created with Inkscape (http://www.inkscape.org/) -->

<svg
   version="1.1"
   id="svg1"
   width="1579.7516"
   height="1009.1829"
   viewBox="0 0 1579.7515 1009.1829"
   xmlns="http://www.w3.org/2000/svg"
   xmlns:svg="http://www.w3.org/2000/svg">
  <defs
     id="defs1" />
  <g
     id="g1"
     transform="translate(-33.408461,-94.481348)">
    <g
       id="group-R5">
      <path
         style="fill:#ffffff"
         d="m 213.16572,-208.77702 q -15.67395,-14.42003 -36.36356,-22.57048 -20.68962,-8.15046 -42.00619,-8.15046 -24.76484,0 -47.335328,9.40437 -22.257009,9.40437 -39.498354,26.33224 -17.241346,16.92786 -26.959195,39.18487 -9.717849,21.94353 -9.717849,46.70837 0,24.451367 9.717849,46.394897 10.031328,21.94353 27.272674,38.871397 17.241345,16.927866 39.498354,26.3322359 22.570489,9.4043701 46.708369,9.4043701 21.63005,0 41.69271,-7.5234961 20.06266,-7.8369749 36.99052,-21.9435299 v -20.689615 q -6.26958,7.836976 -15.67395,14.420035 -9.40437,6.583059 -20.37613,11.598723 -10.65829,4.702185 -21.94353,7.523496 -10.97177,2.507832 -21.31658,2.507832 -20.37613,0 -40.438787,-8.777412 -20.062656,-9.090891 -35.423127,-23.824405 -15.046992,-14.733513 -23.510926,-33.542253 -8.150454,-19.122219 -8.150454,-39.498355 0,-21.31657 8.463933,-41.06575 8.463934,-19.74918 23.197447,-35.10965 15.046992,-15.36047 34.48269,-23.8244 19.749174,-8.77741 41.379224,-8.77741 21.94353,0 43.88707,10.3448 21.94353,10.34481 35.42312,26.9592 z m 152.3509,-30.72094 q -24.45136,0 -47.02185,9.40437 -22.25701,9.40437 -39.49835,26.33224 -16.92787,16.92786 -26.64572,39.18487 -9.40437,21.94353 -9.40437,46.3949 0,24.451358 9.71785,46.708367 9.71785,21.94353 26.64572,38.871397 17.24134,16.927866 39.49835,26.3322359 22.25701,9.4043701 46.70837,9.4043701 24.45136,0 46.70837,-9.4043701 22.57049,-9.4043699 39.49836,-26.3322359 17.24134,-16.927867 26.64571,-38.871397 9.71785,-22.257009 9.71785,-46.708367 0,-24.45137 -9.71785,-46.3949 -9.40437,-22.25701 -26.64571,-39.18487 -16.92787,-16.92787 -39.49836,-26.33224 -22.25701,-9.40437 -46.70837,-9.40437 z m 0,14.10656 q 21.63005,0 41.06575,8.46393 19.74918,8.15045 34.79617,23.19745 15.04699,15.04699 23.19745,34.79617 8.46393,19.43569 8.46393,40.75227 0,21.316568 -8.46393,41.065745 -8.46394,19.435698 -23.51093,34.48269 -14.73351,14.733514 -34.48269,23.197447 -19.4357,8.463933 -41.06575,8.463933 -21.63005,0 -41.37923,-8.463933 -19.4357,-8.463933 -34.48269,-23.197447 -14.73351,-15.046992 -23.19744,-34.48269 -8.46394,-19.435698 -8.46394,-41.065745 0,-21.63006 8.46394,-41.06575 8.46393,-19.4357 23.19744,-34.48269 15.04699,-15.047 34.48269,-23.19745 19.74918,-8.46393 41.37923,-8.46393 z m 267.71111,-14.10656 q -24.45137,0 -47.02185,9.40437 -22.25701,9.40437 -39.49836,26.33224 -16.92786,16.92786 -26.64571,39.18487 -9.40437,21.94353 -9.40437,46.3949 0,24.451358 9.71785,46.708367 9.71784,21.94353 26.64571,38.871397 17.24135,16.927866 39.49836,26.3322359 22.257,9.4043701 46.70837,9.4043701 24.45136,0 46.70837,-9.4043701 22.57049,-9.4043699 39.49835,-26.3322359 17.24135,-16.927867 26.64572,-38.871397 9.71785,-22.257009 9.71785,-46.708367 0,-24.45137 -9.71785,-46.3949 -9.40437,-22.25701 -26.64572,-39.18487 -16.92786,-16.92787 -39.49835,-26.33224 -22.25701,-9.40437 -46.70837,-9.40437 z m 0,14.10656 q 21.63005,0 41.06575,8.46393 19.74917,8.15045 34.79617,23.19745 15.04699,15.04699 23.19744,34.79617 8.46394,19.43569 8.46394,40.75227 0,21.316568 -8.46394,41.065745 -8.46393,19.435698 -23.51092,34.48269 -14.73352,14.733514 -34.48269,23.197447 -19.4357,8.463933 -41.06575,8.463933 -21.63005,0 -41.37923,-8.463933 -19.4357,-8.463933 -34.48269,-23.197447 -14.73352,-15.046992 -23.19745,-34.48269 -8.46393,-19.435698 -8.46393,-41.065745 0,-21.63006 8.46393,-41.06575 8.46393,-19.4357 23.19745,-34.48269 15.04699,-15.047 34.48269,-23.19745 19.74918,-8.46393 41.37923,-8.46393 z m 174.29431,99.37284 V -236.36317 H 792.47505 V 0 h 15.04699 v -106.58286 l 6.26958,-6.26958 L 927.27102,0 H 947.0202 L 824.13643,-122.57029 939.81018,-236.36317 H 919.74753 Z M 985.89167,-236.36317 H 970.84468 V 0 h 15.04699 z m 163.63573,14.10656 v -14.10656 H 1036.675 V 0 h 112.8524 V -14.106555 H 1051.722 V -122.25681 h 95.2976 v -14.10656 h -95.2976 v -85.89324 z"
         aria-label="COOKIE"
         transform="matrix(1.3333333,0,0,1.4262049,18.361467,1099.1933)" />
      <path
         style="fill:#ffffff"
         d="m 11.34,-22.62 h -9.6 v 1.26 h 4.17 v 11.37 h 1.26 v -11.37 h 4.17 z m 2.49,0 v 12.63 h 1.26 v -11.37 h 0.12 l 4.89,11.37 h 0.06 l 4.95,-11.37 h 0.12 v 11.37 h 1.26 v -12.63 h -2.16 l -4.17,9.81 H 20.1 l -4.11,-9.81 z"
         transform="matrix(1.3333333,0,0,1.5238095,1577.84,131.196)"
         aria-label="™" />
      <path
         style="fill:#ffffff"
         d="m 31.62,0 h 134.64 v -133.62 h 85.68 V 0 H 386.58 V -384.54 H 251.94 V -255 H 166.26 V -384.54 H 31.62 Z"
         transform="matrix(1.3333333,0,0,1.5238095,0,683.05333)"
         aria-label="H" />
      <path
         style="fill:#ffffff"
         d="m 223.4575,-378.69125 q -42.02188,0 -80.08875,13.8425 -37.5725,13.34813 -65.751875,39.05562 -28.179375,25.70751 -44.49375,61.79688 -15.82,35.595 -15.82,78.60563 0,43.505 15.82,79.59437 15.82,35.595 43.999375,60.808125 28.67375,24.71875 66.24625,38.066875 37.5725,12.85375 80.08875,12.85375 42.51625,0 80.08875,-12.85375 37.5725,-13.348125 65.75187,-38.066875 28.67375,-25.213125 44.49375,-60.808125 15.82,-36.08937 15.82,-79.59437 0,-43.01063 -15.82,-78.60563 -15.82,-36.08937 -44.49375,-61.79688 -28.67374,-25.70749 -66.24625,-39.05562 -37.5725,-13.8425 -79.59437,-13.8425 z m 0,122.605 q 31.14562,0 50.42625,21.25812 19.28062,20.76376 19.28062,51.41501 0,31.64 -19.77499,51.90937 -19.28063,19.775 -49.93188,19.775 -30.65125,0 -50.42625,-19.775 -19.28063,-20.26937 -19.28063,-51.90937 0,-30.65125 19.28063,-51.41501 19.28063,-21.25812 50.42625,-21.25812 z"
         transform="matrix(1.3333333,0,0,1.5238095,550.21733,671.53467)"
         aria-label="O" />
      <path
         style="fill:#ffffff"
         d="m 5.1,-259.59 77.01,-3.57 V 0 h 139.74 v -263.16 l 77.01,3.57 V -384.54 H 5.1 Z"
         transform="matrix(1.3333333,0,0,1.5238095,1161.224,681.55333)"
         aria-label="T" />
    </g>
  </g>
</svg>
