<?xml version="1.0" standalone="no"?>
<!DOCTYPE svg PUBLIC "-//W3C//DTD SVG 20010904//EN"
 "http://www.w3.org/TR/2001/REC-SVG-20010904/DTD/svg10.dtd">
<svg version="1.0" xmlns="http://www.w3.org/2000/svg"
 width="1800.000000pt" height="1800.000000pt" viewBox="0 0 1800.000000 1800.000000"
 preserveAspectRatio="xMidYMid meet">

<g transform="translate(0.000000,1800.000000) scale(0.100000,-0.100000)"
fill="#ffffff" file-rule="evenodd" stroke="none">
<path 
d="M1550 17990 c0 -5 -20 -10 -44 -10 -25 0 -48 -4 -51 -10 -3 -5 -24
-10 -46 -10 -28 0 -39 -4 -39 -15 0 -10 -11 -15 -35 -15 -19 0 -35 -4 -35 -10
0 -5 -18 -10 -40 -10 -29 0 -40 -4 -40 -15 0 -9 -9 -15 -25 -15 -14 0 -25 -4
-25 -10 0 -5 -15 -10 -34 -10 -21 0 -36 -6 -40 -15 -3 -8 -15 -15 -26 -15 -12
0 -18 -4 -15 -10 4 -6 -7 -10 -24 -10 -21 0 -31 -5 -31 -15 0 -8 -7 -15 -15
-15 -8 0 -15 -4 -15 -10 0 -5 -9 -10 -20 -10 -12 0 -31 -10 -43 -23 -12 -13
-39 -31 -59 -41 -21 -9 -38 -21 -38 -26 0 -6 -9 -10 -20 -10 -11 0 -20 -4 -20
-10 0 -5 -7 -10 -15 -10 -8 0 -15 -7 -15 -15 0 -8 -7 -15 -15 -15 -8 0 -15 -4
-15 -10 0 -5 -9 -10 -19 -10 -12 0 -21 -9 -25 -25 -4 -16 -13 -25 -26 -25 -11
0 -20 -7 -20 -15 0 -8 -5 -15 -11 -15 -14 0 -39 -25 -39 -39 0 -6 -5 -11 -11
-11 -14 0 -39 -25 -39 -39 0 -6 -5 -11 -11 -11 -13 0 -39 -25 -39 -38 0 -5 -9
-12 -20 -15 -11 -3 -24 -16 -29 -29 -5 -12 -18 -30 -30 -38 -12 -8 -21 -20
-21 -27 0 -7 -5 -13 -11 -13 -19 0 -41 -30 -36 -50 4 -15 0 -20 -14 -20 -10 0
-19 -7 -19 -15 0 -8 -4 -15 -10 -15 -5 0 -10 -8 -10 -17 0 -10 -12 -28 -26
-40 -18 -15 -25 -29 -21 -43 4 -15 0 -20 -14 -20 -14 0 -19 -7 -19 -25 0 -14
-5 -25 -11 -25 -6 0 -9 -7 -5 -15 4 -10 -1 -15 -14 -15 -13 0 -20 -7 -20 -20
0 -11 -5 -20 -11 -20 -5 0 -10 -8 -9 -17 3 -25 -10 -63 -21 -63 -5 0 -9 -7 -9
-15 0 -8 -5 -15 -11 -15 -8 0 -10 -12 -6 -35 5 -28 2 -35 -14 -40 -12 -4 -19
-15 -19 -30 0 -13 -5 -27 -11 -31 -7 -4 -9 -22 -6 -45 3 -27 1 -39 -9 -43 -12
-5 -14 -1107 -14 -7576 0 -6704 2 -7571 15 -7576 10 -4 13 -14 9 -30 -4 -15
-2 -24 5 -24 6 0 11 -15 11 -33 0 -20 7 -38 18 -46 13 -9 17 -22 14 -42 -3
-17 0 -29 7 -29 6 0 11 -6 11 -13 0 -7 8 -18 18 -25 13 -10 17 -23 14 -48 -3
-21 0 -34 7 -34 6 0 11 -6 11 -13 0 -7 9 -19 19 -26 11 -8 17 -20 14 -28 -3
-7 0 -13 6 -13 6 0 11 -11 11 -25 0 -18 5 -25 20 -25 13 0 18 -5 14 -15 -4 -8
-1 -15 5 -15 6 0 11 -9 11 -19 0 -10 7 -21 15 -25 8 -3 15 -15 15 -26 0 -11 5
-20 10 -20 6 0 10 -6 10 -13 0 -7 11 -21 25 -31 14 -10 25 -27 25 -37 0 -11 9
-19 23 -21 14 -2 23 -11 25 -25 2 -13 8 -23 13 -23 5 0 14 -12 19 -26 6 -14
19 -28 30 -31 11 -3 20 -12 20 -19 0 -8 9 -14 19 -14 11 0 23 -9 26 -20 3 -11
11 -20 16 -20 5 0 9 -7 9 -15 0 -8 5 -15 11 -15 14 0 39 -25 39 -39 0 -6 7
-11 15 -11 8 0 15 -4 15 -10 0 -5 9 -10 20 -10 13 0 18 -5 14 -15 -4 -10 0
-15 11 -15 10 0 28 -11 41 -25 13 -14 28 -25 34 -25 6 0 21 -11 34 -25 13 -14
28 -25 35 -25 6 0 11 -4 11 -10 0 -5 9 -10 20 -10 13 0 18 -5 14 -15 -4 -10 0
-15 15 -15 12 0 21 -4 21 -10 0 -5 7 -10 15 -10 8 0 15 -7 15 -15 0 -9 9 -15
25 -15 14 0 25 -4 25 -9 0 -5 14 -11 31 -15 30 -6 62 -29 53 -38 -2 -3 16 -8
42 -12 27 -3 54 -14 63 -25 9 -10 36 -22 61 -26 25 -4 52 -15 60 -25 10 -11
38 -20 85 -25 53 -5 73 -12 83 -27 11 -16 23 -19 57 -16 34 2 41 0 33 -9 -8
-10 1479 -13 7437 -13 5958 0 7445 3 7437 13 -8 9 -1 11 33 9 34 -3 46 0 57
16 10 15 30 22 83 27 50 6 75 13 87 27 10 11 35 22 60 25 24 4 50 14 58 24 9
9 37 20 63 24 32 5 48 13 52 26 4 11 20 21 41 25 19 3 34 10 34 15 0 5 11 9
25 9 16 0 25 6 25 15 0 8 7 15 15 15 8 0 15 5 15 10 0 6 9 10 20 10 11 0 20 7
20 15 0 8 7 15 15 15 8 0 15 5 15 10 0 6 11 10 24 10 17 0 26 7 30 25 5 20 13
25 37 25 20 0 29 4 27 12 -6 16 16 38 37 38 11 0 15 5 11 15 -4 10 1 15 14 15
11 0 20 5 20 10 0 6 7 10 15 10 8 0 15 7 15 15 0 8 4 15 9 15 5 0 12 9 16 19
3 11 15 23 25 26 10 3 22 15 25 26 4 10 15 19 26 19 10 0 19 7 19 15 0 9 11
20 25 25 15 6 25 17 25 30 0 11 6 20 14 20 8 0 16 10 18 23 2 14 11 23 26 25
16 3 22 10 22 28 0 13 5 24 12 24 6 0 8 3 5 6 -7 7 30 44 45 44 4 0 8 11 8 25
0 16 6 25 15 25 8 0 15 9 15 20 0 11 5 20 11 20 6 0 9 6 6 13 -3 8 3 20 14 28
10 7 19 19 19 26 0 7 5 13 11 13 6 0 9 7 5 15 -4 10 1 15 14 15 16 0 20 7 20
35 0 19 5 35 11 35 7 0 9 10 7 25 -4 19 -1 25 13 25 14 0 19 7 19 25 0 14 5
25 11 25 7 0 9 10 7 25 -3 14 -1 25 3 25 5 0 9 10 9 23 0 12 10 28 21 35 18
11 21 20 16 53 -3 21 -1 39 4 39 5 0 9 13 9 29 0 20 6 30 20 34 15 4 20 14 20
36 0 17 5 31 10 31 7 0 10 2487 10 7441 0 5949 -3 7440 -12 7436 -10 -3 -12 7
-9 40 3 38 0 45 -18 50 -17 4 -21 13 -21 44 0 22 -4 39 -8 39 -5 0 -7 13 -4
29 3 22 -1 33 -17 43 -12 7 -21 23 -21 35 0 13 -4 23 -9 23 -4 0 -6 11 -3 25
2 15 0 25 -7 25 -6 0 -11 11 -11 25 0 17 -5 25 -18 25 -15 0 -17 6 -14 35 3
21 0 35 -7 35 -6 0 -11 11 -11 25 0 18 -5 25 -20 25 -13 0 -18 5 -14 15 4 8 1
15 -5 15 -6 0 -11 11 -11 25 0 18 -5 25 -19 25 -14 0 -18 5 -14 20 5 20 -17
50 -36 50 -6 0 -11 11 -11 25 0 14 -4 25 -10 25 -5 0 -10 7 -10 15 0 8 -7 15
-15 15 -9 0 -15 9 -15 21 0 22 -22 49 -39 49 -6 0 -11 6 -11 13 0 7 -9 19 -20
27 -11 8 -20 18 -20 22 0 14 -34 48 -47 48 -7 0 -13 5 -13 11 0 14 -25 39 -39
39 -6 0 -11 5 -11 11 0 14 -25 39 -39 39 -6 0 -11 5 -11 11 0 14 -25 39 -39
39 -6 0 -11 7 -11 15 0 8 -9 15 -20 15 -13 0 -22 9 -26 25 -4 16 -13 25 -25
25 -10 0 -19 5 -19 10 0 6 -7 10 -15 10 -8 0 -15 7 -15 15 0 8 -7 15 -15 15
-8 0 -15 5 -15 10 0 6 -9 10 -20 10 -11 0 -20 5 -20 10 0 6 -11 15 -25 20 -14
5 -28 17 -31 25 -4 8 -15 15 -25 15 -11 0 -22 7 -25 15 -4 8 -17 15 -30 15
-13 0 -24 5 -24 10 0 6 -7 10 -15 10 -8 0 -15 7 -15 15 0 9 -9 15 -25 15 -14
0 -25 4 -25 9 0 5 -16 12 -35 15 -19 4 -35 11 -35 16 0 6 -11 10 -25 10 -14 0
-25 5 -25 10 0 6 -11 10 -25 10 -16 0 -25 6 -25 15 0 11 -11 15 -40 15 -22 0
-40 5 -40 10 0 6 -11 10 -25 10 -16 0 -25 6 -25 15 0 11 -12 15 -49 15 -28 0
-53 5 -56 10 -3 6 -26 10 -51 10 -24 0 -44 5 -44 10 0 7 -2482 10 -7425 10
-4943 0 -7425 -3 -7425 -10z m8158 -3375 c1274 -133 2253 -971 2476 -2121 42
-218 51 -324 50 -584 -1 -440 -66 -764 -227 -1125 -388 -870 -1251 -1436
-2339 -1536 -190 -17 -646 -6 -818 19 -556 84 -1025 275 -1421 578 -467 358
-787 874 -913 1469 -68 327 -76 758 -20 1095 81 486 305 944 651 1328 348 387
886 687 1463 816 110 24 356 62 450 69 138 10 515 6 648 -8z m7054 -12 c17
-15 18 -56 18 -883 0 -732 -2 -869 -14 -879 -11 -9 -118 -7 -453 8 -241 11
-475 23 -520 26 l-83 6 0 -1812 c0 -1672 -1 -1814 -17 -1831 -15 -17 -59 -18
-981 -18 -884 0 -967 1 -984 17 -17 15 -18 85 -18 1830 l0 1813 -77 -5 c-190
-13 -965 -45 -973 -40 -16 10 -13 1758 2 1773 9 9 477 12 2047 12 1879 0 2036
-1 2053 -17z m-13934 -5 c9 -9 12 -223 12 -900 l0 -888 570 0 570 0 0 882 c0
806 1 883 17 900 15 17 58 18 948 18 711 0 934 -3 943 -12 17 -17 17 -5359 0
-5376 -9 -9 -232 -12 -942 -12 -851 0 -931 1 -948 17 -17 15 -18 57 -18 930
l0 913 -570 0 -570 0 0 -918 c0 -701 -3 -921 -12 -930 -9 -9 -232 -12 -942
-12 -851 0 -931 1 -948 17 -17 16 -18 112 -18 2681 0 2466 1 2667 17 2684 15
17 58 18 948 18 711 0 934 -3 943 -12z m14372 -23 c0 -10 -10 -15 -30 -15
l-30 0 0 -80 c0 -64 -3 -80 -15 -80 -12 0 -15 16 -15 80 l0 80 -30 0 c-29 0
-38 9 -23 23 3 4 37 7 75 7 54 0 68 -3 68 -15z m89 -46 l28 -61 26 61 c20 46
31 61 47 61 19 0 20 -6 20 -95 0 -78 -3 -95 -15 -95 -12 0 -15 14 -15 63 l-1
62 -29 -62 c-16 -35 -31 -63 -34 -63 -3 0 -19 28 -35 63 l-29 62 -1 -62 c-1
-49 -4 -63 -16 -63 -12 0 -15 17 -15 95 0 89 1 95 21 95 15 0 27 -15 48 -61z
m-14306 -6108 c223 -49 481 -162 657 -289 l95 -69 3 -143 3 -143 -88 84 c-149
144 -338 252 -570 328 -374 123 -771 92 -1127 -86 -163 -82 -288 -175 -422
-316 -403 -421 -505 -997 -263 -1478 52 -104 103 -181 188 -283 203 -243 560
-450 901 -523 120 -25 420 -25 540 0 288 62 592 209 771 375 l69 64 0 -136 0
-135 -53 -40 c-196 -144 -450 -257 -707 -313 -93 -20 -132 -22 -340 -22 -206
0 -248 3 -339 22 -371 81 -673 244 -923 498 -98 100 -130 139 -198 239 -191
284 -276 597 -249 922 17 209 56 350 149 538 243 487 720 827 1295 920 136 22
478 14 608 -14z m3232 0 c662 -134 1182 -621 1326 -1241 30 -126 37 -391 15
-535 -90 -580 -539 -1079 -1149 -1274 -202 -65 -278 -75 -542 -75 -212 0 -252
2 -345 22 -543 118 -980 445 -1210 907 -93 188 -134 336 -150 540 -61 806 560
1528 1435 1670 139 22 477 14 620 -14z m3730 0 c662 -134 1182 -621 1326
-1241 30 -126 37 -391 15 -535 -90 -580 -539 -1079 -1149 -1274 -202 -65 -278
-75 -542 -75 -212 0 -252 2 -345 22 -543 118 -980 445 -1210 907 -93 188 -134
336 -150 540 -61 806 560 1528 1435 1670 139 22 477 14 620 -14z m2087 -722
l3 -711 773 711 772 712 142 -3 142 -3 -803 -739 c-766 -705 -801 -740 -784
-756 10 -10 395 -369 856 -799 l837 -781 -142 0 -143 0 -784 730 c-431 402
-787 730 -790 730 -3 0 -23 -16 -43 -35 l-38 -35 0 -695 0 -695 -110 0 -110 0
0 1540 0 1540 110 0 110 0 2 -711z m2478 -829 l0 -1540 -110 0 -110 0 0 1540
0 1540 110 0 110 0 0 -1540z m2280 1445 l0 -95 -680 0 -680 0 0 -555 0 -555
660 0 660 0 0 -95 0 -95 -660 0 -660 0 0 -700 0 -700 680 0 680 0 0 -95 0 -95
-790 0 -790 0 0 1540 0 1540 790 0 790 0 0 -95z m-12412 -3468 l3 -37 172 2
172 3 3 38 3 37 70 0 69 0 0 -44 c0 -49 13 -83 68 -173 118 -195 109 -182 236
-343 65 -83 299 -319 361 -365 22 -16 72 -53 111 -82 39 -29 74 -53 77 -53 4
0 24 -11 45 -23 63 -40 146 -84 172 -92 14 -4 39 -13 55 -20 85 -36 169 -65
205 -71 38 -6 40 -5 40 20 0 25 2 26 55 26 l54 0 3 -295 c3 -286 4 -295 24
-316 l22 -21 21 21 c20 20 21 29 21 321 0 287 -1 301 -20 320 -11 11 -31 20
-44 20 -37 0 -89 41 -113 90 -23 43 -23 52 -23 380 l0 336 25 51 c33 65 65 87
132 87 62 1 97 -21 133 -85 l25 -44 3 -317 3 -318 -60 0 -61 0 0 294 c0 276
-1 295 -19 317 l-20 24 -23 -23 c-23 -22 -23 -24 -26 -310 -2 -314 0 -330 53
-345 72 -22 94 -37 122 -84 l28 -48 0 -345 c0 -338 0 -346 -22 -387 -32 -58
-75 -87 -134 -87 -27 0 -57 7 -72 17 -25 16 -162 17 -1982 17 l-1955 0 0 40 0
40 90 0 c77 0 98 4 152 29 111 51 160 73 273 123 60 26 125 58 145 71 19 13
52 31 73 41 20 9 63 35 95 57 31 22 82 56 112 76 30 20 69 48 86 62 17 14 49
40 71 58 59 47 222 211 268 268 22 27 48 58 58 67 9 10 17 22 17 26 0 5 14 24
30 42 78 87 234 383 301 572 40 111 89 300 89 342 0 30 12 35 75 33 l50 -2 3
-38z m8394 6 l3 -38 172 -3 172 -2 3 37 c3 36 5 38 42 41 61 5 86 -4 86 -33 0
-35 45 -216 74 -300 50 -141 58 -160 106 -259 75 -153 164 -305 210 -356 16
-18 30 -37 30 -42 0 -4 8 -16 18 -26 9 -9 35 -40 57 -67 98 -122 293 -299 434
-394 22 -14 66 -45 100 -68 34 -23 78 -50 99 -59 20 -10 53 -28 72 -41 20 -13
85 -45 145 -71 113 -50 162 -72 273 -123 54 -25 75 -29 152 -29 l90 0 0 -40 0
-40 -1958 0 c-1823 0 -1959 -1 -1982 -17 -33 -23 -107 -22 -148 2 -19 12 -43
40 -57 69 l-25 50 0 595 c0 384 4 609 11 634 5 20 25 53 44 72 89 88 226 35
255 -97 5 -28 10 -175 10 -340 l0 -291 40 7 c36 6 120 35 205 71 17 7 41 16
55 20 14 4 59 27 100 50 41 23 93 53 115 65 22 12 58 37 80 54 22 18 62 47 88
65 65 44 310 288 383 381 127 162 118 149 236 343 55 90 68 124 68 173 l0 44
69 0 70 0 3 -37z m-4632 -253 l0 -70 -85 0 -85 0 2 -337 3 -338 68 -3 67 -3 0
-64 0 -65 -70 0 -70 0 0 -410 0 -410 -55 0 -55 0 0 885 0 885 140 0 140 0 0
-70z m-1241 -237 c14 -11 37 -40 51 -64 l25 -44 0 -675 0 -675 -100 0 c-122 0
-153 15 -190 89 l-25 50 0 335 c0 304 2 340 19 376 28 63 73 95 132 95 l49 0
0 179 c0 156 -2 182 -18 201 -36 44 -72 -4 -72 -95 l0 -55 -56 0 -56 0 4 98
c3 87 6 103 29 139 15 22 42 47 60 57 42 21 111 16 148 -11z m385 13 c45 -19
83 -71 96 -132 7 -32 9 -271 8 -694 l-3 -645 -57 -3 -58 -3 0 653 c0 721 2
698 -61 698 l-29 0 0 -675 0 -675 -55 0 -55 0 0 745 0 745 90 0 c55 0 104 -6
124 -14z m1246 -56 l0 -70 -85 0 -85 0 0 -675 0 -675 -55 0 -55 0 0 745 0 745
140 0 140 0 0 -70z m339 43 c14 -11 37 -40 51 -64 l25 -44 0 -675 0 -675 -100
0 c-122 0 -153 15 -190 89 l-25 50 0 335 c0 304 2 340 19 376 28 63 73 95 132
95 l49 0 0 179 c0 156 -2 182 -18 201 -36 44 -72 -4 -72 -95 l0 -55 -56 0 -56
0 4 98 c3 87 6 103 29 139 15 22 42 47 60 57 42 21 111 16 148 -11z m395 13
c45 -19 83 -71 96 -132 7 -32 9 -271 8 -694 l-3 -645 -57 -3 -58 -3 0 653 c0
721 2 698 -61 698 l-29 0 0 -675 0 -675 -55 0 -55 0 0 745 0 745 90 0 c55 0
104 -6 124 -14z m420 0 c68 -28 105 -109 106 -228 l0 -58 -60 0 -60 0 0 59 c0
92 -48 132 -79 65 -8 -18 -11 -186 -11 -574 l0 -549 23 -27 24 -27 21 21 c18
18 22 34 22 82 l0 60 61 0 62 0 -5 -83 c-9 -138 -63 -211 -157 -211 -64 0
-106 28 -137 90 l-25 50 3 615 3 615 26 41 c44 66 113 88 183 59z m316 -56 l0
-70 -55 0 -55 0 0 70 0 70 55 0 55 0 0 -70z m349 43 c14 -11 37 -40 51 -64 24
-43 25 -49 28 -291 l4 -248 -61 0 -61 0 0 224 c0 199 -2 226 -18 246 -21 25
-45 19 -61 -16 -16 -36 -15 -431 2 -464 7 -13 26 -29 42 -33 70 -20 99 -42
125 -92 25 -49 25 -50 25 -315 0 -258 -1 -266 -23 -312 -31 -63 -72 -92 -131
-92 -64 0 -106 28 -136 88 -25 49 -25 54 -25 293 l0 243 55 0 55 0 0 -219 c0
-216 0 -220 23 -247 l24 -27 21 21 c21 21 22 30 22 252 0 217 -1 231 -20 250
-11 11 -31 20 -44 20 -37 0 -89 41 -114 90 -22 44 -23 50 -20 326 l3 281 26
40 c15 22 42 47 60 57 42 21 111 16 148 -11z m385 13 c68 -28 105 -109 106
-228 l0 -58 -60 0 -60 0 0 59 c0 92 -48 132 -79 65 -8 -18 -11 -186 -11 -574
l0 -549 23 -27 24 -27 21 21 c18 18 22 34 22 82 l0 60 61 0 62 0 -5 -83 c-9
-138 -63 -211 -157 -211 -64 0 -106 28 -137 90 l-25 50 3 615 3 615 26 41 c44
66 113 88 183 59z m-734 -846 l0 -630 -55 0 -55 0 0 630 0 630 55 0 55 0 0
-630z"/>
<path d="M9196 12869 c-139 -20 -302 -83 -396 -153 -65 -49 -181 -171 -226
-238 -190 -285 -225 -686 -89 -1010 90 -214 286 -403 499 -483 124 -46 199
-59 366 -59 185 0 283 21 424 88 255 121 425 339 492 631 15 63 19 117 18 260
-1 198 -12 261 -75 410 -69 167 -222 348 -365 433 -179 107 -428 153 -648 121z"/>
<path d="M5740 8259 c-512 -37 -984 -343 -1220 -790 -169 -323 -195 -698 -71
-1037 69 -190 167 -339 331 -503 222 -222 462 -353 780 -424 113 -25 409 -32
536 -12 622 99 1114 551 1240 1139 25 115 25 361 1 478 -58 273 -188 511 -388
710 -317 315 -749 472 -1209 439z"/>
<path d="M9470 8259 c-512 -37 -984 -343 -1220 -790 -169 -323 -195 -698 -71
-1037 69 -190 167 -339 331 -503 222 -222 462 -353 780 -424 113 -25 409 -32
536 -12 622 99 1114 551 1240 1139 25 115 25 361 1 478 -58 273 -188 511 -388
710 -317 315 -749 472 -1209 439z"/>
<path d="M4455 4653 c14 -27 51 -83 81 -125 47 -67 59 -78 84 -78 17 0 30 1
30 3 0 1 16 49 35 106 19 57 35 112 35 122 0 18 -10 19 -146 19 l-145 0 26
-47z"/>
<path d="M4870 4397 l0 -278 49 -45 c28 -25 65 -58 83 -74 l33 -29 3 219 2
219 -37 57 c-50 75 -52 78 -95 148 l-38 61 0 -278z"/>
<path d="M4413 4540 l2 -85 48 -3 c26 -2 47 1 47 5 0 5 -16 33 -36 63 -19 29
-42 65 -50 79 -13 24 -14 19 -11 -59z"/>
<path d="M4236 4532 c-10 -31 -26 -75 -36 -97 -16 -35 -18 -81 -22 -383 l-3
-342 42 43 43 42 -2 397 -3 396 -19 -56z"/>
<path d="M5080 4147 l0 -205 33 -28 c18 -16 55 -43 82 -59 28 -17 59 -36 70
-43 11 -6 32 -19 48 -27 l27 -16 0 149 0 149 -71 74 c-39 41 -88 94 -107 119
-20 25 -47 56 -59 69 l-23 24 0 -206z"/>
<path d="M4417 4333 c-4 -3 -7 -73 -7 -155 0 -115 3 -149 13 -146 15 6 177
282 177 304 0 7 -177 4 -183 -3z"/>
<path d="M4690 4326 c0 -7 7 -19 15 -26 16 -13 20 -3 9 24 -8 20 -24 21 -24 2z"/>
<path d="M4600 4209 c-19 -39 -45 -85 -57 -102 -13 -17 -23 -41 -23 -54 0 -21
4 -23 60 -23 l60 0 0 125 c0 69 -1 125 -2 125 -2 -1 -19 -33 -38 -71z"/>
<path d="M4114 4247 c-6 -12 -30 -56 -54 -97 l-43 -75 -5 -265 -5 -265 49 45
c27 24 56 51 64 59 20 19 22 101 13 388 -6 181 -10 227 -19 210z"/>
<path d="M4686 4183 c-3 -21 -6 -64 -6 -96 0 -50 2 -58 18 -55 14 3 18 16 20
73 3 74 -3 115 -17 115 -5 0 -11 -17 -15 -37z"/>
<path d="M4870 3531 l0 -511 91 0 92 0 -7 77 c-3 42 -6 241 -6 442 l0 367 -27
16 c-16 9 -46 34 -68 55 -83 80 -75 129 -75 -446z"/>
<path d="M5380 3886 c0 -95 4 -136 13 -143 14 -11 122 -55 182 -75 22 -7 43
-17 47 -23 4 -5 8 34 8 87 l0 97 -57 43 c-32 24 -86 67 -121 96 -34 28 -64 52
-67 52 -3 0 -5 -60 -5 -134z"/>
<path d="M3902 3908 l-62 -82 0 -203 c0 -116 4 -203 9 -203 5 0 11 3 13 8 2 4
27 25 56 47 l52 39 0 238 c0 131 -2 238 -3 238 -2 0 -32 -37 -65 -82z"/>
<path d="M4417 3893 c-4 -3 -7 -85 -7 -182 l0 -176 35 0 35 0 0 183 0 182 -28
0 c-16 0 -32 -3 -35 -7z"/>
<path d="M4520 3718 l0 -176 66 -4 66 -3 -6 29 c-3 16 -6 97 -6 181 l0 153
-60 -2 -60 -1 0 -177z"/>
<path d="M4680 3721 c0 -145 3 -180 14 -184 23 -9 26 15 26 178 0 161 -3 185
-26 185 -11 0 -14 -33 -14 -179z"/>
<path d="M5083 3675 c4 -109 7 -301 7 -427 l0 -228 125 0 125 0 0 344 0 345
-52 31 c-72 42 -84 49 -152 94 l-59 39 6 -198z"/>
<path d="M5677 3718 c3 -46 10 -86 15 -89 13 -8 127 -28 216 -37 l72 -8 0 32
c0 29 -5 34 -52 54 -97 41 -123 54 -184 92 -34 21 -64 38 -67 38 -3 0 -3 -37
0 -82z"/>
<path d="M3792 3774 c-1 -6 -34 -43 -72 -81 l-70 -71 2 -166 3 -165 55 37 c98
65 91 44 87 263 -1 107 -3 189 -5 183z"/>
<path d="M4207 3672 l-37 -37 0 -307 0 -308 45 0 45 0 0 345 c0 190 -3 345 -7
345 -5 -1 -25 -18 -46 -38z"/>
<path d="M5383 3464 c4 -125 7 -276 7 -336 l0 -108 125 0 125 0 0 178 c0 97
-3 227 -6 288 l-7 111 -56 18 c-31 9 -78 27 -106 40 -98 44 -89 66 -82 -191z"/>
<path d="M6020 3606 c0 -26 1 -26 83 -25 l82 0 -73 19 c-40 11 -77 22 -82 25
-6 4 -10 -5 -10 -19z"/>
<path d="M3569 3549 c-24 -22 -54 -47 -66 -56 -22 -15 -23 -21 -23 -155 l0
-139 70 37 70 38 0 158 c0 87 -1 158 -3 158 -2 0 -23 -18 -48 -41z"/>
<path d="M4058 3532 l-48 -47 0 -233 0 -232 60 0 60 0 0 203 c0 207 -8 357
-19 357 -3 0 -27 -22 -53 -48z"/>
<path d="M5680 3301 l0 -281 150 0 150 0 -2 258 -3 257 -70 6 c-38 4 -92 12
-120 18 -27 6 -62 14 -77 17 l-28 6 0 -281z"/>
<path d="M6120 3533 l-95 -4 3 -254 3 -255 110 0 c97 0 110 2 105 16 -3 9 -6
126 -6 260 0 190 -3 244 -12 242 -7 -1 -56 -4 -108 -5z"/>
<path d="M3391 3406 c-23 -19 -50 -38 -61 -41 -18 -6 -20 -16 -20 -122 0 -63
4 -113 8 -111 4 2 33 14 65 27 l57 25 0 128 c0 70 -2 128 -4 128 -2 0 -23 -15
-45 -34z"/>
<path d="M3895 3405 l-50 -36 -6 -72 c-4 -40 -7 -118 -8 -174 l-1 -103 60 0
60 0 0 210 c0 116 -1 210 -3 210 -1 0 -25 -16 -52 -35z"/>
<path d="M4410 3200 l0 -180 41 0 42 0 -6 68 c-4 37 -7 118 -7 180 l0 112 -35
0 -35 0 0 -180z"/>
<path d="M4520 3200 l0 -180 65 0 65 0 0 180 0 180 -65 0 -65 0 0 -180z"/>
<path d="M4680 3201 c0 -175 1 -181 20 -181 20 0 20 5 18 177 -3 160 -5 178
-20 181 -17 3 -18 -11 -18 -177z"/>
<path d="M3208 3287 l-68 -40 0 -94 c0 -51 4 -93 8 -93 5 0 35 11 68 24 l59
24 3 56 c2 31 2 80 0 110 l-3 54 -67 -41z"/>
<path d="M3749 3307 c-19 -13 -49 -30 -67 -38 l-32 -14 0 -117 0 -118 70 0 70
0 0 155 c0 85 -2 155 -4 155 -2 0 -19 -10 -37 -23z"/>
<path d="M3038 3195 l-58 -30 0 -72 0 -73 48 0 c71 0 73 3 70 111 l-3 94 -57
-30z"/>
<path d="M3548 3197 l-58 -30 0 -74 0 -73 60 0 60 0 0 105 c0 58 -1 105 -2
104 -2 0 -29 -15 -60 -32z"/>
<path d="M2865 3114 c-38 -19 -99 -48 -135 -64 l-65 -29 143 -1 142 0 0 65 c0
36 -3 65 -7 65 -5 0 -39 -16 -78 -36z"/>
<path d="M3363 3112 c-48 -23 -53 -29 -53 -59 l0 -33 64 0 c63 0 64 0 68 30 6
42 -2 90 -16 88 -6 0 -35 -12 -63 -26z"/>
<path d="M3245 3058 c-11 -7 -36 -18 -55 -25 -35 -12 -35 -12 28 -13 60 0 62
1 62 25 0 28 -6 30 -35 13z"/>
<path d="M12780 4683 c0 -10 16 -66 36 -125 34 -104 37 -108 65 -108 24 0 36
11 83 78 30 42 67 98 81 125 l26 47 -145 0 c-132 0 -146 -2 -146 -17z"/>
<path d="M12600 4629 c-31 -53 -54 -90 -103 -163 l-37 -57 2 -219 3 -219 35
30 c19 17 56 50 83 74 l47 43 -2 277 -3 277 -25 -43z"/>
<path d="M13082 4615 c-1 -6 -22 -42 -47 -80 -25 -39 -45 -73 -45 -77 0 -14
90 -9 96 5 3 8 3 47 1 88 -1 41 -4 69 -5 64z"/>
<path d="M13240 4195 l0 -401 43 -42 42 -42 -3 343 c-3 264 -7 349 -18 372 -7
17 -25 62 -38 100 l-25 70 -1 -400z"/>
<path d="M12380 4309 c-60 -73 -140 -162 -181 -201 l-39 -36 0 -151 0 -152 28
16 c91 51 189 115 211 138 21 23 21 30 19 226 l-3 203 -35 -43z"/>
<path d="M12785 4319 c-4 -11 -4 -23 0 -27 7 -7 25 17 25 36 0 20 -18 14 -25
-9z"/>
<path d="M12900 4337 c0 -8 77 -151 121 -226 66 -112 70 -109 67 71 l-3 153
-92 3 c-51 1 -93 1 -93 -1z"/>
<path d="M12860 4157 l0 -127 60 0 c56 0 60 1 60 24 0 13 -8 34 -19 47 -10 13
-27 42 -38 64 -12 22 -30 58 -42 80 l-21 39 0 -127z"/>
<path d="M13366 3982 c-4 -158 -4 -296 0 -307 9 -22 9 -22 78 -85 l49 -45 -5
265 -5 265 -43 75 c-23 41 -48 85 -55 97 -10 19 -13 -29 -19 -265z"/>
<path d="M11084 4242 c-32 -21 -34 -51 -34 -601 l0 -550 23 -27 24 -27 21 21
22 22 0 563 c0 493 -2 565 -16 585 -16 24 -23 26 -40 14z"/>
<path d="M12785 4197 c-3 -12 -5 -54 -3 -92 2 -57 6 -70 21 -73 15 -3 17 5 17
55 0 107 -20 170 -35 110z"/>
<path d="M12569 3990 c-30 -28 -66 -58 -81 -67 l-28 -17 0 -367 c0 -201 -3
-400 -6 -442 l-7 -77 92 0 91 0 0 510 c0 281 -2 510 -4 510 -2 0 -28 -23 -57
-50z"/>
<path d="M12050 3970 c-36 -30 -91 -74 -122 -98 l-58 -43 0 -97 c0 -53 4 -92
8 -87 4 6 25 16 47 23 70 24 170 65 183 77 9 8 12 46 10 145 l-3 134 -65 -54z"/>
<path d="M13530 3754 l0 -240 53 -39 c28 -22 54 -43 55 -47 2 -5 8 -8 13 -8 5
0 9 87 9 203 l0 204 -56 74 c-31 41 -60 78 -65 84 -5 5 -9 -87 -9 -231z"/>
<path d="M12786 3884 c-8 -20 -8 -317 0 -338 3 -8 12 -12 20 -9 21 8 21 363 0
363 -8 0 -17 -7 -20 -16z"/>
<path d="M12860 3745 c0 -84 -3 -165 -6 -181 l-6 -29 66 3 66 4 0 176 0 177
-60 1 -60 2 0 -153z"/>
<path d="M13020 3718 l0 -183 35 0 35 0 -2 180 -3 180 -32 3 -33 3 0 -183z"/>
<path d="M12375 3840 c-22 -15 -54 -36 -71 -46 -18 -11 -57 -34 -88 -52 l-56
-33 0 -345 0 -344 123 0 124 0 6 422 c3 232 5 423 4 424 -1 1 -20 -10 -42 -26z"/>
<path d="M11780 3777 c-52 -36 -117 -70 -192 -101 -64 -27 -68 -30 -68 -60 l0
-32 73 8 c88 9 202 29 215 37 11 7 23 171 13 171 -3 0 -22 -11 -41 -23z"/>
<path d="M13700 3587 l0 -194 28 -21 c15 -11 47 -34 72 -51 l45 -30 3 167 3
166 -43 40 c-24 22 -58 58 -75 79 l-33 39 0 -195z"/>
<path d="M13240 3365 l0 -345 45 0 45 0 0 308 0 309 -40 36 c-21 21 -42 37
-45 37 -3 0 -5 -155 -5 -345z"/>
<path d="M12095 3680 c-11 -3 -41 -15 -66 -27 -25 -12 -71 -29 -101 -38 l-55
-18 -7 -111 c-3 -61 -6 -191 -6 -288 l0 -178 124 0 123 0 7 331 c4 182 6 332
4 333 -1 2 -12 0 -23 -4z"/>
<path d="M11468 3625 c-2 -3 -38 -14 -79 -24 l-74 -20 83 0 c81 -1 82 -1 82
24 0 25 -2 29 -12 20z"/>
<path d="M13880 3432 l0 -158 70 -38 70 -37 0 139 c0 134 -1 140 -22 155 -13
9 -43 34 -67 56 -25 23 -46 41 -48 41 -2 0 -3 -71 -3 -158z"/>
<path d="M11778 3575 c-8 -8 -109 -27 -183 -34 l-70 -6 -3 -257 -2 -258 150 0
150 0 0 280 c0 265 -1 280 -18 280 -10 0 -21 -2 -24 -5z"/>
<path d="M13376 3503 c-3 -42 -6 -168 -6 -280 l0 -203 60 0 60 0 0 233 0 233
-49 47 c-27 26 -51 47 -54 47 -2 0 -7 -34 -11 -77z"/>
<path d="M11260 3319 c0 -123 -3 -241 -6 -261 l-7 -38 111 0 111 0 3 255 3
255 -85 0 c-47 0 -95 3 -107 6 l-23 6 0 -223z"/>
<path d="M13550 3230 l0 -210 60 0 60 0 0 78 c0 42 -3 121 -7 174 l-6 97 -41
28 c-22 15 -46 32 -53 36 -10 6 -13 -35 -13 -203z"/>
<path d="M14060 3312 l0 -128 57 -25 c32 -13 61 -25 65 -27 4 -2 8 48 8 111
l0 115 -29 12 c-16 6 -38 21 -48 32 -10 11 -26 24 -35 29 -17 9 -18 1 -18
-119z"/>
<path d="M12787 3373 c-4 -3 -7 -84 -7 -180 0 -166 1 -173 20 -173 19 0 20 7
20 180 0 143 -3 180 -13 180 -8 0 -17 -3 -20 -7z"/>
<path d="M12850 3200 l0 -180 65 0 65 0 0 180 0 180 -65 0 -65 0 0 -180z"/>
<path d="M13020 3268 c0 -62 -3 -143 -7 -180 l-6 -68 42 0 41 0 0 180 0 180
-35 0 -35 0 0 -112z"/>
<path d="M13710 3176 l0 -156 70 0 70 0 0 118 0 117 -37 18 c-21 10 -53 27
-70 38 l-33 21 0 -156z"/>
<path d="M14222 3220 l3 -112 59 -24 c33 -13 63 -24 68 -24 4 0 8 42 8 94 l0
94 -42 24 c-24 13 -56 32 -71 42 l-28 19 3 -113z"/>
<path d="M13890 3124 l0 -104 60 0 60 0 0 73 0 74 -60 31 -60 31 0 -105z"/>
<path d="M14400 3130 c0 -110 0 -110 76 -110 l44 0 0 73 0 72 -60 31 -60 31 0
-97z"/>
<path d="M14550 3085 l0 -65 143 1 c78 0 135 3 127 6 -8 3 -70 32 -137 64 -68
33 -125 59 -128 59 -3 0 -5 -29 -5 -65z"/>
<path d="M14058 3110 c-3 -16 -3 -43 0 -60 4 -30 5 -30 68 -30 l64 0 0 33 c0
30 -4 35 -59 60 -32 15 -61 27 -64 27 -3 0 -7 -13 -9 -30z"/>
<path d="M14220 3045 c0 -24 2 -25 63 -24 44 0 55 3 37 8 -14 5 -40 15 -57 24
-41 22 -43 22 -43 -8z"/>
<path d="M6789 3693 c-11 -12 -15 -79 -17 -308 -3 -284 -2 -292 18 -318 13
-16 31 -27 46 -27 l24 0 0 310 c0 319 -5 360 -40 360 -10 0 -24 -7 -31 -17z"/>
<path d="M8759 3693 c-11 -12 -15 -79 -17 -308 -3 -284 -2 -292 18 -318 13
-16 31 -27 46 -27 l24 0 0 310 c0 319 -5 360 -40 360 -10 0 -24 -7 -31 -17z"/>
</g>
</svg>
