<svg width="95" height="56" viewBox="0 0 95 56" fill="none" xmlns="http://www.w3.org/2000/svg">
<path d="M30.2529 0V30.9474H19.5862V19.1579H11.3V30.9474H0.633289V0H11.3V10.3158H19.5862V0H30.2529Z" fill="white"/>
<path d="M95 7.36842H84.6094V30.9474H75.7031V7.36842H65.3125L65.4262 0H95V7.36842Z" fill="white"/>
<path d="M15.0616 51.2509C14.5631 52.7535 13.6907 53.9251 12.4445 54.7658C11.2161 55.5886 9.73841 56 8.01149 56C6.40919 56 5.00273 55.6333 3.7921 54.8999C2.58148 54.1487 1.64681 53.0844 0.988083 51.707C0.329361 50.3297 0 48.7199 0 46.8775C0 45.0351 0.329361 43.4252 0.988083 42.0479C1.64681 40.6706 2.58148 39.6152 3.7921 38.8819C5.00273 38.1306 6.40029 37.755 7.98478 37.755C11.5098 37.755 13.7887 39.2128 14.8212 42.1284L13.5127 42.7455C13.1032 41.4934 12.4445 40.5543 11.5365 39.9283C10.6464 39.3022 9.48916 38.9892 8.0649 38.9892C6.74745 38.9892 5.58133 39.3112 4.56655 39.9551C3.56956 40.5812 2.79512 41.4934 2.24322 42.6919C1.69131 43.8724 1.41536 45.2676 1.41536 46.8775C1.41536 48.4873 1.68241 49.8915 2.21651 51.0899C2.76841 52.2705 3.53396 53.1828 4.51314 53.8267C5.51012 54.4527 6.67624 54.7658 8.01149 54.7658C9.43575 54.7658 10.6464 54.417 11.6434 53.7194C12.6403 53.0218 13.3347 52.029 13.7263 50.7411L15.0616 51.2509Z" fill="white"/>
<path d="M62.9646 46.1799L59.4396 49.7752V56H58.1043V36.8421H59.4396V47.9507L69.1068 36.8421H70.8693L63.8993 45.1871L71.0562 56H69.4272L62.9646 46.1799Z" fill="white"/>
<path d="M75.739 56H74.4038V36.8421H75.739V56Z" fill="white"/>
<path d="M93.5156 54.5263V56H81.6406V36.8421H93.5156V38.3158H83.125V45.6842H92.0312V47.1579H83.125V54.5263H93.5156Z" fill="white"/>
<path fill-rule="evenodd" clip-rule="evenodd" d="M48.2422 30.9474C56.8501 30.9474 63.8281 24.0196 63.8281 15.4737C63.8281 6.9278 56.8501 0 48.2422 0C39.6343 0 32.6562 6.9278 32.6562 15.4737C32.6562 24.0196 39.6343 30.9474 48.2422 30.9474ZM48.2422 20.6316C51.1115 20.6316 53.4375 18.3223 53.4375 15.4737C53.4375 12.6251 51.1115 10.3158 48.2422 10.3158C45.3729 10.3158 43.0469 12.6251 43.0469 15.4737C43.0469 18.3223 45.3729 20.6316 48.2422 20.6316Z" fill="white"/>
<path fill-rule="evenodd" clip-rule="evenodd" d="M26.7188 56C31.6375 56 35.625 52.0413 35.625 47.1579C35.625 42.2745 31.6375 38.3158 26.7188 38.3158C21.8 38.3158 17.8125 42.2745 17.8125 47.1579C17.8125 52.0413 21.8 56 26.7188 56ZM26.7188 54.5263C30.8177 54.5263 34.1406 51.2274 34.1406 47.1579C34.1406 43.0884 30.8177 39.7895 26.7188 39.7895C22.6198 39.7895 19.2969 43.0884 19.2969 47.1579C19.2969 51.2274 22.6198 54.5263 26.7188 54.5263Z" fill="white"/>
<path fill-rule="evenodd" clip-rule="evenodd" d="M46.0156 56C50.9344 56 54.9219 52.0413 54.9219 47.1579C54.9219 42.2745 50.9344 38.3158 46.0156 38.3158C41.0968 38.3158 37.1094 42.2745 37.1094 47.1579C37.1094 52.0413 41.0968 56 46.0156 56ZM46.0156 54.5263C50.1146 54.5263 53.4375 51.2274 53.4375 47.1579C53.4375 43.0884 50.1146 39.7895 46.0156 39.7895C41.9166 39.7895 38.5938 43.0884 38.5938 47.1579C38.5938 51.2274 41.9166 54.5263 46.0156 54.5263Z" fill="white"/>
</svg>
