<svg width="326" height="56" viewBox="0 0 326 56" fill="none" xmlns="http://www.w3.org/2000/svg">
<path d="M30.2529 0V30.9474H19.5862V19.1579H11.3V30.9474H0.633289V0H11.3V10.3158H19.5862V0H30.2529Z" fill="white"/>
<path d="M95 7.36842H84.6094V30.9474H75.7031V7.36842H65.3125L65.4262 0H95V7.36842Z" fill="white"/>
<path d="M15.0616 51.2509C14.5631 52.7535 13.6907 53.9251 12.4445 54.7658C11.2161 55.5886 9.73841 56 8.01149 56C6.40919 56 5.00273 55.6333 3.7921 54.8999C2.58148 54.1487 1.64681 53.0844 0.988083 51.707C0.329361 50.3297 0 48.7199 0 46.8775C0 45.0351 0.329361 43.4252 0.988083 42.0479C1.64681 40.6706 2.58148 39.6152 3.7921 38.8819C5.00273 38.1306 6.40029 37.755 7.98478 37.755C11.5098 37.755 13.7887 39.2128 14.8212 42.1284L13.5127 42.7455C13.1032 41.4934 12.4445 40.5543 11.5365 39.9283C10.6464 39.3022 9.48916 38.9892 8.0649 38.9892C6.74745 38.9892 5.58133 39.3112 4.56655 39.9551C3.56956 40.5812 2.79512 41.4934 2.24322 42.6919C1.69131 43.8724 1.41536 45.2676 1.41536 46.8775C1.41536 48.4873 1.68241 49.8915 2.21651 51.0899C2.76841 52.2705 3.53396 53.1828 4.51314 53.8267C5.51012 54.4527 6.67624 54.7658 8.01149 54.7658C9.43575 54.7658 10.6464 54.417 11.6434 53.7194C12.6403 53.0218 13.3347 52.029 13.7263 50.7411L15.0616 51.2509Z" fill="white"/>
<path d="M62.9646 46.1799L59.4396 49.7752V56H58.1043V36.8421H59.4396V47.9507L69.1068 36.8421H70.8693L63.8993 45.1871L71.0562 56H69.4272L62.9646 46.1799Z" fill="white"/>
<path d="M75.739 56H74.4038V36.8421H75.739V56Z" fill="white"/>
<path d="M93.5156 54.5263V56H81.6406V36.8421H93.5156V38.3158H83.125V45.6842H92.0312V47.1579H83.125V54.5263H93.5156Z" fill="white"/>
<path fill-rule="evenodd" clip-rule="evenodd" d="M48.2422 30.9474C56.8501 30.9474 63.8281 24.0196 63.8281 15.4737C63.8281 6.9278 56.8501 0 48.2422 0C39.6343 0 32.6562 6.9278 32.6562 15.4737C32.6562 24.0196 39.6343 30.9474 48.2422 30.9474ZM48.2422 20.6316C51.1115 20.6316 53.4375 18.3223 53.4375 15.4737C53.4375 12.6251 51.1115 10.3158 48.2422 10.3158C45.3729 10.3158 43.0469 12.6251 43.0469 15.4737C43.0469 18.3223 45.3729 20.6316 48.2422 20.6316Z" fill="white"/>
<path fill-rule="evenodd" clip-rule="evenodd" d="M26.7188 56C31.6375 56 35.625 52.0413 35.625 47.1579C35.625 42.2745 31.6375 38.3158 26.7188 38.3158C21.8 38.3158 17.8125 42.2745 17.8125 47.1579C17.8125 52.0413 21.8 56 26.7188 56ZM26.7188 54.5263C30.8177 54.5263 34.1406 51.2274 34.1406 47.1579C34.1406 43.0884 30.8177 39.7895 26.7188 39.7895C22.6198 39.7895 19.2969 43.0884 19.2969 47.1579C19.2969 51.2274 22.6198 54.5263 26.7188 54.5263Z" fill="white"/>
<path fill-rule="evenodd" clip-rule="evenodd" d="M46.0156 56C50.9344 56 54.9219 52.0413 54.9219 47.1579C54.9219 42.2745 50.9344 38.3158 46.0156 38.3158C41.0968 38.3158 37.1094 42.2745 37.1094 47.1579C37.1094 52.0413 41.0968 56 46.0156 56ZM46.0156 54.5263C50.1146 54.5263 53.4375 51.2274 53.4375 47.1579C53.4375 43.0884 50.1146 39.7895 46.0156 39.7895C41.9166 39.7895 38.5938 43.0884 38.5938 47.1579C38.5938 51.2274 41.9166 54.5263 46.0156 54.5263Z" fill="white"/>
<path d="M125.687 11.844V21.84H129.145C130.666 21.8027 131.809 21.378 132.575 20.566C133.349 19.7447 133.737 18.5034 133.737 16.842C133.737 15.1807 133.349 13.944 132.575 13.132C131.809 12.3107 130.666 11.8814 129.145 11.844H125.687ZM126.639 21.028V12.656H128.669C129.387 12.656 130.003 12.7354 130.517 12.894C131.039 13.0434 131.469 13.286 131.805 13.622C132.141 13.958 132.388 14.392 132.547 14.924C132.705 15.456 132.785 16.0954 132.785 16.842C132.785 17.5887 132.705 18.228 132.547 18.76C132.388 19.292 132.141 19.726 131.805 20.062C131.469 20.398 131.039 20.6454 130.517 20.804C130.003 20.9534 129.387 21.028 128.669 21.028H126.639ZM136.271 11.844V21.84H143.243V21.028H137.223V17.08H142.795V16.268H137.223V12.656H143.173V11.844H136.271ZM145.57 11.844V21.84H152.122V21.028H146.522V11.844H145.57ZM154.159 11.844V21.84H155.111V11.844H154.159ZM157.101 11.844L160.797 21.84H161.903L165.613 11.844H164.605L161.385 20.79H161.357L158.109 11.844H157.101ZM167.491 11.844V21.84H174.463V21.028H168.443V17.08H174.015V16.268H168.443V12.656H174.393V11.844H167.491ZM177.742 16.59V12.656H181.298C182.026 12.656 182.568 12.8334 182.922 13.188C183.277 13.5427 183.454 14.028 183.454 14.644C183.454 14.952 183.394 15.2274 183.272 15.47C183.16 15.7034 183.006 15.904 182.81 16.072C182.614 16.24 182.386 16.3707 182.124 16.464C181.863 16.548 181.588 16.59 181.298 16.59H177.742ZM176.79 11.844V21.84H177.742V17.402H181.354C181.802 17.3834 182.152 17.458 182.404 17.626C182.666 17.794 182.862 18.018 182.992 18.298C183.132 18.5687 183.221 18.8814 183.258 19.236C183.305 19.5814 183.338 19.9314 183.356 20.286C183.366 20.3887 183.375 20.51 183.384 20.65C183.394 20.79 183.403 20.9347 183.412 21.084C183.431 21.224 183.454 21.364 183.482 21.504C183.52 21.6347 183.566 21.7467 183.622 21.84H184.672C184.57 21.7187 184.486 21.5507 184.42 21.336C184.364 21.112 184.322 20.8787 184.294 20.636C184.266 20.384 184.248 20.1367 184.238 19.894C184.229 19.6514 184.22 19.446 184.21 19.278C184.192 18.9794 184.15 18.704 184.084 18.452C184.028 18.1907 183.93 17.962 183.79 17.766C183.66 17.57 183.487 17.4114 183.272 17.29C183.058 17.1594 182.787 17.0707 182.46 17.024V16.996C183.104 16.8654 183.59 16.5667 183.916 16.1C184.243 15.6334 184.406 15.0827 184.406 14.448C184.406 14 184.322 13.6127 184.154 13.286C183.996 12.95 183.776 12.6794 183.496 12.474C183.226 12.2594 182.904 12.1007 182.53 11.998C182.166 11.8954 181.779 11.844 181.368 11.844H176.79ZM187.198 11.844V21.84H188.15V11.844H187.198ZM191.218 11.844V21.84H192.17V13.384H192.198L198.022 21.84H199.086V11.844H198.134V20.3H198.106L192.282 11.844H191.218ZM210.629 21.84V16.758H206.387V17.57H209.789C209.798 18.102 209.728 18.592 209.579 19.04C209.43 19.488 209.206 19.8754 208.907 20.202C208.608 20.5287 208.24 20.7854 207.801 20.972C207.372 21.1494 206.882 21.238 206.331 21.238C205.668 21.238 205.099 21.112 204.623 20.86C204.147 20.608 203.755 20.2767 203.447 19.866C203.148 19.446 202.924 18.9747 202.775 18.452C202.635 17.92 202.565 17.3834 202.565 16.842C202.565 16.2914 202.635 15.7547 202.775 15.232C202.924 14.7094 203.148 14.2427 203.447 13.832C203.755 13.412 204.147 13.076 204.623 12.824C205.099 12.572 205.668 12.446 206.331 12.446C206.807 12.446 207.236 12.5254 207.619 12.684C208.002 12.8334 208.328 13.0294 208.599 13.272C208.879 13.5147 209.098 13.7854 209.257 14.084C209.425 14.3734 209.523 14.6627 209.551 14.952H210.503C210.41 14.4014 210.237 13.9207 209.985 13.51C209.733 13.0994 209.425 12.754 209.061 12.474C208.697 12.194 208.282 11.984 207.815 11.844C207.348 11.704 206.854 11.634 206.331 11.634C205.547 11.634 204.856 11.7787 204.259 12.068C203.671 12.348 203.181 12.7307 202.789 13.216C202.397 13.692 202.103 14.2427 201.907 14.868C201.711 15.4934 201.613 16.1514 201.613 16.842C201.613 17.5327 201.711 18.1907 201.907 18.816C202.103 19.4414 202.397 19.992 202.789 20.468C203.181 20.944 203.671 21.3267 204.259 21.616C204.856 21.896 205.547 22.036 206.331 22.036C206.695 22.036 207.045 21.9987 207.381 21.924C207.726 21.8494 208.048 21.7327 208.347 21.574C208.646 21.406 208.916 21.196 209.159 20.944C209.411 20.6827 209.621 20.3747 209.789 20.02H209.817L209.943 21.84H210.629ZM218.81 18.55H217.858C217.83 19.166 217.91 19.6934 218.096 20.132C218.292 20.5707 218.568 20.93 218.922 21.21C219.277 21.49 219.706 21.7 220.21 21.84C220.714 21.9707 221.26 22.036 221.848 22.036C222.436 22.036 222.94 21.98 223.36 21.868C223.78 21.7654 224.13 21.63 224.41 21.462C224.7 21.2847 224.924 21.0887 225.082 20.874C225.25 20.6594 225.376 20.4494 225.46 20.244C225.554 20.0294 225.61 19.8287 225.628 19.642C225.656 19.4554 225.67 19.306 225.67 19.194C225.67 18.7834 225.6 18.4334 225.46 18.144C225.33 17.8547 225.143 17.612 224.9 17.416C224.667 17.2107 224.392 17.0427 224.074 16.912C223.766 16.772 223.435 16.6554 223.08 16.562L220.644 15.96C220.439 15.9134 220.243 15.8527 220.056 15.778C219.879 15.7034 219.72 15.6054 219.58 15.484C219.44 15.3627 219.328 15.218 219.244 15.05C219.17 14.8727 219.132 14.6674 219.132 14.434C219.132 14.0607 219.202 13.748 219.342 13.496C219.482 13.244 219.664 13.0434 219.888 12.894C220.122 12.7354 220.388 12.6234 220.686 12.558C220.994 12.4834 221.312 12.446 221.638 12.446C221.993 12.446 222.329 12.4974 222.646 12.6C222.973 12.6934 223.258 12.838 223.5 13.034C223.752 13.2207 223.953 13.4587 224.102 13.748C224.261 14.028 224.35 14.3594 224.368 14.742H225.32C225.32 14.2287 225.218 13.7807 225.012 13.398C224.816 13.006 224.55 12.6794 224.214 12.418C223.878 12.1567 223.486 11.9607 223.038 11.83C222.59 11.6994 222.119 11.634 221.624 11.634C220.924 11.634 220.35 11.7367 219.902 11.942C219.454 12.138 219.1 12.3807 218.838 12.67C218.586 12.9594 218.414 13.2674 218.32 13.594C218.227 13.9207 218.18 14.2054 218.18 14.448C218.18 14.84 218.241 15.1714 218.362 15.442C218.493 15.7127 218.661 15.9414 218.866 16.128C219.072 16.3147 219.31 16.464 219.58 16.576C219.86 16.688 220.145 16.7814 220.434 16.856L222.66 17.402C222.894 17.458 223.132 17.5327 223.374 17.626C223.617 17.71 223.836 17.822 224.032 17.962C224.238 18.102 224.401 18.2747 224.522 18.48C224.653 18.6854 224.718 18.928 224.718 19.208C224.718 19.572 224.63 19.8847 224.452 20.146C224.275 20.398 224.051 20.608 223.78 20.776C223.519 20.9347 223.234 21.0514 222.926 21.126C222.618 21.2007 222.334 21.238 222.072 21.238C221.615 21.238 221.186 21.196 220.784 21.112C220.383 21.0187 220.033 20.8694 219.734 20.664C219.445 20.4587 219.216 20.1834 219.048 19.838C218.88 19.4927 218.801 19.0634 218.81 18.55ZM228.601 16.842C228.601 16.2914 228.671 15.7547 228.811 15.232C228.96 14.7094 229.184 14.2427 229.483 13.832C229.791 13.412 230.183 13.076 230.659 12.824C231.135 12.572 231.704 12.446 232.367 12.446C233.03 12.446 233.594 12.572 234.061 12.824C234.537 13.076 234.924 13.412 235.223 13.832C235.531 14.2427 235.755 14.7094 235.895 15.232C236.044 15.7547 236.119 16.2914 236.119 16.842C236.119 17.3834 236.044 17.92 235.895 18.452C235.755 18.9747 235.531 19.446 235.223 19.866C234.924 20.2767 234.537 20.608 234.061 20.86C233.594 21.112 233.03 21.238 232.367 21.238C231.704 21.238 231.135 21.112 230.659 20.86C230.183 20.608 229.791 20.2767 229.483 19.866C229.184 19.446 228.96 18.9747 228.811 18.452C228.671 17.92 228.601 17.3834 228.601 16.842ZM227.649 16.842C227.649 17.5327 227.747 18.1907 227.943 18.816C228.139 19.4414 228.433 19.992 228.825 20.468C229.217 20.944 229.707 21.3267 230.295 21.616C230.892 21.896 231.583 22.036 232.367 22.036C233.151 22.036 233.837 21.896 234.425 21.616C235.013 21.3267 235.503 20.944 235.895 20.468C236.287 19.992 236.581 19.4414 236.777 18.816C236.973 18.1907 237.071 17.5327 237.071 16.842C237.071 16.1514 236.973 15.4934 236.777 14.868C236.581 14.2427 236.287 13.692 235.895 13.216C235.503 12.7307 235.013 12.348 234.425 12.068C233.837 11.7787 233.151 11.634 232.367 11.634C231.583 11.634 230.892 11.7787 230.295 12.068C229.707 12.348 229.217 12.7307 228.825 13.216C228.433 13.692 228.139 14.2427 227.943 14.868C227.747 15.4934 227.649 16.1514 227.649 16.842ZM240.93 11.844L244.248 20.608L247.692 11.844H249.092V21.84H248.14V13.202H248.112L244.696 21.84H243.8L240.51 13.202H240.482V21.84H239.53V11.844H240.93ZM252.056 11.844V21.84H259.028V21.028H253.008V17.08H258.58V16.268H253.008V12.656H258.958V11.844H252.056ZM260.291 11.844V12.656H263.763V21.84H264.715V12.656H268.201V11.844H260.291ZM270.134 11.844V21.84H271.086V16.996H277.022V21.84H277.974V11.844H277.022V16.184H271.086V11.844H270.134ZM281.061 11.844V21.84H282.013V11.844H281.061ZM285.081 11.844V21.84H286.033V13.384H286.061L291.885 21.84H292.949V11.844H291.997V20.3H291.969L286.145 11.844H285.081ZM304.492 21.84V16.758H300.25V17.57H303.652C303.662 18.102 303.592 18.592 303.442 19.04C303.293 19.488 303.069 19.8754 302.77 20.202C302.472 20.5287 302.103 20.7854 301.664 20.972C301.235 21.1494 300.745 21.238 300.194 21.238C299.532 21.238 298.962 21.112 298.486 20.86C298.01 20.608 297.618 20.2767 297.31 19.866C297.012 19.446 296.788 18.9747 296.638 18.452C296.498 17.92 296.428 17.3834 296.428 16.842C296.428 16.2914 296.498 15.7547 296.638 15.232C296.788 14.7094 297.012 14.2427 297.31 13.832C297.618 13.412 298.01 13.076 298.486 12.824C298.962 12.572 299.532 12.446 300.194 12.446C300.67 12.446 301.1 12.5254 301.482 12.684C301.865 12.8334 302.192 13.0294 302.462 13.272C302.742 13.5147 302.962 13.7854 303.12 14.084C303.288 14.3734 303.386 14.6627 303.414 14.952H304.366C304.273 14.4014 304.1 13.9207 303.848 13.51C303.596 13.0994 303.288 12.754 302.924 12.474C302.56 12.194 302.145 11.984 301.678 11.844C301.212 11.704 300.717 11.634 300.194 11.634C299.41 11.634 298.72 11.7787 298.122 12.068C297.534 12.348 297.044 12.7307 296.652 13.216C296.26 13.692 295.966 14.2427 295.77 14.868C295.574 15.4934 295.476 16.1514 295.476 16.842C295.476 17.5327 295.574 18.1907 295.77 18.816C295.966 19.4414 296.26 19.992 296.652 20.468C297.044 20.944 297.534 21.3267 298.122 21.616C298.72 21.896 299.41 22.036 300.194 22.036C300.558 22.036 300.908 21.9987 301.244 21.924C301.59 21.8494 301.912 21.7327 302.21 21.574C302.509 21.406 302.78 21.196 303.022 20.944C303.274 20.6827 303.484 20.3747 303.652 20.02H303.68L303.806 21.84H304.492ZM121.069 36.55H120.117C120.089 37.166 120.169 37.6934 120.355 38.132C120.551 38.5707 120.827 38.93 121.181 39.21C121.536 39.49 121.965 39.7 122.469 39.84C122.973 39.9707 123.519 40.036 124.107 40.036C124.695 40.036 125.199 39.98 125.619 39.868C126.039 39.7654 126.389 39.63 126.669 39.462C126.959 39.2847 127.183 39.0887 127.341 38.874C127.509 38.6594 127.635 38.4494 127.719 38.244C127.813 38.0294 127.869 37.8287 127.887 37.642C127.915 37.4554 127.929 37.306 127.929 37.194C127.929 36.7834 127.859 36.4334 127.719 36.144C127.589 35.8547 127.402 35.612 127.159 35.416C126.926 35.2107 126.651 35.0427 126.333 34.912C126.025 34.772 125.694 34.6554 125.339 34.562L122.903 33.96C122.698 33.9134 122.502 33.8527 122.315 33.778C122.138 33.7034 121.979 33.6054 121.839 33.484C121.699 33.3627 121.587 33.218 121.503 33.05C121.429 32.8727 121.391 32.6674 121.391 32.434C121.391 32.0607 121.461 31.748 121.601 31.496C121.741 31.244 121.923 31.0434 122.147 30.894C122.381 30.7354 122.647 30.6234 122.945 30.558C123.253 30.4834 123.571 30.446 123.897 30.446C124.252 30.446 124.588 30.4974 124.905 30.6C125.232 30.6934 125.517 30.838 125.759 31.034C126.011 31.2207 126.212 31.4587 126.361 31.748C126.52 32.028 126.609 32.3594 126.627 32.742H127.579C127.579 32.2287 127.477 31.7807 127.271 31.398C127.075 31.006 126.809 30.6794 126.473 30.418C126.137 30.1567 125.745 29.9607 125.297 29.83C124.849 29.6994 124.378 29.634 123.883 29.634C123.183 29.634 122.609 29.7367 122.161 29.942C121.713 30.138 121.359 30.3807 121.097 30.67C120.845 30.9594 120.673 31.2674 120.579 31.594C120.486 31.9207 120.439 32.2054 120.439 32.448C120.439 32.84 120.5 33.1714 120.621 33.442C120.752 33.7127 120.92 33.9414 121.125 34.128C121.331 34.3147 121.569 34.464 121.839 34.576C122.119 34.688 122.404 34.7814 122.693 34.856L124.919 35.402C125.153 35.458 125.391 35.5327 125.633 35.626C125.876 35.71 126.095 35.822 126.291 35.962C126.497 36.102 126.66 36.2747 126.781 36.48C126.912 36.6854 126.977 36.928 126.977 37.208C126.977 37.572 126.889 37.8847 126.711 38.146C126.534 38.398 126.31 38.608 126.039 38.776C125.778 38.9347 125.493 39.0514 125.185 39.126C124.877 39.2007 124.593 39.238 124.331 39.238C123.874 39.238 123.445 39.196 123.043 39.112C122.642 39.0187 122.292 38.8694 121.993 38.664C121.704 38.4587 121.475 38.1834 121.307 37.838C121.139 37.4927 121.06 37.0634 121.069 36.55ZM129.432 29.844L132.204 39.84H133.24L135.76 30.894H135.788L138.322 39.84H139.33L142.088 29.844H141.136L138.854 38.594H138.826L136.376 29.844H135.186L132.75 38.594H132.722L130.454 29.844H129.432ZM144.141 29.844V39.84H151.113V39.028H145.093V35.08H150.665V34.268H145.093V30.656H151.043V29.844H144.141ZM153.44 29.844V39.84H160.412V39.028H154.392V35.08H159.964V34.268H154.392V30.656H160.342V29.844H153.44ZM161.674 29.844V30.656H165.146V39.84H166.098V30.656H169.584V29.844H161.674ZM176.414 29.844V39.84H177.366V35.08H182.154V34.268H177.366V30.656H182.756V29.844H176.414ZM185.354 34.842C185.354 34.2914 185.424 33.7547 185.564 33.232C185.713 32.7094 185.937 32.2427 186.236 31.832C186.544 31.412 186.936 31.076 187.412 30.824C187.888 30.572 188.457 30.446 189.12 30.446C189.782 30.446 190.347 30.572 190.814 30.824C191.29 31.076 191.677 31.412 191.976 31.832C192.284 32.2427 192.508 32.7094 192.648 33.232C192.797 33.7547 192.872 34.2914 192.872 34.842C192.872 35.3834 192.797 35.92 192.648 36.452C192.508 36.9747 192.284 37.446 191.976 37.866C191.677 38.2767 191.29 38.608 190.814 38.86C190.347 39.112 189.782 39.238 189.12 39.238C188.457 39.238 187.888 39.112 187.412 38.86C186.936 38.608 186.544 38.2767 186.236 37.866C185.937 37.446 185.713 36.9747 185.564 36.452C185.424 35.92 185.354 35.3834 185.354 34.842ZM184.402 34.842C184.402 35.5327 184.5 36.1907 184.696 36.816C184.892 37.4414 185.186 37.992 185.578 38.468C185.97 38.944 186.46 39.3267 187.048 39.616C187.645 39.896 188.336 40.036 189.12 40.036C189.904 40.036 190.59 39.896 191.178 39.616C191.766 39.3267 192.256 38.944 192.648 38.468C193.04 37.992 193.334 37.4414 193.53 36.816C193.726 36.1907 193.824 35.5327 193.824 34.842C193.824 34.1514 193.726 33.4934 193.53 32.868C193.334 32.2427 193.04 31.692 192.648 31.216C192.256 30.7307 191.766 30.348 191.178 30.068C190.59 29.7787 189.904 29.634 189.12 29.634C188.336 29.634 187.645 29.7787 187.048 30.068C186.46 30.348 185.97 30.7307 185.578 31.216C185.186 31.692 184.892 32.2427 184.696 32.868C184.5 33.4934 184.402 34.1514 184.402 34.842ZM197.263 34.59V30.656H200.819C201.547 30.656 202.088 30.8334 202.443 31.188C202.797 31.5427 202.975 32.028 202.975 32.644C202.975 32.952 202.914 33.2274 202.793 33.47C202.681 33.7034 202.527 33.904 202.331 34.072C202.135 34.24 201.906 34.3707 201.645 34.464C201.383 34.548 201.108 34.59 200.819 34.59H197.263ZM196.311 29.844V39.84H197.263V35.402H200.875C201.323 35.3834 201.673 35.458 201.925 35.626C202.186 35.794 202.382 36.018 202.513 36.298C202.653 36.5687 202.741 36.8814 202.779 37.236C202.825 37.5814 202.858 37.9314 202.877 38.286C202.886 38.3887 202.895 38.51 202.905 38.65C202.914 38.79 202.923 38.9347 202.933 39.084C202.951 39.224 202.975 39.364 203.003 39.504C203.04 39.6347 203.087 39.7467 203.143 39.84H204.193C204.09 39.7187 204.006 39.5507 203.941 39.336C203.885 39.112 203.843 38.8787 203.815 38.636C203.787 38.384 203.768 38.1367 203.759 37.894C203.749 37.6514 203.74 37.446 203.731 37.278C203.712 36.9794 203.67 36.704 203.605 36.452C203.549 36.1907 203.451 35.962 203.311 35.766C203.18 35.57 203.007 35.4114 202.793 35.29C202.578 35.1594 202.307 35.0707 201.981 35.024V34.996C202.625 34.8654 203.11 34.5667 203.437 34.1C203.763 33.6334 203.927 33.0827 203.927 32.448C203.927 32 203.843 31.6127 203.675 31.286C203.516 30.95 203.297 30.6794 203.017 30.474C202.746 30.2594 202.424 30.1007 202.051 29.998C201.687 29.8954 201.299 29.844 200.889 29.844H196.311ZM214.331 35.724V39.84H215.283V35.724L219.231 29.844H218.097L214.821 34.912L211.531 29.844H210.411L214.331 35.724ZM221.524 34.842C221.524 34.2914 221.594 33.7547 221.734 33.232C221.883 32.7094 222.107 32.2427 222.406 31.832C222.714 31.412 223.106 31.076 223.582 30.824C224.058 30.572 224.627 30.446 225.29 30.446C225.952 30.446 226.517 30.572 226.984 30.824C227.46 31.076 227.847 31.412 228.146 31.832C228.454 32.2427 228.678 32.7094 228.818 33.232C228.967 33.7547 229.042 34.2914 229.042 34.842C229.042 35.3834 228.967 35.92 228.818 36.452C228.678 36.9747 228.454 37.446 228.146 37.866C227.847 38.2767 227.46 38.608 226.984 38.86C226.517 39.112 225.952 39.238 225.29 39.238C224.627 39.238 224.058 39.112 223.582 38.86C223.106 38.608 222.714 38.2767 222.406 37.866C222.107 37.446 221.883 36.9747 221.734 36.452C221.594 35.92 221.524 35.3834 221.524 34.842ZM220.572 34.842C220.572 35.5327 220.67 36.1907 220.866 36.816C221.062 37.4414 221.356 37.992 221.748 38.468C222.14 38.944 222.63 39.3267 223.218 39.616C223.815 39.896 224.506 40.036 225.29 40.036C226.074 40.036 226.76 39.896 227.348 39.616C227.936 39.3267 228.426 38.944 228.818 38.468C229.21 37.992 229.504 37.4414 229.7 36.816C229.896 36.1907 229.994 35.5327 229.994 34.842C229.994 34.1514 229.896 33.4934 229.7 32.868C229.504 32.2427 229.21 31.692 228.818 31.216C228.426 30.7307 227.936 30.348 227.348 30.068C226.76 29.7787 226.074 29.634 225.29 29.634C224.506 29.634 223.815 29.7787 223.218 30.068C222.63 30.348 222.14 30.7307 221.748 31.216C221.356 31.692 221.062 32.2427 220.866 32.868C220.67 33.4934 220.572 34.1514 220.572 34.842ZM232.383 29.844V36.242C232.383 36.7554 232.453 37.2454 232.593 37.712C232.742 38.1694 232.971 38.5707 233.279 38.916C233.596 39.2614 233.997 39.5367 234.483 39.742C234.977 39.938 235.57 40.036 236.261 40.036C236.961 40.036 237.553 39.938 238.039 39.742C238.533 39.5367 238.935 39.2614 239.243 38.916C239.56 38.5707 239.789 38.1694 239.929 37.712C240.078 37.2454 240.153 36.7554 240.153 36.242V29.844H239.201V36.032C239.201 36.6107 239.135 37.1054 239.005 37.516C238.874 37.9174 238.683 38.2487 238.431 38.51C238.179 38.762 237.871 38.9487 237.507 39.07C237.143 39.182 236.727 39.238 236.261 39.238C235.803 39.238 235.393 39.182 235.029 39.07C234.665 38.9487 234.357 38.762 234.105 38.51C233.853 38.2487 233.661 37.9174 233.531 37.516C233.4 37.1054 233.335 36.6107 233.335 36.032V29.844H232.383ZM244.017 34.59V30.656H247.573C248.301 30.656 248.842 30.8334 249.197 31.188C249.551 31.5427 249.729 32.028 249.729 32.644C249.729 32.952 249.668 33.2274 249.547 33.47C249.435 33.7034 249.281 33.904 249.085 34.072C248.889 34.24 248.66 34.3707 248.399 34.464C248.137 34.548 247.862 34.59 247.573 34.59H244.017ZM243.065 29.844V39.84H244.017V35.402H247.629C248.077 35.3834 248.427 35.458 248.679 35.626C248.94 35.794 249.136 36.018 249.267 36.298C249.407 36.5687 249.495 36.8814 249.533 37.236C249.579 37.5814 249.612 37.9314 249.631 38.286C249.64 38.3887 249.649 38.51 249.659 38.65C249.668 38.79 249.677 38.9347 249.687 39.084C249.705 39.224 249.729 39.364 249.757 39.504C249.794 39.6347 249.841 39.7467 249.897 39.84H250.947C250.844 39.7187 250.76 39.5507 250.695 39.336C250.639 39.112 250.597 38.8787 250.569 38.636C250.541 38.384 250.522 38.1367 250.513 37.894C250.503 37.6514 250.494 37.446 250.485 37.278C250.466 36.9794 250.424 36.704 250.359 36.452C250.303 36.1907 250.205 35.962 250.065 35.766C249.934 35.57 249.761 35.4114 249.547 35.29C249.332 35.1594 249.061 35.0707 248.735 35.024V34.996C249.379 34.8654 249.864 34.5667 250.191 34.1C250.517 33.6334 250.681 33.0827 250.681 32.448C250.681 32 250.597 31.6127 250.429 31.286C250.27 30.95 250.051 30.6794 249.771 30.474C249.5 30.2594 249.178 30.1007 248.805 29.998C248.441 29.8954 248.053 29.844 247.643 29.844H243.065ZM259.671 29.844L262.989 38.608L266.433 29.844H267.833V39.84H266.881V31.202H266.853L263.437 39.84H262.541L259.251 31.202H259.223V39.84H258.271V29.844H259.671ZM271.217 34.842C271.217 34.2914 271.287 33.7547 271.427 33.232C271.576 32.7094 271.8 32.2427 272.099 31.832C272.407 31.412 272.799 31.076 273.275 30.824C273.751 30.572 274.32 30.446 274.983 30.446C275.646 30.446 276.21 30.572 276.677 30.824C277.153 31.076 277.54 31.412 277.839 31.832C278.147 32.2427 278.371 32.7094 278.511 33.232C278.66 33.7547 278.735 34.2914 278.735 34.842C278.735 35.3834 278.66 35.92 278.511 36.452C278.371 36.9747 278.147 37.446 277.839 37.866C277.54 38.2767 277.153 38.608 276.677 38.86C276.21 39.112 275.646 39.238 274.983 39.238C274.32 39.238 273.751 39.112 273.275 38.86C272.799 38.608 272.407 38.2767 272.099 37.866C271.8 37.446 271.576 36.9747 271.427 36.452C271.287 35.92 271.217 35.3834 271.217 34.842ZM270.265 34.842C270.265 35.5327 270.363 36.1907 270.559 36.816C270.755 37.4414 271.049 37.992 271.441 38.468C271.833 38.944 272.323 39.3267 272.911 39.616C273.508 39.896 274.199 40.036 274.983 40.036C275.767 40.036 276.453 39.896 277.041 39.616C277.629 39.3267 278.119 38.944 278.511 38.468C278.903 37.992 279.197 37.4414 279.393 36.816C279.589 36.1907 279.687 35.5327 279.687 34.842C279.687 34.1514 279.589 33.4934 279.393 32.868C279.197 32.2427 278.903 31.692 278.511 31.216C278.119 30.7307 277.629 30.348 277.041 30.068C276.453 29.7787 275.767 29.634 274.983 29.634C274.199 29.634 273.508 29.7787 272.911 30.068C272.323 30.348 271.833 30.7307 271.441 31.216C271.049 31.692 270.755 32.2427 270.559 32.868C270.363 33.4934 270.265 34.1514 270.265 34.842ZM282.076 29.844V36.242C282.076 36.7554 282.146 37.2454 282.286 37.712C282.435 38.1694 282.664 38.5707 282.972 38.916C283.289 39.2614 283.691 39.5367 284.176 39.742C284.671 39.938 285.263 40.036 285.954 40.036C286.654 40.036 287.247 39.938 287.732 39.742C288.227 39.5367 288.628 39.2614 288.936 38.916C289.253 38.5707 289.482 38.1694 289.622 37.712C289.771 37.2454 289.846 36.7554 289.846 36.242V29.844H288.894V36.032C288.894 36.6107 288.829 37.1054 288.698 37.516C288.567 37.9174 288.376 38.2487 288.124 38.51C287.872 38.762 287.564 38.9487 287.2 39.07C286.836 39.182 286.421 39.238 285.954 39.238C285.497 39.238 285.086 39.182 284.722 39.07C284.358 38.9487 284.05 38.762 283.798 38.51C283.546 38.2487 283.355 37.9174 283.224 37.516C283.093 37.1054 283.028 36.6107 283.028 36.032V29.844H282.076ZM291.694 29.844V30.656H295.166V39.84H296.118V30.656H299.604V29.844H291.694ZM301.537 29.844V39.84H302.489V34.996H308.425V39.84H309.377V29.844H308.425V34.184H302.489V29.844H301.537Z" fill="white"/>
<rect x="105" y="54.88" width="219.884" height="1.12" fill="white"/>
<rect x="105" width="219.884" height="1.12" fill="white"/>
</svg>
