<svg width="355" height="70" viewBox="0 0 355 70" fill="none" xmlns="http://www.w3.org/2000/svg">
<path d="M37 10V38H27.6368V27.3333H20.3632V38H11V10H20.3632V19.3333H27.6368V10H37Z" fill="#C41218"/>
<path d="M96 16.6667H86.55V38H78.45V16.6667H69L69.1034 10H96V16.6667Z" fill="#C41218"/>
<path d="M24 55.8353C23.5366 57.153 22.7257 58.1804 21.5674 58.9177C20.4255 59.6392 19.052 60 17.4468 60C15.9574 60 14.6501 59.6784 13.5248 59.0353C12.3995 58.3765 11.5307 57.4432 10.9184 56.2352C10.3061 55.0274 10 53.6157 10 52C10 50.3843 10.3061 48.9725 10.9184 47.7647C11.5307 46.5568 12.3995 45.6313 13.5248 44.9882C14.6501 44.3294 15.9492 44 17.422 44C20.6985 44 22.8168 45.2784 23.7765 47.8353L22.5603 48.3764C22.1796 47.2784 21.5674 46.4549 20.7234 45.9059C19.896 45.3568 18.8203 45.0823 17.4965 45.0823C16.2719 45.0823 15.1879 45.3647 14.2447 45.9294C13.318 46.4784 12.5981 47.2784 12.0851 48.3294C11.5721 49.3647 11.3156 50.5882 11.3156 52C11.3156 53.4117 11.5638 54.6431 12.0603 55.6941C12.5733 56.7294 13.2849 57.5294 14.195 58.0941C15.1217 58.6431 16.2057 58.9177 17.4468 58.9177C18.7707 58.9177 19.896 58.6118 20.8227 58C21.7494 57.3883 22.3948 56.5176 22.7588 55.3882L24 55.8353Z" fill="#C41218"/>
<path d="M66.8783 51.286L63.3403 54.4763V60H62V43H63.3403V52.8574L73.0434 43H74.8124L67.8165 50.405L75 60H73.365L66.8783 51.286Z" fill="#C41218"/>
<path d="M79 60H78V43H79V60Z" fill="#C41218"/>
<path d="M95 58.6923V60H83V43H95V44.3077H84.5V50.8461H93.5V52.1539H84.5V58.6923H95Z" fill="#C41218"/>
<path fill-rule="evenodd" clip-rule="evenodd" d="M54 38C61.732 38 68 31.732 68 24C68 16.268 61.732 10 54 10C46.268 10 40 16.268 40 24C40 31.732 46.268 38 54 38ZM54 28.6667C56.5774 28.6667 58.6667 26.5773 58.6667 24C58.6667 21.4227 56.5774 19.3333 54 19.3333C51.4227 19.3333 49.3334 21.4227 49.3334 24C49.3334 26.5773 51.4227 28.6667 54 28.6667Z" fill="#C41218"/>
<path fill-rule="evenodd" clip-rule="evenodd" d="M34 60C38.4182 60 42 56.6422 42 52.5C42 48.3578 38.4182 45 34 45C29.5818 45 26 48.3578 26 52.5C26 56.6422 29.5818 60 34 60ZM34 58.75C37.6819 58.75 40.6666 55.9518 40.6666 52.5C40.6666 49.0482 37.6819 46.25 34 46.25C30.3181 46.25 27.3334 49.0482 27.3334 52.5C27.3334 55.9518 30.3181 58.75 34 58.75Z" fill="#C41218"/>
<path fill-rule="evenodd" clip-rule="evenodd" d="M51.5 60C55.6421 60 59 56.6422 59 52.5C59 48.3578 55.6421 45 51.5 45C47.3578 45 44 48.3578 44 52.5C44 56.6422 47.3578 60 51.5 60ZM51.5 58.75C54.9517 58.75 57.75 55.9518 57.75 52.5C57.75 49.0482 54.9517 46.25 51.5 46.25C48.0482 46.25 45.25 49.0482 45.25 52.5C45.25 55.9518 48.0482 58.75 51.5 58.75Z" fill="#C41218"/>
<rect width="355" height="1" fill="#C31218"/>
<rect y="69" width="355" height="1" fill="#C31218"/>
<path d="M119.522 23.1307V29.2626H118.231V14.2068H123.434C125.022 14.2068 126.274 14.6066 127.19 15.4063C128.113 16.206 128.575 17.3055 128.575 18.7049C128.575 20.1181 128.131 21.2108 127.242 21.9829C126.361 22.7481 125.081 23.1307 123.403 23.1307H119.522ZM119.522 22.0553H123.434C124.686 22.0553 125.641 21.7623 126.298 21.1763C126.956 20.5904 127.284 19.7735 127.284 18.7256C127.284 17.6847 126.956 16.8574 126.298 16.2439C125.648 15.6235 124.721 15.3064 123.518 15.2926H119.522V22.0553Z" fill="#C31218"/>
<path d="M141.992 14.2068V24.4853C141.985 25.4987 141.757 26.381 141.31 27.1325C140.862 27.8839 140.229 28.4629 139.411 28.8697C138.6 29.2695 137.666 29.4694 136.61 29.4694C135.002 29.4694 133.711 29.0386 132.739 28.1768C131.774 27.3082 131.274 26.1087 131.239 24.5783V14.2068H132.519V24.3922C132.519 25.6607 132.886 26.6465 133.621 27.3496C134.355 28.0459 135.351 28.394 136.61 28.394C137.869 28.394 138.862 28.0424 139.589 27.3393C140.324 26.6361 140.691 25.6572 140.691 24.4026V14.2068H141.992Z" fill="#C31218"/>
<path d="M155.954 15.2926H150.72V29.2626H149.429V15.2926H144.205V14.2068H155.954V15.2926Z" fill="#C31218"/>
<path d="M168.962 15.2926H163.728V29.2626H162.437V15.2926H157.213V14.2068H168.962V15.2926Z" fill="#C31218"/>
<path d="M173.012 29.2626H171.721V14.2068H173.012V29.2626Z" fill="#C31218"/>
<path d="M188.537 29.2626H187.247L178.467 16.3783V29.2626H177.166V14.2068H178.467L187.257 27.1014V14.2068H188.537V29.2626Z" fill="#C31218"/>
<path d="M203.444 27.4737C202.996 28.101 202.293 28.5905 201.335 28.942C200.384 29.2936 199.318 29.4694 198.136 29.4694C196.94 29.4694 195.877 29.1868 194.947 28.6215C194.017 28.0562 193.296 27.2565 192.786 26.2225C192.275 25.1884 192.016 24.0027 192.009 22.6654V20.7627C192.009 18.6739 192.545 17.0263 193.615 15.8199C194.685 14.6066 196.122 14 197.926 14C199.5 14 200.765 14.3964 201.724 15.1892C202.682 15.975 203.252 17.0608 203.433 18.4464H202.143C201.954 17.3434 201.496 16.5093 200.769 15.944C200.049 15.3718 199.104 15.0858 197.937 15.0858C196.51 15.0858 195.38 15.5855 194.548 16.5851C193.716 17.5847 193.3 18.9945 193.3 20.8144V22.593C193.3 23.7373 193.496 24.7507 193.887 25.6331C194.286 26.5086 194.852 27.1876 195.587 27.6702C196.328 28.1527 197.178 28.394 198.136 28.394C199.248 28.394 200.202 28.2217 201 27.877C201.517 27.6495 201.902 27.3841 202.154 27.0808V23.1927H198.052V22.1173H203.444V27.4737Z" fill="#C31218"/>
<path d="M220.973 25.5607C220.973 24.7266 220.676 24.0682 220.082 23.5857C219.487 23.0962 218.4 22.6343 216.819 22.2C215.239 21.7588 214.085 21.2797 213.357 20.7627C212.322 20.032 211.805 19.0737 211.805 17.888C211.805 16.7368 212.284 15.8027 213.242 15.0858C214.207 14.3619 215.438 14 216.934 14C217.949 14 218.854 14.193 219.651 14.5791C220.456 14.9651 221.078 15.5028 221.519 16.1922C221.959 16.8816 222.18 17.6502 222.18 18.4981H220.879C220.879 17.471 220.522 16.6472 219.809 16.0267C219.095 15.3994 218.137 15.0858 216.934 15.0858C215.767 15.0858 214.836 15.3443 214.144 15.8613C213.452 16.3714 213.105 17.0401 213.105 17.8674C213.105 18.6326 213.417 19.2564 214.039 19.739C214.662 20.2215 215.658 20.649 217.029 21.0212C218.4 21.3866 219.438 21.7692 220.144 22.169C220.851 22.5619 221.382 23.0342 221.739 23.5857C222.096 24.1372 222.274 24.7886 222.274 25.54C222.274 26.7257 221.791 27.6771 220.826 28.394C219.868 29.1109 218.602 29.4694 217.029 29.4694C215.952 29.4694 214.962 29.2798 214.06 28.9007C213.165 28.5215 212.483 27.9907 212.014 27.3082C211.553 26.6258 211.322 25.8433 211.322 24.9609H212.612C212.612 26.0226 213.015 26.8602 213.819 27.4737C214.623 28.0872 215.693 28.394 217.029 28.394C218.218 28.394 219.172 28.1355 219.893 27.6185C220.613 27.1014 220.973 26.4155 220.973 25.5607Z" fill="#C31218"/>
<path d="M236.352 22.5516C236.352 23.9372 236.107 25.154 235.618 26.2018C235.135 27.2496 234.443 28.0562 233.541 28.6215C232.638 29.1868 231.596 29.4694 230.414 29.4694C228.631 29.4694 227.19 28.8421 226.092 27.5874C224.994 26.3259 224.445 24.6266 224.445 22.4896V20.9385C224.445 19.5666 224.69 18.3534 225.18 17.2986C225.676 16.237 226.376 15.4235 227.278 14.8583C228.18 14.2861 229.219 14 230.393 14C231.568 14 232.603 14.2792 233.499 14.8376C234.401 15.396 235.097 16.1853 235.586 17.2056C236.076 18.2258 236.331 19.4081 236.352 20.7524V22.5516ZM235.062 20.9178C235.062 19.1048 234.646 17.6847 233.813 16.6575C232.981 15.6304 231.841 15.1168 230.393 15.1168C228.974 15.1168 227.841 15.6338 226.995 16.6679C226.155 17.695 225.736 19.1323 225.736 20.9798V22.5516C225.736 24.3371 226.155 25.7537 226.995 26.8016C227.834 27.8425 228.974 28.363 230.414 28.363C231.876 28.363 233.016 27.8494 233.834 26.8222C234.653 25.7882 235.062 24.3509 235.062 22.5102V20.9178Z" fill="#C31218"/>
<path d="M241.314 14.2068L246.947 27.4944L252.601 14.2068H254.322V29.2626H253.032V22.7067L253.136 15.9854L247.451 29.2626H246.454L240.789 16.0371L240.894 22.6654V29.2626H239.604V14.2068H241.314Z" fill="#C31218"/>
<path d="M266.627 22.0449H259.483V28.1872H267.697V29.2626H258.193V14.2068H267.645V15.2926H259.483V20.9695H266.627V22.0449Z" fill="#C31218"/>
<path d="M280.999 15.2926H275.764V29.2626H274.474V15.2926H269.25V14.2068H280.999V15.2926Z" fill="#C31218"/>
<path d="M294.793 29.2626H293.493V22.0449H284.765V29.2626H283.474V14.2068H284.765V20.9695H293.493V14.2068H294.793V29.2626Z" fill="#C31218"/>
<path d="M300.259 29.2626H298.969V14.2068H300.259V29.2626Z" fill="#C31218"/>
<path d="M315.785 29.2626H314.494L305.714 16.3783V29.2626H304.413V14.2068H305.714L314.505 27.1014V14.2068H315.785V29.2626Z" fill="#C31218"/>
<path d="M330.691 27.4737C330.244 28.101 329.541 28.5905 328.583 28.942C327.632 29.2936 326.565 29.4694 325.383 29.4694C324.187 29.4694 323.124 29.1868 322.194 28.6215C321.264 28.0562 320.544 27.2565 320.033 26.2225C319.523 25.1884 319.264 24.0027 319.257 22.6654V20.7627C319.257 18.6739 319.792 17.0263 320.862 15.8199C321.932 14.6066 323.369 14 325.173 14C326.747 14 328.013 14.3964 328.971 15.1892C329.929 15.975 330.499 17.0608 330.681 18.4464H329.39C329.202 17.3434 328.744 16.5093 328.016 15.944C327.296 15.3718 326.352 15.0858 325.184 15.0858C323.757 15.0858 322.628 15.5855 321.795 16.5851C320.963 17.5847 320.547 18.9945 320.547 20.8144V22.593C320.547 23.7373 320.743 24.7507 321.135 25.6331C321.533 26.5086 322.1 27.1876 322.834 27.6702C323.575 28.1527 324.425 28.394 325.383 28.394C326.495 28.394 327.45 28.2217 328.247 27.877C328.765 27.6495 329.149 27.3841 329.401 27.0808V23.1927H325.299V22.1173H330.691V27.4737Z" fill="#C31218"/>
<path d="M121.651 53.0913C121.651 52.2571 121.354 51.5988 120.759 51.1162C120.165 50.6268 119.077 50.1649 117.497 49.7306C115.916 49.2894 114.762 48.8103 114.035 48.2933C113 47.5626 112.483 46.6043 112.483 45.4186C112.483 44.2674 112.962 43.3333 113.92 42.6163C114.885 41.8925 116.116 41.5306 117.612 41.5306C118.626 41.5306 119.532 41.7236 120.329 42.1097C121.134 42.4957 121.756 43.0334 122.197 43.7228C122.637 44.4121 122.857 45.1808 122.857 46.0287H121.557C121.557 45.0016 121.2 44.1778 120.487 43.5573C119.773 42.93 118.815 42.6163 117.612 42.6163C116.444 42.6163 115.514 42.8749 114.822 43.3919C114.13 43.902 113.783 44.5707 113.783 45.3979C113.783 46.1631 114.095 46.787 114.717 47.2696C115.339 47.7521 116.336 48.1795 117.707 48.5518C119.077 48.9172 120.116 49.2998 120.822 49.6996C121.529 50.0925 122.06 50.5648 122.417 51.1162C122.774 51.6677 122.952 52.3192 122.952 53.0706C122.952 54.2563 122.469 55.2076 121.504 55.9246C120.546 56.6415 119.28 57 117.707 57C116.63 57 115.64 56.8104 114.738 56.4313C113.843 56.0521 113.161 55.5213 112.692 54.8388C112.231 54.1564 112 53.3739 112 52.4915H113.29C113.29 53.5532 113.692 54.3907 114.497 55.0043C115.301 55.6178 116.371 55.9246 117.707 55.9246C118.896 55.9246 119.85 55.6661 120.571 55.149C121.291 54.632 121.651 53.9461 121.651 53.0913Z" fill="#C31218"/>
<path d="M128.564 52.7294L129.036 55.0663L129.613 52.8328L132.928 41.7374H134.093L137.366 52.8328L137.932 55.087L138.436 52.7294L141.194 41.7374H142.516L138.603 56.7932H137.366L133.904 45.0153L133.516 43.5263L133.138 45.0153L129.592 56.7932H128.354L124.452 41.7374H125.774L128.564 52.7294Z" fill="#C31218"/>
<path d="M153.437 49.5755H146.293V55.7178H154.507V56.7932H145.002V41.7374H154.454V42.8232H146.293V48.5001H153.437V49.5755Z" fill="#C31218"/>
<path d="M165.668 49.5755H158.524V55.7178H166.738V56.7932H157.234V41.7374H166.686V42.8232H158.524V48.5001H165.668V49.5755Z" fill="#C31218"/>
<path d="M180.04 42.8232H174.805V56.7932H173.515V42.8232H168.291V41.7374H180.04V42.8232Z" fill="#C31218"/>
<path d="M188.894 56.7932H187.604V41.7374H188.894V56.7932Z" fill="#C31218"/>
<path d="M204.42 56.7932H203.129L194.349 43.9089V56.7932H193.048V41.7374H194.349L203.14 54.632V41.7374H204.42V56.7932Z" fill="#C31218"/>
<path d="M218.004 49.9478L222.673 41.7374H224.162L218.644 51.1266V56.7932H217.354V51.1266L211.847 41.7374H213.378L218.004 49.9478Z" fill="#C31218"/>
<path d="M237.359 50.0822C237.359 51.4678 237.114 52.6846 236.625 53.7324C236.142 54.7802 235.45 55.5868 234.548 56.1521C233.645 56.7174 232.603 57 231.422 57C229.638 57 228.198 56.3727 227.1 55.118C226.002 53.8565 225.453 52.1572 225.453 50.0202V48.4691C225.453 47.0972 225.697 45.8839 226.187 44.8292C226.683 43.7676 227.383 42.9541 228.285 42.3889C229.187 41.8167 230.226 41.5306 231.401 41.5306C232.575 41.5306 233.611 41.8098 234.506 42.3682C235.408 42.9266 236.104 43.7159 236.593 44.7361C237.083 45.7564 237.338 46.9387 237.359 48.2829V50.0822ZM236.069 48.4484C236.069 46.6354 235.653 45.2153 234.82 44.1881C233.988 43.1609 232.848 42.6474 231.401 42.6474C229.981 42.6474 228.848 43.1644 228.002 44.1984C227.162 45.2256 226.743 46.6629 226.743 48.5104V50.0822C226.743 51.8677 227.162 53.2843 228.002 54.3321C228.841 55.3731 229.981 55.8936 231.422 55.8936C232.883 55.8936 234.023 55.38 234.841 54.3528C235.66 53.3188 236.069 51.8814 236.069 50.0408V48.4484Z" fill="#C31218"/>
<path d="M251.133 41.7374V52.0159C251.126 53.0292 250.899 53.9116 250.451 54.663C250.003 55.4145 249.37 55.9935 248.552 56.4002C247.741 56.8001 246.807 57 245.751 57C244.143 57 242.852 56.5691 241.88 55.7074C240.915 54.8388 240.415 53.6393 240.38 52.1089V41.7374H241.66V51.9228C241.66 53.1912 242.027 54.177 242.762 54.8802C243.496 55.5765 244.492 55.9246 245.751 55.9246C247.01 55.9246 248.003 55.573 248.731 54.8699C249.465 54.1667 249.832 53.1878 249.832 51.9331V41.7374H251.133Z" fill="#C31218"/>
<path d="M260.438 50.5268H256V56.7932H254.7V41.7374H259.661C261.291 41.7374 262.564 42.1269 263.48 42.9059C264.396 43.6849 264.854 44.7741 264.854 46.1735C264.854 47.1386 264.567 47.99 263.994 48.7276C263.42 49.4652 262.651 49.9753 261.686 50.258L265.505 56.6588V56.7932H264.13L260.438 50.5268ZM256 49.4411H259.955C261.039 49.4411 261.91 49.1378 262.567 48.5311C263.225 47.9245 263.553 47.1386 263.553 46.1735C263.553 45.1119 263.211 44.2881 262.525 43.7021C261.84 43.1161 260.878 42.8232 259.64 42.8232H256V49.4411Z" fill="#C31218"/>
<path d="M275.302 41.7374L280.936 55.025L286.59 41.7374H288.31V56.7932H287.02V50.2373L287.125 43.516L281.439 56.7932H280.443L274.778 43.5677L274.883 50.1959V56.7932H273.593V41.7374H275.302Z" fill="#C31218"/>
<path d="M303.469 50.0822C303.469 51.4678 303.224 52.6846 302.735 53.7324C302.252 54.7802 301.56 55.5868 300.658 56.1521C299.755 56.7174 298.713 57 297.531 57C295.748 57 294.307 56.3727 293.209 55.118C292.111 53.8565 291.562 52.1572 291.562 50.0202V48.4691C291.562 47.0972 291.807 45.8839 292.297 44.8292C292.793 43.7676 293.493 42.9541 294.395 42.3889C295.297 41.8167 296.336 41.5306 297.51 41.5306C298.685 41.5306 299.72 41.8098 300.616 42.3682C301.518 42.9266 302.214 43.7159 302.703 44.7361C303.193 45.7564 303.448 46.9387 303.469 48.2829V50.0822ZM302.179 48.4484C302.179 46.6354 301.762 45.2153 300.93 44.1881C300.098 43.1609 298.958 42.6474 297.51 42.6474C296.091 42.6474 294.958 43.1644 294.112 44.1984C293.272 45.2256 292.853 46.6629 292.853 48.5104V50.0822C292.853 51.8677 293.272 53.2843 294.112 54.3321C294.951 55.3731 296.091 55.8936 297.531 55.8936C298.993 55.8936 300.133 55.38 300.951 54.3528C301.769 53.3188 302.179 51.8814 302.179 50.0408V48.4484Z" fill="#C31218"/>
<path d="M317.243 41.7374V52.0159C317.236 53.0292 317.008 53.9116 316.561 54.663C316.113 55.4145 315.48 55.9935 314.662 56.4002C313.851 56.8001 312.917 57 311.861 57C310.253 57 308.962 56.5691 307.99 55.7074C307.025 54.8388 306.525 53.6393 306.49 52.1089V41.7374H307.77V51.9228C307.77 53.1912 308.137 54.177 308.871 54.8802C309.606 55.5765 310.602 55.9246 311.861 55.9246C313.12 55.9246 314.113 55.573 314.84 54.8699C315.575 54.1667 315.942 53.1878 315.942 51.9331V41.7374H317.243Z" fill="#C31218"/>
<path d="M331.205 42.8232H325.971V56.7932H324.68V42.8232H319.456V41.7374H331.205V42.8232Z" fill="#C31218"/>
<path d="M345 56.7932H343.699V49.5755H334.971V56.7932H333.681V41.7374H334.971V48.5001H343.699V41.7374H345V56.7932Z" fill="#C31218"/>
</svg>
