<?xml version="1.0" encoding="UTF-8"?>
<svg width="1166px" height="220px" viewBox="0 0 1166 220" version="1.1" xmlns="http://www.w3.org/2000/svg" xmlns:xlink="http://www.w3.org/1999/xlink">
    <!-- Generator: Sketch 63.1 (92452) - https://sketch.com -->
    <title>web logo</title>
    <desc>Created with Sketch.</desc>
    <g id="Page-1" stroke="none" stroke-width="1" fill="none" fill-rule="evenodd">
        <path d="M50.8651399,118 L50.8651399,78 L76.5139949,78 L76.5139949,118 L116.819338,118 L116.819338,2.88549618 L76.5139949,2.88549618 L76.5139949,41.6641221 L50.8651399,41.6641221 L50.8651399,2.88549618 L10.5597964,2.88549618 L10.5597964,118 L50.8651399,118 Z M195.139949,119.832061 C203.89313,119.832061 212.137405,118.483461 219.872774,115.78626 C227.608142,113.089059 234.402036,109.170483 240.254453,104.030534 C246.10687,98.8905852 250.661578,92.6310433 253.918575,85.2519084 C257.175573,77.8727735 258.804071,69.7048346 258.804071,60.7480916 C258.804071,51.8931298 257.175573,43.7760814 253.918575,36.3969466 C250.661578,29.0178117 246.081425,22.6819338 240.178117,17.389313 C234.274809,12.0966921 227.455471,8.05089059 219.720102,5.2519084 C211.984733,2.45292621 203.791349,1.05343511 195.139949,1.05343511 C186.48855,1.05343511 178.26972,2.45292621 170.483461,5.2519084 C162.697201,8.05089059 155.903308,12.0966921 150.101781,17.389313 C144.300254,22.6819338 139.745547,29.0178117 136.437659,36.3969466 C133.129771,43.7760814 131.475827,51.8931298 131.475827,60.7480916 C131.475827,69.7048346 133.104326,77.8727735 136.361323,85.2519084 C139.618321,92.6310433 144.173028,98.8905852 150.025445,104.030534 C155.877863,109.170483 162.671756,113.089059 170.407125,115.78626 C178.142494,118.483461 186.386768,119.832061 195.139949,119.832061 Z M195.139949,83.4961832 C188.829517,83.4961832 183.664122,81.4351145 179.643766,77.3129771 C175.62341,73.1908397 173.613232,67.8727735 173.613232,61.3587786 C173.613232,55.0483461 175.597964,49.7302799 179.56743,45.4045802 C183.536896,41.0788804 188.727735,38.9160305 195.139949,38.9160305 C201.552163,38.9160305 206.743003,41.0788804 210.712468,45.4045802 C214.681934,49.7302799 216.666667,55.0483461 216.666667,61.3587786 C216.666667,67.8727735 214.656489,73.1908397 210.636132,77.3129771 C206.615776,81.4351145 201.450382,83.4961832 195.139949,83.4961832 Z M330.559796,118 L330.559796,39.221374 L353.613232,40.2900763 L353.613232,2.88549618 L265.6743,2.88549618 L265.6743,40.2900763 L288.727735,39.221374 L288.727735,118 L330.559796,118 Z" id="HOT" fill="#C31218" fill-rule="nonzero"></path>
        <path d="M43.0512695,216.530762 C47.2944336,216.530762 51.367513,215.984701 55.2705078,214.892578 C59.0660807,213.782552 62.5841471,212.242839 65.824707,210.273438 L65.824707,210.273438 L65.9321289,202.780762 C58.7348633,208.366699 51.215332,211.159668 43.3735352,211.159668 C34.4217122,211.159668 27.1975911,208.371175 21.7011719,202.794189 C16.2047526,197.217204 13.456543,189.621582 13.456543,180.007324 C13.456543,173.776855 14.7008464,168.280436 17.1894531,163.518066 C19.6064453,158.827311 23.0887044,155.201823 27.6362305,152.641602 C32.1837565,150.063477 37.5369466,148.774414 43.6958008,148.774414 C48.9773763,148.774414 53.4174805,149.660645 57.0161133,151.433105 C60.5431315,153.259277 63.6225586,155.309245 66.2543945,157.583008 L66.2543945,157.583008 L66.4692383,150.546875 C59.2898763,145.551758 51.7434896,143.054199 43.8300781,143.054199 C35.2363281,143.054199 28.1196289,144.781901 22.4799805,148.237305 C16.840332,151.674805 12.7672526,156.186523 10.2607422,161.772461 C7.70052083,167.412109 6.42041016,173.606771 6.42041016,180.356445 C6.42041016,189.523112 8.39876302,196.818848 12.3554688,202.243652 C16.2405599,207.668457 20.9313151,211.410319 26.4277344,213.469238 C31.9420573,215.510254 37.4832357,216.530762 43.0512695,216.530762 Z M110.915039,216.772461 C117.807943,216.772461 124.110026,215.268555 129.821289,212.260742 C135.550456,209.324544 140.097982,205.063477 143.463867,199.477539 C146.847656,193.909505 148.539551,187.5 148.539551,180.249023 C148.539551,175.182292 147.617513,170.339355 145.773438,165.720215 C143.947266,161.172689 141.387044,157.215983 138.092773,153.850098 C134.780599,150.466309 130.886556,147.825521 126.410645,145.927734 C121.952637,144.012044 116.930664,143.054199 111.344727,143.054199 C104.971029,143.054199 98.8479818,144.558105 92.9755859,147.565918 C87.1210938,150.57373 82.3945312,154.825846 78.7958984,160.322266 C75.1972656,165.908203 73.3979492,172.362467 73.3979492,179.685059 C73.3979492,187.526855 75.125651,194.240723 78.5810547,199.82666 C82.0185547,205.394694 86.6376953,209.611003 92.4384766,212.475586 C98.1497396,215.340169 104.308594,216.772461 110.915039,216.772461 Z M110.915039,211.26709 C105.042643,211.26709 99.7610677,209.798991 95.0703125,206.862793 C90.3079427,203.99821 86.6421712,200.184733 84.072998,195.422363 C81.5038249,190.659993 80.2192383,185.48584 80.2192383,179.899902 C80.2192383,173.239746 81.7947591,167.519531 84.9458008,162.739258 C88.0968424,158.048503 92.0983073,154.530436 96.9501953,152.185059 C101.712565,149.911296 106.439128,148.774414 111.129883,148.774414 C117.664714,148.774414 123.241699,150.349935 127.86084,153.500977 C132.47998,156.652018 135.96224,160.653483 138.307617,165.505371 C140.58138,170.339355 141.718262,175.289714 141.718262,180.356445 C141.718262,186.210938 140.357585,191.447754 137.63623,196.066895 C134.93278,200.775553 131.231201,204.486084 126.531494,207.198486 C121.831787,209.910889 116.626302,211.26709 110.915039,211.26709 Z M193.629883,216.772461 C200.522786,216.772461 206.82487,215.268555 212.536133,212.260742 C218.265299,209.324544 222.812826,205.063477 226.178711,199.477539 C229.5625,193.909505 231.254395,187.5 231.254395,180.249023 C231.254395,175.182292 230.332357,170.339355 228.488281,165.720215 C226.662109,161.172689 224.101888,157.215983 220.807617,153.850098 C217.495443,150.466309 213.6014,147.825521 209.125488,145.927734 C204.66748,144.012044 199.645508,143.054199 194.05957,143.054199 C187.685872,143.054199 181.562826,144.558105 175.69043,147.565918 C169.835938,150.57373 165.109375,154.825846 161.510742,160.322266 C157.912109,165.908203 156.112793,172.362467 156.112793,179.685059 C156.112793,187.526855 157.840495,194.240723 161.295898,199.82666 C164.733398,205.394694 169.352539,209.611003 175.15332,212.475586 C180.864583,215.340169 187.023438,216.772461 193.629883,216.772461 Z M193.629883,211.26709 C187.757487,211.26709 182.475911,209.798991 177.785156,206.862793 C173.022786,203.99821 169.357015,200.184733 166.787842,195.422363 C164.218669,190.659993 162.934082,185.48584 162.934082,179.899902 C162.934082,173.239746 164.509603,167.519531 167.660645,162.739258 C170.811686,158.048503 174.813151,154.530436 179.665039,152.185059 C184.427409,149.911296 189.153971,148.774414 193.844727,148.774414 C200.379557,148.774414 205.956543,150.349935 210.575684,153.500977 C215.194824,156.652018 218.677083,160.653483 221.022461,165.505371 C223.296224,170.339355 224.433105,175.289714 224.433105,180.356445 C224.433105,186.210938 223.072428,191.447754 220.351074,196.066895 C217.647624,200.775553 213.946045,204.486084 209.246338,207.198486 C204.546631,209.910889 199.341146,211.26709 193.629883,211.26709 Z M248.844727,215 L248.844727,179.362793 L281.286133,215 L290.524414,215 L255.558594,178.369141 L288.88623,144.611816 L280.53418,144.611816 L248.844727,177.590332 L248.844727,144.611816 L242.345703,144.611816 L242.345703,215 L248.844727,215 Z M304.945801,215 L304.945801,144.611816 L298.446777,144.611816 L298.446777,215 L304.945801,215 Z M349.149902,215 L349.149902,209.064941 L320.763672,209.064941 L320.763672,178.691406 L349.149902,178.691406 L349.149902,172.648926 L320.763672,172.648926 L320.763672,150.654297 L349.149902,150.654297 L349.149902,144.611816 L314.291504,144.611816 L314.291504,215 L349.149902,215 Z" id="COOKIE" fill="#C31218" fill-rule="nonzero"></path>
        <path d="M455.500596,174.376441 C458.711534,174.376441 461.324815,173.702613 463.34044,172.354957 C465.30919,171.054176 466.750596,169.372535 467.664659,167.310035 C468.578721,165.29441 469.035752,163.161597 469.035752,160.911597 C469.035752,156.341285 466.99669,152.667457 462.918565,149.890113 C461.957627,149.222144 460.850205,148.548316 459.596299,147.868629 C458.354112,147.20066 456.438096,146.192847 453.848252,144.845191 C450.438096,142.923316 448.733018,140.403785 448.733018,137.286597 C448.733018,134.884254 449.453721,133.038551 450.895127,131.749488 C452.324815,130.448707 454.047471,129.798316 456.063096,129.798316 C459.332627,129.798316 461.758409,131.16941 463.34044,133.911597 L463.34044,133.911597 L466.592393,131.960426 C465.045518,129.323707 463.481065,127.691871 461.899034,127.064918 C460.317002,126.437965 458.494737,126.124488 456.432237,126.124488 C452.787705,126.124488 449.881455,127.132301 447.713487,129.147926 C445.510362,131.210426 444.408799,133.876441 444.408799,137.145972 C444.408799,139.302222 444.983018,141.124488 446.131455,142.612769 C447.291612,144.147926 448.826768,145.612769 450.736924,147.007301 C451.99083,147.874488 454.035752,149.122535 456.87169,150.751441 C459.649034,152.380347 461.324815,153.458472 461.899034,153.985816 C463.820909,155.579566 464.781846,157.98191 464.781846,161.192847 C464.781846,164.35691 463.89708,166.759254 462.127549,168.399879 C460.346299,170.028785 458.113877,170.843238 455.430284,170.843238 C450.766221,170.843238 447.666612,168.417457 446.131455,163.565894 L446.131455,163.565894 L442.457627,165.517066 C444.145127,169.208472 446.09044,171.604957 448.293565,172.706519 C450.449815,173.819801 452.852159,174.376441 455.500596,174.376441 Z M510.72544,174.868629 L526.141455,127.144019 L521.817237,127.144019 L510.72544,163.636207 L498.051612,125.403785 L485.817237,163.935035 L474.303565,127.144019 L469.838721,127.144019 L485.817237,174.868629 L498.051612,135.915504 L510.72544,174.868629 Z M552.221768,173.216285 L552.221768,169.331519 L533.64169,169.331519 L533.64169,149.45066 L552.221768,149.45066 L552.221768,145.495582 L533.64169,145.495582 L533.64169,131.099097 L552.221768,131.099097 L552.221768,127.144019 L529.405362,127.144019 L529.405362,173.216285 L552.221768,173.216285 Z M580.024737,173.216285 L580.024737,169.331519 L561.444659,169.331519 L561.444659,149.45066 L580.024737,149.45066 L580.024737,145.495582 L561.444659,145.495582 L561.444659,131.099097 L580.024737,131.099097 L580.024737,127.144019 L557.20833,127.144019 L557.20833,173.216285 L580.024737,173.216285 Z M599.126534,173.216285 L599.126534,131.099097 L611.782784,131.099097 L611.782784,127.144019 L582.269112,127.144019 L582.269112,131.099097 L594.872627,131.099097 L594.872627,173.216285 L599.126534,173.216285 Z M639.966846,173.216285 L639.966846,127.144019 L635.71294,127.144019 L635.71294,173.216285 L639.966846,173.216285 Z M681.304971,174.517066 L681.304971,127.144019 L677.420206,127.144019 L677.420206,163.864722 L644.795206,125.192847 L644.795206,173.216285 L648.767862,173.216285 L648.767862,135.985816 L681.304971,174.517066 Z M723.815206,173.216285 L723.815206,152.052222 L738.932393,127.144019 L734.186299,127.144019 L721.811299,148.308082 L709.418721,127.144019 L704.373799,127.144019 L719.64919,152.052222 L719.64919,173.216285 L723.815206,173.216285 Z M764.590831,174.376441 C769.102549,174.376441 773.227549,173.392066 776.965831,171.423316 C780.715831,169.501441 783.692393,166.712379 785.895518,163.056129 C788.110362,159.411597 789.217784,155.216285 789.217784,150.470191 C789.217784,147.153785 788.614268,143.983863 787.407237,140.960426 C786.211924,137.983863 784.536143,135.394019 782.379893,133.190894 C780.211924,130.976051 777.663096,129.247535 774.733409,128.005347 C771.81544,126.751441 768.528331,126.124488 764.872081,126.124488 C760.700206,126.124488 756.692393,127.108863 752.848643,129.077613 C749.016612,131.046363 745.922862,133.829566 743.567393,137.427222 C741.211924,141.083472 740.03419,145.308082 740.03419,150.101051 C740.03419,155.233863 741.165049,159.628394 743.426768,163.284644 C745.676768,166.929176 748.700206,169.688941 752.497081,171.563941 C756.235362,173.438941 760.266612,174.376441 764.590831,174.376441 Z M764.590831,170.772926 C760.747081,170.772926 757.290049,169.811988 754.219737,167.890113 C751.102549,166.015113 748.703135,163.519019 747.021495,160.401832 C745.339854,157.284644 744.499034,153.897926 744.499034,150.241676 C744.499034,145.882301 745.530284,142.13816 747.592784,139.009254 C749.655284,135.938941 752.274424,133.636207 755.450206,132.101051 C758.567393,130.612769 761.661143,129.868629 764.731456,129.868629 C769.008799,129.868629 772.65919,130.899879 775.682628,132.962379 C778.706065,135.024879 780.985362,137.644019 782.520518,140.819801 C784.008799,143.983863 784.75294,147.224097 784.75294,150.540504 C784.75294,154.372535 783.862315,157.800269 782.081065,160.823707 C780.311534,163.905738 777.888682,166.334449 774.81251,168.10984 C771.736338,169.88523 768.329112,170.772926 764.590831,170.772926 Z M811.04419,174.376441 C816.809815,174.376441 821.034424,172.911597 823.718018,169.98191 C826.401612,167.052222 827.743409,162.370582 827.743409,155.936988 L827.743409,155.936988 L827.743409,127.144019 L823.577393,127.144019 L823.577393,157.308082 C823.577393,161.866676 822.639893,165.224097 820.764893,167.380347 C818.843018,169.595191 815.602784,170.702613 811.04419,170.702613 C806.91919,170.702613 803.802003,169.501441 801.692628,167.099097 C799.524659,164.696754 798.440674,161.433082 798.440674,157.308082 L798.440674,157.308082 L798.440674,127.144019 L794.274659,127.144019 L794.274659,155.936988 C794.274659,161.796363 795.663331,166.331519 798.440674,169.542457 C801.229737,172.765113 805.430909,174.376441 811.04419,174.376441 Z M838.214346,173.216285 L838.214346,151.331519 L840.657706,151.331519 L856.864737,173.216285 L861.962393,173.216285 L845.333487,151.331519 C848.356924,151.132301 851.11669,150.147926 853.612784,148.378394 C856.062003,146.597144 857.286612,143.714332 857.286612,139.729957 C857.286612,131.339332 852.341299,127.144019 842.450674,127.144019 L842.450674,127.144019 L833.96044,127.144019 L833.96044,173.216285 L838.214346,173.216285 Z M841.448721,147.868629 L838.214346,147.868629 L838.214346,130.800269 L841.519034,130.800269 C845.503409,130.800269 848.386221,131.45066 850.167471,132.751441 C851.937003,134.099097 852.821768,136.354957 852.821768,139.519019 C852.821768,143.022926 851.813956,145.278785 849.798331,146.286597 C847.782706,147.341285 844.999503,147.868629 841.448721,147.868629 L841.448721,147.868629 Z M909.447237,174.868629 L925.935518,138.077613 L929.310518,173.216285 L933.634737,173.216285 L927.658175,125.192847 L909.376925,166.237769 L891.728487,125.192847 L885.470675,173.216285 L889.794893,173.216285 L893.310518,138.077613 L909.447237,174.868629 Z M960.36544,174.376441 C964.877159,174.376441 969.002159,173.392066 972.74044,171.423316 C976.49044,169.501441 979.467003,166.712379 981.670128,163.056129 C983.884971,159.411597 984.992393,155.216285 984.992393,150.470191 C984.992393,147.153785 984.388878,143.983863 983.181846,140.960426 C981.986534,137.983863 980.310753,135.394019 978.154503,133.190894 C975.986534,130.976051 973.437706,129.247535 970.508018,128.005347 C967.59005,126.751441 964.30294,126.124488 960.64669,126.124488 C956.474815,126.124488 952.467003,127.108863 948.623253,129.077613 C944.791221,131.046363 941.697471,133.829566 939.342003,137.427222 C936.986534,141.083472 935.8088,145.308082 935.8088,150.101051 C935.8088,155.233863 936.939659,159.628394 939.201378,163.284644 C941.451378,166.929176 944.474815,169.688941 948.27169,171.563941 C952.009971,173.438941 956.041221,174.376441 960.36544,174.376441 Z M960.36544,170.772926 C956.52169,170.772926 953.064659,169.811988 949.994346,167.890113 C946.877159,166.015113 944.477745,163.519019 942.796104,160.401832 C941.114464,157.284644 940.273643,153.897926 940.273643,150.241676 C940.273643,145.882301 941.304893,142.13816 943.367393,139.009254 C945.429893,135.938941 948.049034,133.636207 951.224815,132.101051 C954.342003,130.612769 957.435753,129.868629 960.506065,129.868629 C964.783409,129.868629 968.4338,130.899879 971.457237,132.962379 C974.480675,135.024879 976.759971,137.644019 978.295128,140.819801 C979.783409,143.983863 980.52755,147.224097 980.52755,150.540504 C980.52755,154.372535 979.636925,157.800269 977.855675,160.823707 C976.086143,163.905738 973.663292,166.334449 970.58712,168.10984 C967.510948,169.88523 964.103721,170.772926 960.36544,170.772926 Z M1006.8188,174.376441 C1012.58442,174.376441 1016.80903,172.911597 1019.49263,169.98191 C1022.17622,167.052222 1023.51802,162.370582 1023.51802,155.936988 L1023.51802,155.936988 L1023.51802,127.144019 L1019.352,127.144019 L1019.352,157.308082 C1019.352,161.866676 1018.4145,165.224097 1016.5395,167.380347 C1014.61763,169.595191 1011.37739,170.702613 1006.8188,170.702613 C1002.6938,170.702613 999.576612,169.501441 997.467237,167.099097 C995.299268,164.696754 994.215284,161.433082 994.215284,157.308082 L994.215284,157.308082 L994.215284,127.144019 L990.049268,127.144019 L990.049268,155.936988 C990.049268,161.796363 991.43794,166.331519 994.215284,169.542457 C997.004346,172.765113 1001.20552,174.376441 1006.8188,174.376441 Z M1043.56903,173.216285 L1043.56903,131.099097 L1056.22528,131.099097 L1056.22528,127.144019 L1026.71161,127.144019 L1026.71161,131.099097 L1039.31513,131.099097 L1039.31513,173.216285 L1043.56903,173.216285 Z M1063.95403,173.216285 L1063.95403,149.45066 L1088.93255,149.45066 L1088.93255,173.216285 L1093.18646,173.216285 L1093.18646,127.144019 L1088.93255,127.144019 L1088.93255,145.864722 L1063.95403,145.864722 L1063.95403,127.144019 L1059.70013,127.144019 L1059.70013,173.216285 L1063.95403,173.216285 Z" id="SWEETINYOURMOUTH" fill="#C31218" fill-rule="nonzero"></path>
        <path d="M449.190548,101 L449.190548,80.4160156 L453.514766,80.4160156 C458.213985,80.4160156 462.028438,79.5019531 464.958126,77.6738281 C467.887813,75.8925781 469.352657,72.4824219 469.352657,67.4433594 C469.352657,63.0253906 467.887813,59.8320312 464.958126,57.8632812 C461.981563,55.90625 457.973751,54.9277344 452.934688,54.9277344 L452.934688,54.9277344 L444.936641,54.9277344 L444.936641,101 L449.190548,101 Z M453.655391,76.671875 L449.190548,76.671875 L449.190548,58.671875 L453.286251,58.671875 C460.973751,58.671875 464.817501,61.6953125 464.817501,67.7421875 C464.817501,70.953125 463.973751,73.2324219 462.286251,74.5800781 C460.610469,75.9746094 457.733516,76.671875 453.655391,76.671875 L453.655391,76.671875 Z M495.443846,102.160156 C501.209471,102.160156 505.43408,100.695312 508.117674,97.765625 C510.801268,94.8359375 512.143065,90.1542969 512.143065,83.7207031 L512.143065,83.7207031 L512.143065,54.9277344 L507.977049,54.9277344 L507.977049,85.0917969 C507.977049,89.6503906 507.039549,93.0078125 505.164549,95.1640625 C503.242674,97.3789062 500.00244,98.4863281 495.443846,98.4863281 C491.318846,98.4863281 488.201658,97.2851562 486.092283,94.8828125 C483.924315,92.4804688 482.84033,89.2167969 482.84033,85.0917969 L482.84033,85.0917969 L482.84033,54.9277344 L478.674315,54.9277344 L478.674315,83.7207031 C478.674315,89.5800781 480.062986,94.1152344 482.84033,97.3261719 C485.629393,100.548828 489.830565,102.160156 495.443846,102.160156 Z M537.179566,101 L537.179566,58.8828125 L549.835816,58.8828125 L549.835816,54.9277344 L520.322144,54.9277344 L520.322144,58.8828125 L532.92566,58.8828125 L532.92566,101 L537.179566,101 Z M572.13013,101 L572.13013,58.8828125 L584.78638,58.8828125 L584.78638,54.9277344 L555.272708,54.9277344 L555.272708,58.8828125 L567.876223,58.8828125 L567.876223,101 L572.13013,101 Z M596.920537,101 L596.920537,54.9277344 L592.666631,54.9277344 L592.666631,101 L596.920537,101 Z M643.244148,102.300781 L643.244148,54.9277344 L639.359382,54.9277344 L639.359382,91.6484375 L606.734382,52.9765625 L606.734382,101 L610.707039,101 L610.707039,63.7695312 L643.244148,102.300781 Z M674.749399,102.160156 C682.530649,102.160156 688.360728,100.115234 692.239634,96.0253906 C696.130259,91.9472656 698.075571,86.1640625 698.075571,78.6757812 L698.075571,78.6757812 L698.075571,78.3242188 L677.561899,78.3242188 L677.561899,81.9277344 L693.470103,81.9277344 C693.470103,87.7753906 691.694712,91.9707031 688.143931,94.5136719 C684.593149,97.1152344 680.608774,98.4160156 676.190806,98.4160156 C670.765024,98.4160156 666.130259,96.5644531 662.286509,92.8613281 C658.454478,89.1699219 656.538462,84.3476562 656.538462,78.3945312 C656.538462,74.6914062 657.30604,71.234375 658.841196,68.0234375 C660.376353,64.859375 662.608774,62.3398438 665.538462,60.4648438 C668.468149,58.6367188 671.872446,57.7226562 675.751353,57.7226562 C682.33729,57.7226562 687.763071,60.6523438 692.028696,66.5117188 L692.028696,66.5117188 L694.981821,63.9277344 C693.68104,61.6660156 692.046274,59.7675781 690.077524,58.2324219 C688.120493,56.7441406 685.940806,55.6425781 683.538462,54.9277344 C681.136118,54.2011719 678.616587,53.8378906 675.979868,53.8378906 C670.167368,53.8378906 665.46229,55.1796875 661.864634,57.8632812 C658.220103,60.5585938 655.677134,63.7988281 654.235728,67.5839844 C652.747446,71.3808594 652.003306,75.03125 652.003306,78.5351562 C652.003306,82.7539062 652.987681,86.6914062 654.956431,90.3476562 C656.925181,94.0390625 659.661509,96.9160156 663.165415,98.9785156 C666.610728,101.099609 670.472056,102.160156 674.749399,102.160156 Z M744.723128,102.160156 C747.934065,102.160156 750.547346,101.486328 752.562971,100.138672 C754.531721,98.8378906 755.973128,97.15625 756.88719,95.09375 C757.801253,93.078125 758.258284,90.9453125 758.258284,88.6953125 C758.258284,84.125 756.219221,80.4511719 752.141096,77.6738281 C751.180159,77.0058594 750.072737,76.3320312 748.818831,75.6523438 C747.576643,74.984375 745.660628,73.9765625 743.070784,72.6289062 C739.660628,70.7070312 737.95555,68.1875 737.95555,65.0703125 C737.95555,62.6679688 738.676253,60.8222656 740.117659,59.5332031 C741.547346,58.2324219 743.270003,57.5820312 745.285628,57.5820312 C748.555159,57.5820312 750.98094,58.953125 752.562971,61.6953125 L752.562971,61.6953125 L755.814925,59.7441406 C754.26805,57.1074219 752.703596,55.4755859 751.121565,54.8486328 C749.539534,54.2216797 747.717268,53.9082031 745.654768,53.9082031 C742.010237,53.9082031 739.103987,54.9160156 736.936018,56.9316406 C734.732893,58.9941406 733.631331,61.6601562 733.631331,64.9296875 C733.631331,67.0859375 734.20555,68.9082031 735.353987,70.3964844 C736.514143,71.9316406 738.0493,73.3964844 739.959456,74.7910156 C741.213362,75.6582031 743.258284,76.90625 746.094221,78.5351562 C748.871565,80.1640625 750.547346,81.2421875 751.121565,81.7695312 C753.04344,83.3632812 754.004378,85.765625 754.004378,88.9765625 C754.004378,92.140625 753.119612,94.5429688 751.350081,96.1835938 C749.568831,97.8125 747.336409,98.6269531 744.652815,98.6269531 C739.988753,98.6269531 736.889143,96.2011719 735.353987,91.3496094 L735.353987,91.3496094 L731.680159,93.3007812 C733.367659,96.9921875 735.312971,99.3886719 737.516096,100.490234 C739.672346,101.603516 742.07469,102.160156 744.723128,102.160156 Z M789.675645,102.160156 C794.187363,102.160156 798.312363,101.175781 802.050645,99.2070312 C805.800645,97.2851562 808.777207,94.4960938 810.980332,90.8398438 C813.195176,87.1953125 814.302598,83 814.302598,78.2539062 C814.302598,74.9375 813.699082,71.7675781 812.492051,68.7441406 C811.296738,65.7675781 809.620957,63.1777344 807.464707,60.9746094 C805.296738,58.7597656 802.74791,57.03125 799.818223,55.7890625 C796.900254,54.5351562 793.613145,53.9082031 789.956895,53.9082031 C785.78502,53.9082031 781.777207,54.8925781 777.933457,56.8613281 C774.101426,58.8300781 771.007676,61.6132812 768.652207,65.2109375 C766.296738,68.8671875 765.119004,73.0917969 765.119004,77.8847656 C765.119004,83.0175781 766.249863,87.4121094 768.511582,91.0683594 C770.761582,94.7128906 773.78502,97.4726562 777.581895,99.3476562 C781.320176,101.222656 785.351426,102.160156 789.675645,102.160156 Z M789.675645,98.5566406 C785.831895,98.5566406 782.374863,97.5957031 779.304551,95.6738281 C776.187363,93.7988281 773.787949,91.3027344 772.106309,88.1855469 C770.424668,85.0683594 769.583848,81.6816406 769.583848,78.0253906 C769.583848,73.6660156 770.615098,69.921875 772.677598,66.7929688 C774.740098,63.7226562 777.359238,61.4199219 780.53502,59.8847656 C783.652207,58.3964844 786.745957,57.6523438 789.81627,57.6523438 C794.093613,57.6523438 797.744004,58.6835938 800.767442,60.7460938 C803.790879,62.8085938 806.070176,65.4277344 807.605332,68.6035156 C809.093613,71.7675781 809.837754,75.0078125 809.837754,78.3242188 C809.837754,82.15625 808.947129,85.5839844 807.165879,88.6074219 C805.396348,91.6894531 802.973496,94.1181641 799.897324,95.8935547 C796.821153,97.6689453 793.413926,98.5566406 789.675645,98.5566406 Z M847.02074,102.652344 L863.509021,65.8613281 L866.884021,101 L871.20824,101 L865.231677,52.9765625 L846.950427,94.0214844 L829.30199,52.9765625 L823.044177,101 L827.368396,101 L830.884021,65.8613281 L847.02074,102.652344 Z M903.065054,101 L903.065054,97.1152344 L884.484976,97.1152344 L884.484976,77.234375 L903.065054,77.234375 L903.065054,73.2792969 L884.484976,73.2792969 L884.484976,58.8828125 L903.065054,58.8828125 L903.065054,54.9277344 L880.248647,54.9277344 L880.248647,101 L903.065054,101 Z M927.152336,101 L927.152336,58.8828125 L939.808586,58.8828125 L939.808586,54.9277344 L910.294914,54.9277344 L910.294914,58.8828125 L922.89843,58.8828125 L922.89843,101 L927.152336,101 Z M952.522822,101 L952.522822,77.234375 L977.501338,77.234375 L977.501338,101 L981.755244,101 L981.755244,54.9277344 L977.501338,54.9277344 L977.501338,73.6484375 L952.522822,73.6484375 L952.522822,54.9277344 L948.268916,54.9277344 L948.268916,101 L952.522822,101 Z M997.123777,101 L997.123777,54.9277344 L992.86987,54.9277344 L992.86987,101 L997.123777,101 Z M1043.44739,102.300781 L1043.44739,54.9277344 L1039.56262,54.9277344 L1039.56262,91.6484375 L1006.93762,52.9765625 L1006.93762,101 L1010.91028,101 L1010.91028,63.7695312 L1043.44739,102.300781 Z M1074.95264,102.160156 C1082.73389,102.160156 1088.56397,100.115234 1092.44287,96.0253906 C1096.3335,91.9472656 1098.27881,86.1640625 1098.27881,78.6757812 L1098.27881,78.6757812 L1098.27881,78.3242188 L1077.76514,78.3242188 L1077.76514,81.9277344 L1093.67334,81.9277344 C1093.67334,87.7753906 1091.89795,91.9707031 1088.34717,94.5136719 C1084.79639,97.1152344 1080.81201,98.4160156 1076.39404,98.4160156 C1070.96826,98.4160156 1066.3335,96.5644531 1062.48975,92.8613281 C1058.65772,89.1699219 1056.7417,84.3476562 1056.7417,78.3945312 C1056.7417,74.6914062 1057.50928,71.234375 1059.04444,68.0234375 C1060.57959,64.859375 1062.81201,62.3398438 1065.7417,60.4648438 C1068.67139,58.6367188 1072.07569,57.7226562 1075.95459,57.7226562 C1082.54053,57.7226562 1087.96631,60.6523438 1092.23194,66.5117188 L1092.23194,66.5117188 L1095.18506,63.9277344 C1093.88428,61.6660156 1092.24951,59.7675781 1090.28076,58.2324219 C1088.32373,56.7441406 1086.14404,55.6425781 1083.7417,54.9277344 C1081.33936,54.2011719 1078.81983,53.8378906 1076.18311,53.8378906 C1070.37061,53.8378906 1065.66553,55.1796875 1062.06787,57.8632812 C1058.42334,60.5585938 1055.88037,63.7988281 1054.43897,67.5839844 C1052.95069,71.3808594 1052.20654,75.03125 1052.20654,78.5351562 C1052.20654,82.7539062 1053.19092,86.6914062 1055.15967,90.3476562 C1057.12842,94.0390625 1059.86475,96.9160156 1063.36865,98.9785156 C1066.81397,101.099609 1070.67529,102.160156 1074.95264,102.160156 Z" id="PUTTINGSOMETHING" fill="#C31218" fill-rule="nonzero"></path>
        <polygon id="Line" fill="#C31218" fill-rule="nonzero" points="1160.31679 5.68320611 1160.31679 13.3167939 383.683206 13.3167939 383.683206 5.68320611"></polygon>
        <polygon id="Line" fill="#C31218" fill-rule="nonzero" points="1160.31679 207.683206 1160.31679 215.316794 383.683206 215.316794 383.683206 207.683206"></polygon>
    </g>
</svg>