<svg width="205" height="38" viewBox="0 0 205 38" fill="none" xmlns="http://www.w3.org/2000/svg">
<path d="M20.3809 0V21H13.1949V13H7.61264V21H0.426637V0H7.61264V7H13.1949V0H20.3809Z" fill="#C41218"/>
<path d="M64 5H57V21H51V5H44L44.0766 0H64V5Z" fill="#C41218"/>
<path d="M10.1468 34.7774C9.81093 35.797 9.22323 36.592 8.38367 37.1625C7.5561 37.7208 6.56061 38 5.39721 38C4.31777 38 3.37026 37.7512 2.55468 37.2535C1.7391 36.7437 1.10943 36.0215 0.665656 35.0869C0.221885 34.1523 0 33.0599 0 31.8097C0 30.5595 0.221885 29.4671 0.665656 28.5325C1.10943 27.5979 1.7391 26.8818 2.55468 26.3841C3.37026 25.8743 4.31177 25.6194 5.37922 25.6194C7.75399 25.6194 9.2892 26.6087 9.98484 28.5871L9.1033 29.0059C8.82744 28.1562 8.38367 27.519 7.77198 27.0942C7.17229 26.6694 6.3927 26.4569 5.43319 26.4569C4.54565 26.4569 3.76006 26.6754 3.07641 27.1124C2.40476 27.5372 1.88303 28.1562 1.51122 28.9695C1.13941 29.7706 0.953507 30.7173 0.953507 31.8097C0.953507 32.9021 1.13341 33.8549 1.49323 34.6682C1.86504 35.4693 2.38077 36.0883 3.04043 36.5253C3.71208 36.9501 4.49768 37.1625 5.39721 37.1625C6.35672 37.1625 7.17229 36.9258 7.84395 36.4524C8.5156 35.9791 8.98336 35.3054 9.24722 34.4315L10.1468 34.7774Z" fill="#C41218"/>
<path d="M42.4183 31.3363L40.0435 33.776V38H39.144V25H40.0435V32.538L46.5561 25H47.7435L43.048 30.6627L47.8695 38H46.772L42.4183 31.3363Z" fill="#C41218"/>
<path d="M51.0242 38H50.1246V25H51.0242V38Z" fill="#C41218"/>
<path d="M63 37V38H55V25H63V26H56V31H62V32H56V37H63Z" fill="#C41218"/>
<path fill-rule="evenodd" clip-rule="evenodd" d="M32.5 21C38.299 21 43 16.299 43 10.5C43 4.70101 38.299 0 32.5 0C26.701 0 22 4.70101 22 10.5C22 16.299 26.701 21 32.5 21ZM32.5 14C34.433 14 36 12.433 36 10.5C36 8.567 34.433 7 32.5 7C30.567 7 29 8.567 29 10.5C29 12.433 30.567 14 32.5 14Z" fill="#C41218"/>
<path fill-rule="evenodd" clip-rule="evenodd" d="M18 38C21.3137 38 24 35.3137 24 32C24 28.6863 21.3137 26 18 26C14.6863 26 12 28.6863 12 32C12 35.3137 14.6863 38 18 38ZM18 37C20.7614 37 23 34.7614 23 32C23 29.2386 20.7614 27 18 27C15.2386 27 13 29.2386 13 32C13 34.7614 15.2386 37 18 37Z" fill="#C41218"/>
<path fill-rule="evenodd" clip-rule="evenodd" d="M31 38C34.3137 38 37 35.3137 37 32C37 28.6863 34.3137 26 31 26C27.6863 26 25 28.6863 25 32C25 35.3137 27.6863 38 31 38ZM31 37C33.7614 37 36 34.7614 36 32C36 29.2386 33.7614 27 31 27C28.2386 27 26 29.2386 26 32C26 34.7614 28.2386 37 31 37Z" fill="#C41218"/>
<rect x="72" width="133" height="1" fill="#C41218"/>
<rect x="72" y="37" width="133" height="1" fill="#C41218"/>
<path d="M86.3735 9.24951V17H87.104V14.0781H89.0054C90.4824 14.0781 91.4976 13.1006 91.4976 11.6611C91.4976 10.2217 90.4932 9.24951 89.0107 9.24951H86.3735ZM87.104 9.90479H88.8389C90.0366 9.90479 90.7456 10.5601 90.7456 11.6611C90.7456 12.7622 90.0312 13.4229 88.8389 13.4229H87.104V9.90479Z" fill="#C41218"/>
<path d="M93.2808 9.24951H92.5503V14.293C92.5503 15.9634 93.6836 17.1235 95.5474 17.1235C97.4111 17.1235 98.5498 15.9634 98.5498 14.293V9.24951H97.814V14.25C97.814 15.5498 96.9707 16.4414 95.5474 16.4414C94.1294 16.4414 93.2808 15.5498 93.2808 14.25V9.24951Z" fill="#C41218"/>
<path d="M102.766 17V9.91553H105.328V9.24951H99.4736V9.91553H102.03V17H102.766Z" fill="#C41218"/>
<path d="M109.061 17V9.91553H111.623V9.24951H105.769V9.91553H108.325V17H109.061Z" fill="#C41218"/>
<path d="M113.283 17V9.24951H112.552V17H113.283Z" fill="#C41218"/>
<path d="M115.458 17V10.5225H115.496L120.056 17H120.765V9.24951H120.04V15.7217H120.002L115.458 9.24951H114.733V17H115.458Z" fill="#C41218"/>
<path d="M128.606 13.8525V13.106H125.47V13.7505H127.876V14.0244C127.876 15.4854 126.888 16.4414 125.389 16.4414C123.729 16.4414 122.661 15.1255 122.661 13.0791C122.661 11.0596 123.708 9.80811 125.389 9.80811C126.571 9.80811 127.479 10.4741 127.795 11.5806H128.558C128.268 10.0981 127.017 9.12598 125.389 9.12598C123.273 9.12598 121.909 10.6782 121.909 13.0791C121.909 15.5229 123.289 17.1235 125.389 17.1235C127.403 17.1235 128.606 15.8989 128.606 13.8525Z" fill="#C41218"/>
<path d="M131.673 14.8945C131.754 16.2266 132.893 17.1235 134.515 17.1235C136.228 17.1235 137.324 16.2319 137.324 14.873C137.324 13.7935 136.668 13.1973 135.111 12.8052L134.273 12.5903C133.134 12.3003 132.651 11.9082 132.651 11.2422C132.651 10.3882 133.446 9.79199 134.52 9.79199C135.621 9.79199 136.395 10.3721 136.464 11.2476H137.2C137.157 10.0176 136.051 9.12598 134.542 9.12598C133.016 9.12598 131.888 10.0176 131.888 11.269C131.888 12.2896 132.527 12.8965 133.961 13.2617L134.923 13.5088C136.072 13.7988 136.572 14.2285 136.572 14.9536C136.572 15.8237 135.739 16.4575 134.579 16.4575C133.365 16.4575 132.49 15.8237 132.409 14.8945H131.673Z" fill="#C41218"/>
<path d="M141.604 9.12598C139.445 9.12598 138.086 10.6729 138.086 13.1274C138.086 15.582 139.445 17.1235 141.604 17.1235C143.769 17.1235 145.128 15.582 145.128 13.1274C145.128 10.6729 143.764 9.12598 141.604 9.12598ZM141.604 9.80811C143.302 9.80811 144.376 11.0918 144.376 13.1274C144.376 15.1577 143.302 16.4414 141.604 16.4414C139.907 16.4414 138.838 15.1577 138.838 13.1274C138.838 11.0918 139.907 9.80811 141.604 9.80811Z" fill="#C41218"/>
<path d="M153.738 17V9.24951H152.889L150.021 16.0332H149.989L147.115 9.24951H146.272V17H146.959V10.6406H146.992L149.683 16.9624H150.322L153.018 10.6406H153.05V17H153.738Z" fill="#C41218"/>
<path d="M159.866 16.334H155.918V13.3584H159.667V12.7031H155.918V9.91553H159.866V9.24951H155.188V17H159.866V16.334Z" fill="#C41218"/>
<path d="M163.889 17V9.91553H166.451V9.24951H160.597V9.91553H163.153V17H163.889Z" fill="#C41218"/>
<path d="M173.38 17V9.24951H172.644V12.6978H168.111V9.24951H167.38V17H168.111V13.3638H172.644V17H173.38Z" fill="#C41218"/>
<path d="M175.566 17V9.24951H174.835V17H175.566Z" fill="#C41218"/>
<path d="M177.741 17V10.5225H177.779L182.339 17H183.048V9.24951H182.323V15.7217H182.285L177.741 9.24951H177.016V17H177.741Z" fill="#C41218"/>
<path d="M190.89 13.8525V13.106H187.753V13.7505H190.159V14.0244C190.159 15.4854 189.171 16.4414 187.672 16.4414C186.013 16.4414 184.944 15.1255 184.944 13.0791C184.944 11.0596 185.991 9.80811 187.672 9.80811C188.854 9.80811 189.762 10.4741 190.079 11.5806H190.841C190.551 10.0981 189.3 9.12598 187.672 9.12598C185.556 9.12598 184.192 10.6782 184.192 13.0791C184.192 15.5229 185.572 17.1235 187.672 17.1235C189.687 17.1235 190.89 15.8989 190.89 13.8525Z" fill="#C41218"/>
<path d="M80.519 26.8945C80.5996 28.2266 81.7383 29.1235 83.3604 29.1235C85.0737 29.1235 86.1694 28.2319 86.1694 26.873C86.1694 25.7935 85.5142 25.1973 83.9565 24.8052L83.1187 24.5903C81.98 24.3003 81.4966 23.9082 81.4966 23.2422C81.4966 22.3882 82.2915 21.792 83.3657 21.792C84.4668 21.792 85.2402 22.3721 85.3101 23.2476H86.0459C86.0029 22.0176 84.8965 21.126 83.3872 21.126C81.8618 21.126 80.7339 22.0176 80.7339 23.269C80.7339 24.2896 81.373 24.8965 82.8071 25.2617L83.7686 25.5088C84.918 25.7988 85.4175 26.2285 85.4175 26.9536C85.4175 27.8237 84.585 28.4575 83.4248 28.4575C82.2109 28.4575 81.3354 27.8237 81.2549 26.8945H80.519Z" fill="#C41218"/>
<path d="M91.4761 22.5063H91.519L93.4258 29H94.1025L96.2402 21.2495H95.4722L93.7695 27.8721H93.7319L91.8628 21.2495H91.1323L89.2578 27.8721H89.2256L87.5176 21.2495H86.7549L88.8872 29H89.5693L91.4761 22.5063Z" fill="#C41218"/>
<path d="M101.88 28.334H97.9321V25.3584H101.681V24.7031H97.9321V21.9155H101.88V21.2495H97.2017V29H101.88V28.334Z" fill="#C41218"/>
<path d="M107.81 28.334H103.862V25.3584H107.611V24.7031H103.862V21.9155H107.81V21.2495H103.131V29H107.81V28.334Z" fill="#C41218"/>
<path d="M111.833 29V21.9155H114.395V21.2495H108.54V21.9155H111.097V29H111.833Z" fill="#C41218"/>
<path d="M118.31 29V21.2495H117.58V29H118.31Z" fill="#C41218"/>
<path d="M120.485 29V22.5225H120.523L125.083 29H125.792V21.2495H125.067V27.7217H125.029L120.485 21.2495H119.76V29H120.485Z" fill="#C41218"/>
<path d="M132.42 29V25.6484L135.197 21.2495H134.359L132.065 24.9287H132.039L129.745 21.2495H128.907L131.684 25.6484V29H132.42Z" fill="#C41218"/>
<path d="M138.822 21.126C136.663 21.126 135.304 22.6729 135.304 25.1274C135.304 27.582 136.663 29.1235 138.822 29.1235C140.987 29.1235 142.346 27.582 142.346 25.1274C142.346 22.6729 140.981 21.126 138.822 21.126ZM138.822 21.8081C140.52 21.8081 141.594 23.0918 141.594 25.1274C141.594 27.1577 140.52 28.4414 138.822 28.4414C137.125 28.4414 136.056 27.1577 136.056 25.1274C136.056 23.0918 137.125 21.8081 138.822 21.8081Z" fill="#C41218"/>
<path d="M144.22 21.2495H143.49V26.293C143.49 27.9634 144.623 29.1235 146.487 29.1235C148.351 29.1235 149.489 27.9634 149.489 26.293V21.2495H148.753V26.25C148.753 27.5498 147.91 28.4414 146.487 28.4414C145.069 28.4414 144.22 27.5498 144.22 26.25V21.2495Z" fill="#C41218"/>
<path d="M151.665 21.9048H153.582C154.71 21.9048 155.392 22.5117 155.392 23.5376C155.392 24.5742 154.737 25.1758 153.609 25.1758H151.665V21.9048ZM151.665 25.8257H153.609C153.646 25.8257 153.7 25.8257 153.727 25.8257L155.51 29H156.37L154.49 25.7075C155.526 25.439 156.149 24.6118 156.149 23.5161C156.149 22.1357 155.183 21.2495 153.668 21.2495H150.934V29H151.665V25.8257Z" fill="#C41218"/>
<path d="M167.069 29V21.2495H166.22L163.352 28.0332H163.32L160.446 21.2495H159.603V29H160.291V22.6406H160.323L163.014 28.9624H163.653L166.349 22.6406H166.381V29H167.069Z" fill="#C41218"/>
<path d="M171.726 21.126C169.566 21.126 168.208 22.6729 168.208 25.1274C168.208 27.582 169.566 29.1235 171.726 29.1235C173.89 29.1235 175.249 27.582 175.249 25.1274C175.249 22.6729 173.885 21.126 171.726 21.126ZM171.726 21.8081C173.423 21.8081 174.497 23.0918 174.497 25.1274C174.497 27.1577 173.423 28.4414 171.726 28.4414C170.028 28.4414 168.959 27.1577 168.959 25.1274C168.959 23.0918 170.028 21.8081 171.726 21.8081Z" fill="#C41218"/>
<path d="M177.124 21.2495H176.393V26.293C176.393 27.9634 177.526 29.1235 179.39 29.1235C181.254 29.1235 182.393 27.9634 182.393 26.293V21.2495H181.657V26.25C181.657 27.5498 180.813 28.4414 179.39 28.4414C177.972 28.4414 177.124 27.5498 177.124 26.25V21.2495Z" fill="#C41218"/>
<path d="M186.609 29V21.9155H189.171V21.2495H183.316V21.9155H185.873V29H186.609Z" fill="#C41218"/>
<path d="M196.1 29V21.2495H195.364V24.6978H190.831V21.2495H190.1V29H190.831V25.3638H195.364V29H196.1Z" fill="#C41218"/>
</svg>
